<?xml version="1.0" standalone="no"?>
<!DOCTYPE svg PUBLIC "-//W3C//DTD SVG 1.1//EN" "http://www.w3.org/Graphics/SVG/1.1/DTD/svg11.dtd" >
<svg>
<metadata>
Created by FontForge 20090914 at Wed Jun 22 02:34:04 2022
 By www-data
Copyright 2020 The Epilogue Project Authors (https://github.com/Etcetera-Type-Co/Epilogue)
</metadata>
<defs>
<font id="Epilogue-Black" horiz-adv-x="0" >
  <font-face 
    font-family="Epilogue Black"
    font-weight="900"
    font-stretch="normal"
    units-per-em="2000"
    panose-1="0 0 0 0 0 0 0 0 0 0"
    ascent="1600"
    descent="-400"
    x-height="1062"
    cap-height="1475"
    bbox="-520 -486.999 2670 2299"
    underline-thickness="50"
    underline-position="-75"
    unicode-range="U+000D-U+FB02"
  />
<missing-glyph horiz-adv-x="669" 
d="M80 73v1344h509v-1344h-509zM230 176l-30 26l109 98l-109 98l30 26l109 -98l109 98l30 -26l-109 -98l109 -98l-30 -26l-109 98zM230 612l-30 26l109 98l-109 98l30 26l109 -98l109 98l30 -26l-109 -98l109 -98l-30 -26l-109 98zM119 107h431v1276h-431v-1276zM230 1048
l-30 26l110 98l-110 98l30 25l109 -97l109 97l30 -25l-110 -98l110 -98l-30 -26l-109 98z" />
    <glyph glyph-name="fi" unicode="fi" horiz-adv-x="1474" 
d="M227 0l0.000976562 761.996h-214v300h214v31c0 85.333 12.333 156.833 37 214.5s57.167 104.334 97.5 140.001s84.5 62.834 132.5 81.501s95.833 31.334 143.5 38.001s90.5 10 128.5 10c51.333 0 88.666 -2.83301 111.999 -8.5s39 -10.167 47 -13.5v-303
c-8 2.66699 -22.667 5.83398 -44 9.50098s-44.333 5.5 -69 5.5c-34 0 -62.833 -3.83301 -86.5 -11.5s-42.5 -19.167 -56.5 -34.5s-24.167 -34 -30.5 -56s-9.5 -47.333 -9.5 -76v-27h269v-300h-269v-762h-402zM1003 -0.00390625v1062h399v-1062h-399zM1202 1187
c-59.333 0 -111.166 15.3311 -155.499 45.998s-66.5 74.334 -66.5 131.001c0 57.333 22.167 101.166 66.5 131.499s96.166 45.5 155.499 45.5s111.166 -15.167 155.499 -45.5s66.5 -74.166 66.5 -131.499s-22.167 -101.166 -66.5 -131.499s-96.166 -45.5 -155.499 -45.5z
" />
    <glyph glyph-name="fl" unicode="fl" horiz-adv-x="1547" 
d="M227 0l0.000976562 761.996h-214v300h214v31c0 85.333 12.333 156.833 37 214.5s57.167 104.334 97.5 140.001s84.5 62.834 132.5 81.501s95.833 31.334 143.5 38.001s90.5 10 128.5 10c51.333 0 88.666 -2.83301 111.999 -8.5s39 -10.167 47 -13.5v-303
c-8 2.66699 -22.667 5.83398 -44 9.50098s-44.333 5.5 -69 5.5c-34 0 -62.833 -3.83301 -86.5 -11.5s-42.5 -19.167 -56.5 -34.5s-24.167 -34 -30.5 -56s-9.5 -47.333 -9.5 -76v-27h269v-300h-269v-762h-402zM1442 1563v-1563h-397v1563h397z" />
    <glyph glyph-name="f_f" unicode="ff" horiz-adv-x="1860" 
d="M227 0l0.000976562 761.996h-214v300h214v31c0 85.333 12.333 156.833 37 214.5s57.167 104.334 97.5 140.001s84.5 62.834 132.5 81.501s95.833 31.334 143.5 38.001s90.5 10 128.5 10c51.333 0 88.666 -2.83301 111.999 -8.5s39 -10.167 47 -13.5v-303
c-8 2.66699 -22.667 5.83398 -44 9.50098s-44.333 5.5 -69 5.5c-34 0 -62.833 -3.83301 -86.5 -11.5s-42.5 -19.167 -56.5 -34.5s-24.167 -34 -30.5 -56s-9.5 -47.333 -9.5 -76v-27h269v-300h-269v-762h-402zM1157 -0.00390625l0.000976562 761.996h-214v300h214v31
c0 85.333 12.333 156.833 37 214.5s57.167 104.334 97.5 140.001s84.5 62.834 132.5 81.501s95.833 31.334 143.5 38.001s90.5 10 128.5 10c51.333 0 88.666 -2.83301 111.999 -8.5s39 -10.167 47 -13.5v-303c-8 2.66699 -22.667 5.83398 -44 9.50098s-44.333 5.5 -69 5.5
c-34 0 -62.833 -3.83301 -86.5 -11.5s-42.5 -19.167 -56.5 -34.5s-24.167 -34 -30.5 -56s-9.5 -47.333 -9.5 -76v-27h269v-300h-269v-762h-402z" />
    <glyph glyph-name="f_f_i" unicode="ffi" horiz-adv-x="2404" 
d="M227 0l0.000976562 761.996h-214v300h214v31c0 85.333 12.333 156.833 37 214.5s57.167 104.334 97.5 140.001s84.5 62.834 132.5 81.501s95.833 31.334 143.5 38.001s90.5 10 128.5 10c51.333 0 88.666 -2.83301 111.999 -8.5s39 -10.167 47 -13.5v-303
c-8 2.66699 -22.667 5.83398 -44 9.50098s-44.333 5.5 -69 5.5c-34 0 -62.833 -3.83301 -86.5 -11.5s-42.5 -19.167 -56.5 -34.5s-24.167 -34 -30.5 -56s-9.5 -47.333 -9.5 -76v-27h269v-300h-269v-762h-402zM1157 -0.00390625l0.000976562 761.996h-214v300h214v31
c0 85.333 12.333 156.833 37 214.5s57.167 104.334 97.5 140.001s84.5 62.834 132.5 81.501s95.833 31.334 143.5 38.001s90.5 10 128.5 10c51.333 0 88.666 -2.83301 111.999 -8.5s39 -10.167 47 -13.5v-303c-8 2.66699 -22.667 5.83398 -44 9.50098s-44.333 5.5 -69 5.5
c-34 0 -62.833 -3.83301 -86.5 -11.5s-42.5 -19.167 -56.5 -34.5s-24.167 -34 -30.5 -56s-9.5 -47.333 -9.5 -76v-27h269v-300h-269v-762h-402zM1933 -0.0078125v1062h399v-1062h-399zM2132 1186.99c-59.333 0 -111.166 15.3311 -155.499 45.998s-66.5 74.334 -66.5 131.001
c0 57.333 22.167 101.166 66.5 131.499s96.166 45.5 155.499 45.5s111.166 -15.167 155.5 -45.5c44.333 -30.333 66.5 -74.166 66.5 -131.499s-22.167 -101.166 -66.5 -131.499s-96.166 -45.5 -155.5 -45.5z" />
    <glyph glyph-name="f_f_l" unicode="ffl" horiz-adv-x="2477" 
d="M227 0l0.000976562 761.996h-214v300h214v31c0 85.333 12.333 156.833 37 214.5s57.167 104.334 97.5 140.001s84.5 62.834 132.5 81.501s95.833 31.334 143.5 38.001s90.5 10 128.5 10c51.333 0 88.666 -2.83301 111.999 -8.5s39 -10.167 47 -13.5v-303
c-8 2.66699 -22.667 5.83398 -44 9.50098s-44.333 5.5 -69 5.5c-34 0 -62.833 -3.83301 -86.5 -11.5s-42.5 -19.167 -56.5 -34.5s-24.167 -34 -30.5 -56s-9.5 -47.333 -9.5 -76v-27h269v-300h-269v-762h-402zM1157 -0.00390625l0.000976562 761.996h-214v300h214v31
c0 85.333 12.333 156.833 37 214.5s57.167 104.334 97.5 140.001s84.5 62.834 132.5 81.501s95.833 31.334 143.5 38.001s90.5 10 128.5 10c51.333 0 88.666 -2.83301 111.999 -8.5s39 -10.167 47 -13.5v-303c-8 2.66699 -22.667 5.83398 -44 9.50098s-44.333 5.5 -69 5.5
c-34 0 -62.833 -3.83301 -86.5 -11.5s-42.5 -19.167 -56.5 -34.5s-24.167 -34 -30.5 -56s-9.5 -47.333 -9.5 -76v-27h269v-300h-269v-762h-402zM2372 1562.99v-1563h-397v1563h397z" />
    <glyph glyph-name=".notdef" horiz-adv-x="669" 
d="M80 73v1344h509v-1344h-509zM230 176l-30 26l109 98l-109 98l30 26l109 -98l109 98l30 -26l-109 -98l109 -98l-30 -26l-109 98zM230 612l-30 26l109 98l-109 98l30 26l109 -98l109 98l30 -26l-109 -98l109 -98l-30 -26l-109 98zM119 107h431v1276h-431v-1276zM230 1048
l-30 26l110 98l-110 98l30 25l109 -97l109 97l30 -25l-110 -98l110 -98l-30 -26l-109 98z" />
    <glyph glyph-name="CR" unicode="&#xd;" horiz-adv-x="826" 
 />
    <glyph glyph-name="space" unicode=" " horiz-adv-x="500" 
 />
    <glyph glyph-name="exclam" unicode="!" horiz-adv-x="622" 
d="M489 1473l-82 -1016h-237l-83 1016h402zM291 -32c-54.667 0 -101.167 19.167 -139.5 57.5s-57.5 84.833 -57.5 139.5c0 54 19.167 100.167 57.5 138.5s84.833 57.5 139.5 57.5c54 0 100.167 -19.167 138.5 -57.5s57.5 -84.5 57.5 -138.5
c0 -54.667 -19.167 -101.167 -57.5 -139.5s-84.5 -57.5 -138.5 -57.5z" />
    <glyph glyph-name="quotedbl" unicode="&#x22;" horiz-adv-x="889" 
d="M364 1475l-27 -556h-216l-27 556h270zM776 1475l-28 -556h-215l-27 556h270z" />
    <glyph glyph-name="numbersign" unicode="#" horiz-adv-x="1701" 
d="M548 1475h343l-365 -1475h-344zM1145 1475h343l-365 -1475h-343zM188 1095h1457l-59 -247h-1457zM101 625h1457l-59 -247h-1457z" />
    <glyph glyph-name="dollar" unicode="$" horiz-adv-x="1184" 
d="M518 1475h145v-1475h-145v1475zM590 193c-62.667 0 -124.673 7.49902 -186.006 22.499s-117.166 37.667 -167.499 68s-90.666 68.5 -120.999 114.5s-45.5 100 -45.5 162v5v5h399v-5v-5c0 -28 12 -47.667 36 -59s56.333 -17 97 -17c14.667 0 31.667 1.83301 51 5.5
s36.166 10 50.499 19s21.5 20.833 21.5 35.5c0 22 -15.167 37.5 -45.5 46.5s-83.166 19.5 -158.499 31.5c-45.333 7.33301 -93.333 18.166 -144 32.499s-98.334 34 -143.001 59s-81 56.833 -109 95.5s-42 86.334 -42 143.001c0 77.333 23.5 142 70.5 194
s109.333 91.167 187 117.5s162.5 39.5 254.5 39.5c87.333 0 169.333 -14.833 246 -44.5s139 -71.834 187 -126.501s72 -119.334 72 -194.001v-5v-5h-395v5v5c0 18.667 -5.83301 33.5 -17.5 44.5s-26.167 19.167 -43.5 24.5s-34.666 8 -51.999 8
c-13.333 0 -29.166 -1.5 -47.499 -4.5s-34.166 -8.5 -47.499 -16.5s-20 -19.667 -20 -35c0 -13.333 8.5 -24.666 25.5 -33.999s40.333 -17.166 70 -23.499s62.834 -12.166 99.501 -17.499c38 -5.33301 82 -14 132 -26s98.667 -29.833 146 -53.5s86.5 -55.667 117.5 -96
s46.5 -91.833 46.5 -154.5c0 -67.333 -15.5 -124 -46.5 -170s-72.333 -83 -124 -111s-108.167 -48.333 -169.5 -61s-122.666 -19 -183.999 -19z" />
    <glyph glyph-name="percent" unicode="%" horiz-adv-x="1350" 
d="M1316 1348l-1125 -1322l-137 116l1125 1322zM342 956c-51.333 0 -99.5 10.667 -144.5 32s-81.167 52 -108.5 92s-41 87 -41 141c0 54.667 13.667 102 41 142s63.5 70.833 108.5 92.5s93.167 32.5 144.5 32.5c53.333 0 102.833 -10.833 148.5 -32.5
s82.334 -52.5 110.001 -92.5s41.5 -87.333 41.5 -142c0 -54 -13.833 -101 -41.5 -141s-64.334 -70.667 -110.001 -92s-95.167 -32 -148.5 -32zM342 1117c20 0 39 3.33301 57 10s32.833 17.667 44.5 33s17.5 35.666 17.5 60.999c0 26 -5.83301 46.667 -17.5 62
s-26.5 26.333 -44.5 33s-37 10 -57 10c-18.667 0 -36.667 -3.33301 -54 -10s-31.5 -17.667 -42.5 -33s-16.5 -36 -16.5 -62c0 -25.333 5.5 -45.666 16.5 -60.999s25.167 -26.333 42.5 -33s35.333 -10 54 -10zM1002 -1c-51.333 0 -99.5 10.667 -144.5 32
s-81.167 52 -108.5 92s-41 87 -41 141c0 54.667 13.667 102 41 142s63.5 70.833 108.5 92.5s93.167 32.5 144.5 32.5c53.333 0 102.833 -10.833 148.5 -32.5s82.5 -52.5 110.5 -92.5s42 -87.333 42 -142c0 -54 -14 -101 -42 -141s-64.833 -70.667 -110.5 -92
s-95.167 -32 -148.5 -32zM1002 160c20 0 39 3.33301 57 10s32.833 17.667 44.5 33s17.5 35.666 17.5 60.999c0 26 -5.83301 46.667 -17.5 62s-26.5 26.333 -44.5 33s-37 10 -57 10c-18.667 0 -36.667 -3.33301 -54 -10s-31.5 -17.667 -42.5 -33s-16.5 -36 -16.5 -62
c0 -25.333 5.5 -45.666 16.5 -60.999s25.167 -26.333 42.5 -33s35.333 -10 54 -10z" />
    <glyph glyph-name="ampersand" unicode="&#x26;" horiz-adv-x="1525" 
d="M640 -26c-106.667 0 -203.332 15.6641 -289.999 46.9971s-155.334 78 -206.001 140s-76 138.667 -76 230c0 71.333 18.833 134 56.5 188s92.667 105.5 165 154.5s160.833 101.5 265.5 157.5c84.667 45.333 144.834 86.5 180.501 123.5s53.5 74.167 53.5 111.5
c0 21.333 -4.5 39.666 -13.5 54.999s-21.667 27.333 -38 36s-35.5 13 -57.5 13c-21.333 0 -40.5 -4.33301 -57.5 -13s-30.167 -20.667 -39.5 -36s-14 -33.666 -14 -54.999c0 -32.667 12.333 -69.667 37 -111s53.667 -81.666 87 -120.999l491 -574
c24.667 -28.667 48.5 -46.334 71.5 -53.001s42.167 -10 57.5 -10c17.333 0 36.166 2.5 56.499 7.5s34.833 9.16699 43.5 12.5v-277c-4.66699 -2 -20.5 -6.66699 -47.5 -14s-62.5 -11 -106.5 -11c-44.667 0 -92.167 9.16699 -142.5 27.5s-91.166 45.833 -122.499 82.5
l-545 633c-28.667 33.333 -59.334 72.333 -92.001 117s-60.5 93.334 -83.5 146.001s-34.5 107.334 -34.5 164.001c0 60.667 18 117 54 169s86.833 94.167 152.5 126.5s142.834 48.5 231.501 48.5c90 0 166.833 -16 230.5 -48s112.5 -73.833 146.5 -125.5
s51 -107.167 51 -166.5c0 -70.667 -15 -133 -45 -187s-74 -104.333 -132 -151s-129.333 -94 -214 -142c-92 -52.667 -161.167 -97 -207.5 -133s-69.5 -78 -69.5 -126c0 -29.333 9.66699 -55.5 29 -78.5s44.833 -40.833 76.5 -53.5s65.834 -19 102.501 -19
c69.333 0 129.5 11.833 180.5 35.5s95.5 54.834 133.5 93.501c35.333 36 65.166 75.5 89.499 118.5s36.5 105.833 36.5 188.5h326c0 -88 -11 -163.833 -33 -227.5s-50.333 -118.667 -85 -165s-71.334 -87.833 -110.001 -124.5c-64.667 -62 -143.5 -111.5 -236.5 -148.5
s-195.167 -55.5 -306.5 -55.5z" />
    <glyph glyph-name="quotesingle" unicode="'" horiz-adv-x="386" 
d="M332 1475l-30 -556h-219l-29 556h278z" />
    <glyph glyph-name="parenleft" unicode="(" horiz-adv-x="923" 
d="M675 -467c-15.333 10.667 -41.666 31.165 -78.999 61.498s-79.166 72.833 -125.499 127.5s-91.166 123.167 -134.499 205.5s-79.166 180 -107.499 293s-42.5 243.5 -42.5 391.5c0 148.667 14.167 279.667 42.5 393s64.166 211 107.499 293s88.166 150.333 134.499 205
s88.166 97.167 125.499 127.5s63.666 50.833 78.999 61.5l208 -219c-18 -14.667 -45.833 -40.667 -83.5 -78s-76.667 -89.5 -117 -156.5s-74.666 -151.833 -102.999 -254.5s-42.5 -226.667 -42.5 -372c0 -144.667 14.167 -268.167 42.5 -370.5
s62.666 -187.166 102.999 -254.499s79.333 -119.666 117 -156.999s65.5 -63.333 83.5 -78z" />
    <glyph glyph-name="parenright" unicode=")" horiz-adv-x="943" 
d="M274 -467l-208 219.002c18 14.667 45.833 40.667 83.5 78s76.667 89.666 117 156.999s74.666 152.166 102.999 254.499s42.5 225.833 42.5 370.5c0 145.333 -14.167 269.333 -42.5 372s-62.666 187.5 -102.999 254.5s-79.333 119.167 -117 156.5s-65.5 63.333 -83.5 78
l208 219c15.333 -10.667 41.666 -31.167 78.999 -61.5s79.166 -72.833 125.499 -127.5s91.166 -123 134.499 -205s79.166 -179.667 107.499 -293s42.5 -244.333 42.5 -393c0 -148 -14.167 -278.5 -42.5 -391.5s-64.166 -210.667 -107.499 -293
s-88.166 -150.833 -134.499 -205.5s-88.166 -97.167 -125.499 -127.5s-63.666 -50.833 -78.999 -61.5z" />
    <glyph glyph-name="asterisk" unicode="*" horiz-adv-x="897" 
d="M596 1175l127 -132l-159 -105l-117 170l-116 -170l-159 105l127 132l-190 58l82 157l167 -69l-11 165h201l-11 -165l167 69l82 -157z" />
    <glyph glyph-name="plus" unicode="+" horiz-adv-x="1350" 
d="M1075 402h-279v-218h-249v218h-280v247h280v219h249v-219h279v-247z" />
    <glyph glyph-name="comma" unicode="," horiz-adv-x="651" 
d="M190 -359l-53.001 92c41.333 19.333 78.666 44.5 111.999 75.5s60 62.333 80 94s30 58.167 30 79.5c0 12 -2 23.833 -6 35.5s-8.66699 20.834 -14 27.501h88c-6.66699 -16 -19.5 -33 -38.5 -51s-51.5 -27 -97.5 -27c-45.333 0 -87.166 16.667 -125.499 50
s-57.5 81 -57.5 143c0 57.333 19.167 105.166 57.5 143.499s86.833 57.5 145.5 57.5c66.667 0 120.334 -24.333 161.001 -73s61 -107.667 61 -177c0 -71.333 -16.167 -137.333 -48.5 -198s-74.5 -114 -126.5 -160s-108 -83.333 -168 -112z" />
    <glyph glyph-name="hyphen" unicode="-" horiz-adv-x="906" 
d="M66 444v245h750v-245h-750z" />
    <glyph glyph-name="period" unicode="." horiz-adv-x="629" 
d="M315 -32c-54.667 0 -101.167 19.167 -139.5 57.5s-57.5 84.833 -57.5 139.5c0 54 19.167 100.167 57.5 138.5s84.833 57.5 139.5 57.5c54 0 100.167 -19.167 138.5 -57.5s57.5 -84.5 57.5 -138.5c0 -54.667 -19.167 -101.167 -57.5 -139.5s-84.5 -57.5 -138.5 -57.5z" />
    <glyph glyph-name="slash" unicode="/" horiz-adv-x="851" 
d="M849 1563l-508 -1718h-321l508 1718h321z" />
    <glyph glyph-name="zero" unicode="0" horiz-adv-x="1231" 
d="M608 -26c-102.667 0 -189.834 20.833 -261.501 62.5s-129.667 98.167 -174 169.5s-76.666 152.5 -96.999 243.5s-30.5 185.833 -30.5 284.5s10.167 193.834 30.5 285.501s52.666 173.667 96.999 246s102.333 129.5 174 171.5s158.834 63 261.501 63
s189.834 -21 261.501 -63s129.667 -99.167 174 -171.5s76.666 -154.333 96.999 -246s30.5 -186.834 30.5 -285.501s-10.167 -193.5 -30.5 -284.5s-52.666 -172.167 -96.999 -243.5s-102.333 -127.833 -174 -169.5s-158.834 -62.5 -261.501 -62.5zM608 275
c32.667 0 60.667 13.332 84 39.999s41.333 73.334 54 140.001s19 159.667 19 279c0 120 -6.33301 213.167 -19 279.5s-30.667 112.833 -54 139.5s-51.333 40 -84 40c-32 0 -59.833 -13.333 -83.5 -40s-41.834 -73.167 -54.501 -139.5s-19 -159.5 -19 -279.5
s6.33301 -213.167 19 -279.5s30.834 -112.833 54.501 -139.5s51.5 -40 83.5 -40z" />
    <glyph glyph-name="one" unicode="1" horiz-adv-x="960" 
d="M783 1475v-1475h-400v1115c-10 -6 -29.5 -13.667 -58.5 -23s-62.833 -18 -101.5 -26s-77.667 -13.333 -117 -16v304c40 3.33301 80 11.5 120 24.5s74.833 28.167 104.5 45.5s49.5 34.333 59.5 51h393z" />
    <glyph glyph-name="two" unicode="2" horiz-adv-x="1299" 
d="M66 0l0.000976562 326l56.5 39.5l115 82.5l140.5 103l134 100c46.667 35.333 91.834 72 135.501 110s79.667 78.167 108 120.5s42.5 87.5 42.5 135.5c0 50.667 -12.5 93.5 -37.5 128.5s-66.167 52.5 -123.5 52.5c-46.667 0 -83.167 -10.667 -109.5 -32
s-44.833 -50.833 -55.5 -88.5s-16 -81.5 -16 -131.5h-404c0 116 23.5 215.333 70.5 298s114.667 146 203 190s194.166 66 317.499 66c124 0 227.5 -22 310.5 -66s145.167 -102.833 186.5 -176.5s62 -155.167 62 -244.5c0 -62 -11.833 -118.5 -35.5 -169.5
s-54.334 -97.333 -92.001 -139s-77.667 -79.167 -120 -112.5l-120.5 -91l-160 -113.5l-96.5 -67.5l-42.5 -29h646v-291h-1115z" />
    <glyph glyph-name="three" unicode="3" horiz-adv-x="1319" 
d="M902 778c57.333 -2 109.165 -18.0029 155.498 -48.0029s83 -70.333 110 -121s40.5 -108.667 40.5 -174c0 -79.333 -19.333 -154.166 -58 -224.499s-99.334 -127.333 -182.001 -171s-189.667 -65.5 -321 -65.5c-114 0 -208 14.667 -282 44s-132 68.833 -174 118.5
s-71.5 105 -88.5 166s-25.5 123.5 -25.5 187.5v2v2h403v-2v-2c0 -56.667 7.16699 -100.5 21.5 -131.5s34.333 -52.667 60 -65s55.834 -18.5 90.501 -18.5c43.333 0 79.5 12.5 108.5 37.5s43.5 69.5 43.5 133.5c0 33.333 -4 61.666 -12 84.999s-20 42.333 -36 57
s-36.667 25.334 -62 32.001s-55.666 10 -90.999 10h-49v270h49c35.333 0 65.666 4.33301 90.999 13s46.166 20.834 62.499 36.501s28.333 33.834 36 54.501s11.5 42.667 11.5 66c0 44 -14.167 76.333 -42.5 97s-62.833 31 -103.5 31c-48.667 0 -90.5 -14 -125.5 -42
s-52.5 -79 -52.5 -153h-403c0 62.667 10.333 123.5 31 182.5s53.334 112.167 98.001 159.5s103.667 85 177 113s162.333 42 267 42c132.667 0 239.834 -20.667 321.501 -62s141.5 -93.333 179.5 -156s57 -126 57 -190c0 -57.333 -13.5 -109.333 -40.5 -156
s-63.667 -84 -110 -112s-98.166 -43.333 -155.499 -46z" />
    <glyph glyph-name="four" unicode="4" horiz-adv-x="1277" 
d="M665 0v251h-646v267l526 957h513v-935h162v-289h-162v-251h-393zM310 380l-102 160h457v684l77 -22z" />
    <glyph glyph-name="five" unicode="5" horiz-adv-x="1284" 
d="M1138 1185l-588.997 -0.000976562l-54 -319c2 6 9 14 21 24s28.5 20 49.5 30s47 18.5 78 25.5s66.5 10.5 106.5 10.5c141.333 0 249 -43.167 323 -129.5s111 -198.5 111 -336.5c0 -112.667 -20.667 -207.334 -62 -284.001s-103.333 -134.5 -186 -173.5
s-186.334 -58.5 -311.001 -58.5c-102.667 0 -188.834 15.167 -258.501 45.5s-125.5 69.833 -167.5 118.5s-72.167 101.334 -90.5 158.001s-27.5 111.334 -27.5 164.001v3v2h399v-2v-3c4.66699 -51.333 17.167 -95 37.5 -131s58.5 -54 114.5 -54
c35.333 0 63.833 7.5 85.5 22.5s37.5 37.833 47.5 68.5s15 69 15 115c0 62 -10.333 111.5 -31 148.5s-57.667 55.5 -111 55.5c-28.667 0 -53.834 -5.33301 -75.501 -16s-39.167 -24 -52.5 -40s-23 -32.333 -29 -49l-382 99l130 796h909v-290z" />
    <glyph glyph-name="six" unicode="6" horiz-adv-x="1325" 
d="M655 -26c-132.667 0 -240.001 29.168 -322.001 87.501s-142 142.333 -180 252s-57 240.834 -57 393.501c0 114 11.333 219.167 34 315.5s57.5 180.166 104.5 251.499s106.667 126.833 179 166.5s157.833 59.5 256.5 59.5c100.667 0 183.5 -16.833 248.5 -50.5
s115.667 -75.334 152 -125.001s61.833 -99.667 76.5 -150s22 -92.166 22 -125.499v-4.5v-4.5h-374v4.5v4.5c0 12 -1.66699 26.5 -5 43.5s-9.5 33.667 -18.5 50s-21.833 30 -38.5 41s-38 16.5 -64 16.5c-43.333 0 -77.666 -19.833 -102.999 -59.5
s-43.166 -94.667 -53.499 -165s-15.5 -151.833 -15.5 -244.5l-41 -2c4 24 17 51 39 81s56.667 56.167 104 78.5s110.333 33.5 189 33.5c96.667 0 176.5 -20.5 239.5 -61.5s109.833 -94.333 140.5 -160s46 -135.834 46 -210.501c0 -97.333 -20.667 -185 -62 -263
s-103.333 -139.667 -186 -185s-186.334 -68 -311.001 -68zM659.999 275.001c33.333 0 60.999 6.66602 82.999 19.999s38.5 34 49.5 62s16.5 63.333 16.5 106s-5.83301 77.834 -17.5 105.501s-28 48.5 -49 62.5s-45.833 21 -74.5 21c-30 0 -56.167 -7 -78.5 -21
s-39.666 -35 -51.999 -63s-18.5 -63 -18.5 -105c0 -40 6 -74 18 -102s28.5 -49.333 49.5 -64s45.5 -22 73.5 -22z" />
    <glyph glyph-name="seven" unicode="7" horiz-adv-x="1135" 
d="M687 1187v-2h-630v290h1048v-267c-60.667 -44.667 -113.667 -98.834 -159 -162.501s-84 -135 -116 -214s-58 -163.667 -78 -254s-34.5 -184.166 -43.5 -281.499s-13.5 -196 -13.5 -296h-404c0 107.333 4.5 210.333 13.5 309s23.333 191.667 43 279s45 168.333 76 243
s68.333 142 112 202s94.167 111.333 151.5 154z" />
    <glyph glyph-name="eight" unicode="8" horiz-adv-x="1365" 
d="M680 -26c-128.667 0 -235.331 20.8311 -319.998 62.498s-148 96.834 -190 165.501s-63 143.667 -63 225c0 74 16.5 135.833 49.5 185.5s72 88 117 115s85.833 43.167 122.5 48.5c-30.667 7.33301 -65.834 23.166 -105.501 47.499s-74 60 -103 107
s-43.5 108.5 -43.5 184.5c0 74.667 22.667 141 68 199s108.333 103.5 189 136.5s173.667 49.5 279 49.5s198.166 -16.5 278.499 -49.5s143.166 -78.5 188.499 -136.5s68 -124.333 68 -199c0 -75.333 -14.5 -136.666 -43.5 -183.999s-63.167 -83.166 -102.5 -107.499
s-74.666 -40.166 -105.999 -47.499c36.667 -5.33301 77.5 -21.5 122.5 -48.5s84 -65.333 117 -115s49.5 -111.5 49.5 -185.5c0 -81.333 -21 -156.333 -63 -225s-105.333 -123.834 -190 -165.501s-191 -62.5 -319 -62.5zM680.003 274.998
c30.667 0 57.999 7.83496 81.999 23.502s42.833 37 56.5 64s20.5 57.833 20.5 92.5c0 35.333 -6.83301 66.166 -20.5 92.499s-32.334 47 -56.001 62s-51.167 22.5 -82.5 22.5s-59.166 -7.5 -83.499 -22.5s-43.166 -35.833 -56.499 -62.5s-20 -57.334 -20 -92.001
s6.83301 -65.5 20.5 -92.5s32.667 -48.333 57 -64s51.833 -23.5 82.5 -23.5zM680.002 922c45.333 0 81.001 12.833 107.001 38.5s39 59.167 39 100.5c0 28.667 -6 53.167 -18 73.5s-29 36 -51 47s-47.667 16.5 -77 16.5s-55 -5.5 -77 -16.5s-39.167 -26.667 -51.5 -47
s-18.5 -44.833 -18.5 -73.5c0 -41.333 13.167 -74.833 39.5 -100.5s62.166 -38.5 107.499 -38.5z" />
    <glyph glyph-name="nine" unicode="9" horiz-adv-x="1282" 
d="M626 -27c-100.667 0 -183.501 16.8271 -248.501 50.4941s-115.667 75.334 -152 125.001s-61.833 99.667 -76.5 150s-22 92.166 -22 125.499v4.5v4.5h374v-4.5v-4.5c0 -12 1.66699 -26.5 5 -43.5s9.5 -33.667 18.5 -50s21.833 -30 38.5 -41s38 -16.5 64 -16.5
c44 0 78.5 19.833 103.5 59.5s42.667 94.667 53 165s15.5 151.833 15.5 244.5l41 2c-4 -23.333 -17 -50.166 -39 -80.499s-56.5 -56.666 -103.5 -78.999s-110.167 -33.5 -189.5 -33.5c-96.667 0 -176.5 20.5 -239.5 61.5s-109.833 94.333 -140.5 160
s-46 135.834 -46 210.501c0 97.333 20.667 185 62 263s103.333 139.667 186 185s186.334 68 311.001 68c132.667 0 240 -29.167 322 -87.5s142 -142.166 180 -251.499s57 -240.666 57 -393.999c0 -114 -11.333 -219.167 -34 -315.5s-57.5 -180.166 -104.5 -251.499
s-106.667 -126.833 -179 -166.5s-157.833 -59.5 -256.5 -59.5zM627.999 820.994c30 0 56.168 6.99805 78.501 20.998s39.666 35 51.999 63s18.5 63 18.5 105c0 40.667 -5.83301 74.834 -17.5 102.501s-28.167 48.834 -49.5 63.501s-46 22 -74 22
c-33.333 0 -61 -6.66699 -83 -20s-38.5 -33.833 -49.5 -61.5s-16.5 -63.167 -16.5 -106.5c0 -42 5.83301 -77 17.5 -105s28 -49 49 -63s45.833 -21 74.5 -21z" />
    <glyph glyph-name="colon" unicode=":" horiz-adv-x="630" 
d="M315 -32c-54.667 0 -101.167 19.167 -139.5 57.5s-57.5 84.833 -57.5 139.5c0 54 19.167 100.167 57.5 138.5s84.833 57.5 139.5 57.5c54 0 100.167 -19.167 138.5 -57.5s57.5 -84.5 57.5 -138.5c0 -54.667 -19.167 -101.167 -57.5 -139.5s-84.5 -57.5 -138.5 -57.5z
M316 687c-54.667 0 -101.167 19.167 -139.5 57.5s-57.5 84.833 -57.5 139.5c0 54 19.167 100.167 57.5 138.5s84.833 57.5 139.5 57.5c54 0 100.167 -19.167 138.5 -57.5s57.5 -84.5 57.5 -138.5c0 -54.667 -19.167 -101.167 -57.5 -139.5s-84.5 -57.5 -138.5 -57.5z" />
    <glyph glyph-name="semicolon" unicode=";" horiz-adv-x="661" 
d="M200 -367l-53.001 92c41.333 19.333 78.666 44.5 111.999 75.5s60 62.333 80 94s30 58.167 30 79.5c0 12 -2 23.833 -6 35.5s-8.66699 20.834 -14 27.501h88c-6.66699 -16 -19.5 -33 -38.5 -51s-51.5 -27 -97.5 -27c-45.333 0 -87.166 16.667 -125.499 50
s-57.5 81 -57.5 143c0 57.333 19.167 105.166 57.5 143.499s86.833 57.5 145.5 57.5c66.667 0 120.334 -24.333 161.001 -73s61 -107.667 61 -177c0 -71.333 -16.167 -137.333 -48.5 -198s-74.5 -114 -126.5 -160s-108 -83.333 -168 -112zM323.999 686
c-54.667 0 -101.167 19.167 -139.5 57.5s-57.5 84.833 -57.5 139.5c0 54 19.167 100.167 57.5 138.5s84.833 57.5 139.5 57.5c54 0 100.167 -19.167 138.5 -57.5s57.5 -84.5 57.5 -138.5c0 -54.667 -19.167 -101.167 -57.5 -139.5s-84.5 -57.5 -138.5 -57.5z" />
    <glyph glyph-name="less" unicode="&#x3c;" horiz-adv-x="1350" 
d="M1023 44l-696 356v262l696 357v-328l-550 -210v100l550 -209v-328z" />
    <glyph glyph-name="equal" unicode="=" horiz-adv-x="1350" 
d="M1069 593h-794v247h794v-247zM1069 218h-794v247h794v-247z" />
    <glyph glyph-name="greater" unicode="&#x3e;" horiz-adv-x="1350" 
d="M327 1019l696 -357v-262l-696 -356v328l550 209v-100l-550 210v328z" />
    <glyph glyph-name="question" unicode="?" horiz-adv-x="1159" 
d="M432 445c0 64 9.66895 121.166 29.002 171.499s43.833 95.833 73.5 136.5s59.167 78.334 88.5 113.001c21.333 25.333 41 50 59 74s32.333 48.333 43 73s16 49.667 16 75c0 42.667 -11.667 75.334 -35 98.001s-57 34 -101 34c-49.333 0 -88.666 -17.833 -117.999 -53.5
s-44 -90.834 -44 -165.501h-353c0 116.667 23.333 210.5 70 281.5s108.667 122.667 186 155s161.666 48.5 252.999 48.5s174.166 -15.333 248.499 -46s133.5 -77 177.5 -139s66 -140.667 66 -236c0 -56 -9.83301 -105.5 -29.5 -148.5s-44.834 -81.5 -75.501 -115.5
s-62 -66.333 -94 -97c-42 -40 -79 -79.833 -111 -119.5s-48 -86.167 -48 -139.5h-301zM599.002 -32.001c-54.667 0 -101.167 19.167 -139.5 57.5s-57.5 84.833 -57.5 139.5c0 54 19.167 100.167 57.5 138.5s84.833 57.5 139.5 57.5c54 0 100.167 -19.167 138.5 -57.5
s57.5 -84.5 57.5 -138.5c0 -54.667 -19.167 -101.167 -57.5 -139.5s-84.5 -57.5 -138.5 -57.5z" />
    <glyph glyph-name="at" unicode="@" horiz-adv-x="2014" 
d="M1622 98c-40 -23.333 -99.1689 -44.5 -177.502 -63.5s-166.333 -34.167 -264 -45.5s-195.834 -17 -294.501 -17c-167.333 0 -313.333 24 -438 72s-221.334 120.5 -290.001 217.5s-103 219.167 -103 366.5c0 134 26.5 254.833 79.5 362.5s126.5 199.667 220.5 276
s203.333 135 328 176s258.667 61.5 402 61.5c141.333 0 263 -17.167 365 -51.5s185.667 -80 251 -137s113.833 -120.5 145.5 -190.5s47.5 -140.667 47.5 -212c0 -88.667 -16.5 -170 -49.5 -244s-79.167 -138.333 -138.5 -193s-128.333 -97 -207 -127s-163.667 -45 -255 -45
c-28.667 0 -56.5 3.5 -83.5 10.5s-49.333 18.5 -67 34.5s-27.167 37.667 -28.5 65v3v3c-11.333 -27.333 -35.166 -52.5 -71.499 -75.5s-83.166 -34.5 -140.499 -34.5c-80 0 -144.833 15.333 -194.5 46s-86.167 71.667 -109.5 123s-35 108.333 -35 171
c0 94.667 19.5 179.667 58.5 255s92.833 135 161.5 179s148 66 238 66c53.333 0 96.166 -8.83301 128.499 -26.5s48.5 -38.167 48.5 -61.5l19 66h264l-133 -527c-0.666992 -4.66699 -1.66699 -10.667 -3 -18s-2 -11.666 -2 -12.999c0 -22 2.5 -38 7.5 -48
s17.833 -15 38.5 -15c47.333 0 88 11 122 33s62 52.167 84 90.5s38.333 81.833 49 130.5s16 100 16 154c0 78.667 -19.667 147.167 -59 205.5s-99 103.666 -179 135.999s-181.667 48.5 -305 48.5c-110 0 -209.667 -15.667 -299 -47s-166.166 -76.5 -230.499 -135.5
s-113.666 -130.5 -147.999 -214.5s-51.5 -179 -51.5 -285c0 -112.667 24.5 -202.167 73.5 -268.5s115.667 -113.666 200 -141.999s179.833 -42.5 286.5 -42.5c74 0 149 4.66699 225 14s145.833 21.666 209.5 36.999s113.834 31.333 150.501 48zM894.998 507
c33.333 0 59.167 6.49805 77.5 19.498s30.5 28.833 36.5 47.5c1.33301 3.33301 4 13 8 29l15 58.5l18.5 72.5l18 71.5l13.5 54.5c4 17.333 6 29.333 6 36c0 12 -3 25.667 -9 41s-26.667 23 -62 23c-46.667 0 -86.167 -16.167 -118.5 -48.5s-56.833 -73.166 -73.5 -122.499
s-25 -99.666 -25 -150.999c0 -41.333 8.16699 -73.5 24.5 -96.5s39.833 -34.5 70.5 -34.5z" />
    <glyph glyph-name="A" unicode="A" horiz-adv-x="1405" 
d="M40 0l343 1475h641l341 -1475h-413l-249 1234h2l-252 -1234h-413zM340 310v303h728v-303h-728z" />
    <glyph glyph-name="B" unicode="B" horiz-adv-x="1328" 
d="M755 1475c110.667 0 199.999 -15.6689 267.999 -47.002s117.667 -74.166 149 -128.499s47 -115.833 47 -184.5c0 -70 -13.667 -130.5 -41 -181.5s-61.5 -90.833 -102.5 -119.5s-82.167 -45 -123.5 -49c41.333 -1.33301 85.833 -13 133.5 -35s88.334 -57.667 122.001 -107
s50.5 -115.666 50.5 -198.999c0 -76 -15.333 -146.167 -46 -210.5s-82.5 -116 -155.5 -155s-173.5 -58.5 -301.5 -58.5h-645v1475h645zM493.999 796.998l-132 106.002h288c60 0 102.833 13.833 128.5 41.5s38.5 61.167 38.5 100.5c0 27.333 -5.5 50.666 -16.5 69.999
s-28.833 34.166 -53.5 44.499s-57 15.5 -97 15.5h-338l182 182v-560zM675.999 301c60 0 103.502 14.498 130.502 43.498s40.5 63.833 40.5 104.5c0 20 -3.33301 39.333 -10 58s-16.834 35.334 -30.501 50.001s-31.334 26.334 -53.001 35.001s-47.5 13 -77.5 13h-314l132 106
v-592l-182 182h364z" />
    <glyph glyph-name="C" unicode="C" horiz-adv-x="1469" 
d="M1399 557c0 -67.333 -12.835 -135.169 -38.502 -203.502s-64.667 -131.166 -117 -188.499s-118.666 -103.5 -198.999 -138.5s-175.5 -52.5 -285.5 -52.5c-144.667 0 -268.5 32.5 -371.5 97.5s-181.667 154.833 -236 269.5s-81.5 247 -81.5 397s27.167 282.167 81.5 396.5
s133 203.833 236 268.5s226.833 97 371.5 97c120 0 222.5 -20.333 307.5 -61s153.333 -94 205 -160s87.5 -136.667 107.5 -212c13.333 -51.333 20 -101 20 -149h-405c0 21.333 -1.33301 40 -4 56c-6 43.333 -19 81 -39 113s-46.167 56.833 -78.5 74.5
s-70.166 26.5 -113.499 26.5c-52 0 -99 -15.333 -141 -46s-75.5 -79 -100.5 -145s-37.5 -152.333 -37.5 -259c0 -106 12.5 -192.333 37.5 -259s58.5 -115.667 100.5 -147s89 -47 141 -47c37.333 0 70.5 6.83301 99.5 20.5s53.5 32.834 73.5 57.501s35.333 53.5 46 86.5
s16 68.833 16 107.5h405z" />
    <glyph glyph-name="D" unicode="D" horiz-adv-x="1403" 
d="M110 0v1475h548c99.333 0 190.333 -18.333 273 -55s154 -88 214 -154s106.333 -143.667 139 -233s49 -186.666 49 -291.999s-16.333 -203 -49 -293s-79 -168.5 -139 -235.5s-131.333 -119.167 -214 -156.5s-173.667 -56 -273 -56h-548zM514 117.999l-182 182h272
c57.333 0 110.166 17.833 158.499 53.5s87.166 86.5 116.499 152.5s44 144.333 44 235c0 91.333 -14.667 169.333 -44 234s-68.166 114.167 -116.499 148.5s-101.166 51.5 -158.499 51.5h-272l182 182v-1239z" />
    <glyph glyph-name="E" unicode="E" horiz-adv-x="1177" 
d="M334 1175l182 182v-575l-90 108h530v-300h-530l90 107v-579l-182 182h733v-300h-957v1475h957v-300h-733z" />
    <glyph glyph-name="F" unicode="F" horiz-adv-x="1176" 
d="M330 1175l182 182v-586l-123 95h608v-301h-608l123 103v-668h-402v1475h976v-300h-756z" />
    <glyph glyph-name="G" unicode="G" horiz-adv-x="1482" 
d="M725 -26c-121.333 0 -231.667 28.5029 -331 85.5029s-178.166 141.667 -236.499 254s-87.5 251.833 -87.5 418.5s31.333 307 94 421s146.834 200.333 252.501 259s223.5 88 353.5 88c110 0 203.167 -17 279.5 -51s138.333 -77.5 186 -130.5s82.334 -108.5 104.001 -166.5
s32.5 -111 32.5 -159v-6v-6h-392v6v6c0 25.333 -4.83301 49.666 -14.5 72.999s-23.667 44.166 -42 62.499s-40.5 32.833 -66.5 43.5s-55 16 -87 16c-44 0 -88.333 -13 -133 -39s-82 -71.833 -112 -137.5s-45 -158.834 -45 -279.501c0 -90.667 8.5 -165.167 25.5 -223.5
s39.333 -103.666 67 -135.999s58.334 -55 92.001 -68s67.167 -19.5 100.5 -19.5c48 0 89.167 7.83301 123.5 23.5s61.666 35 81.999 58s33.166 45.5 38.499 67.5v56h-246v279h603v-769h-188l-41 163c-4.66699 -14.667 -15.834 -32.667 -33.501 -54
s-42.834 -42.333 -75.501 -63s-74 -37.834 -124 -51.501s-109.667 -20.5 -179 -20.5z" />
    <glyph glyph-name="H" unicode="H" horiz-adv-x="1479" 
d="M1369 1475v-1475h-404v682l182 -99h-815l182 93v-676h-404v1475h404v-686l-182 95h815l-182 -94v685h404z" />
    <glyph glyph-name="I" unicode="I" horiz-adv-x="608" 
d="M105 0v1475h398v-1475h-398z" />
    <glyph glyph-name="J" unicode="J" horiz-adv-x="1222" 
d="M579 -26c-133.333 0 -239.334 21.832 -318.001 65.499s-135.167 104.5 -169.5 182.5s-51.5 168 -51.5 270v37.5v37.5h401v-18.5v-21.5c0 -36 3 -72.667 9 -110s18.833 -68.666 38.5 -93.999s49.834 -38 90.501 -38c42 0 72 13 90 39s29.167 59.333 33.5 100
s6.5 83 6.5 127v924h403v-982c0 -68.667 -8 -134 -24 -196s-43.5 -117.333 -82.5 -166s-93.167 -87 -162.5 -115s-157.333 -42 -264 -42z" />
    <glyph glyph-name="K" unicode="K" horiz-adv-x="1420" 
d="M783 695l12 308l590 -1003h-438l-370 695l173 -24l-269 -367l32 251v-555h-403v1475h403v-736l-74 30l497 706h423z" />
    <glyph glyph-name="L" unicode="L" horiz-adv-x="1105" 
d="M110 0v1475h404v-1356l-182 202h708v-321h-930z" />
    <glyph glyph-name="M" unicode="M" horiz-adv-x="1972" 
d="M1173 1475h679v-1475h-383v1260l7 -4l-229 -1256h-514l-236 1259l7 4v-1263h-384v1475h679l206 -1321h-41z" />
    <glyph glyph-name="N" unicode="N" horiz-adv-x="1558" 
d="M503 0h-393v1475h616l407 -1354l-78 -16v1370h393v-1475h-621l-407 1349l83 16v-1365z" />
    <glyph glyph-name="O" unicode="O" horiz-adv-x="1564" 
d="M782 -26c-95.333 0 -185.835 16.333 -271.502 49s-161.5 81.334 -227.5 146.001s-118 144.667 -156 240s-57 205.333 -57 330c0 125.333 18.833 235.333 56.5 330s89.334 174 155.001 238s141.334 112.167 227.001 144.5s176.834 48.5 273.501 48.5
s188 -16.167 274 -48.5s161.833 -80.5 227.5 -144.5s117.167 -143.333 154.5 -238s56 -204.667 56 -330c0 -124.667 -19 -234.667 -57 -330s-90.167 -175.333 -156.5 -240s-142.333 -113.334 -228 -146.001s-175.834 -49 -270.501 -49zM781.998 286
c49.333 0 97.167 13.501 143.5 40.501s84.333 73.5 114 139.5s44.5 157 44.5 273c0 116.667 -15 207.5 -45 272.5s-68 110.667 -114 137s-93.667 39.5 -143 39.5c-48.667 0 -96.167 -13.167 -142.5 -39.5s-84.5 -72 -114.5 -137s-45 -155.833 -45 -272.5
s15 -207.834 45 -273.501s68.167 -112 114.5 -139s93.833 -40.5 142.5 -40.5z" />
    <glyph glyph-name="P" unicode="P" horiz-adv-x="1295" 
d="M514 0l-404 0.000976562v1475h565c112 0 209.667 -22.167 293 -66.5s148 -104.833 194 -181.5s69 -163.334 69 -260.001s-23 -184.5 -69 -263.5s-110.667 -142 -194 -189s-181 -70.5 -293 -70.5h-161v-444zM514 561.001l-182 182h302c33.333 0 64.5 8.16699 93.5 24.5
s52.5 41.166 70.5 74.499s27 75 27 125s-9 90.333 -27 121s-41.5 52.834 -70.5 66.501s-60.167 20.5 -93.5 20.5h-302l182 182v-796z" />
    <glyph glyph-name="Q" unicode="Q" horiz-adv-x="1564" 
d="M598 22l339.998 -0.00195312c0 -26.667 10.833 -48.5 32.5 -65.5s47.5 -30.167 77.5 -39.5s58.333 -16 85 -20s45 -6.66699 55 -8l-112 -267c-9.33301 0 -31.333 2.33301 -66 7s-75.167 14.334 -121.5 29.001s-91.666 36.5 -135.999 65.5s-81.166 67.833 -110.499 116.5
s-44 109.334 -44 182.001zM781.998 -26.002c-95.333 0 -185.835 16.333 -271.502 49s-161.5 81.334 -227.5 146.001s-118 144.667 -156 240s-57 205.333 -57 330c0 125.333 18.833 235.333 56.5 330s89.334 174 155.001 238s141.334 112.167 227.001 144.5
s176.834 48.5 273.501 48.5s188 -16.167 274 -48.5s161.833 -80.5 227.5 -144.5s117.167 -143.333 154.5 -238s56 -204.667 56 -330c0 -124.667 -19 -234.667 -57 -330s-90.167 -175.333 -156.5 -240s-142.333 -113.334 -228 -146.001s-175.834 -49 -270.501 -49z
M781.996 285.998c49.333 0 97.167 13.501 143.5 40.501s84.333 73.5 114 139.5s44.5 157 44.5 273c0 116.667 -15 207.5 -45 272.5s-68 110.667 -114 137s-93.667 39.5 -143 39.5c-48.667 0 -96.167 -13.167 -142.5 -39.5s-84.5 -72 -114.5 -137s-45 -155.833 -45 -272.5
s15 -207.834 45 -273.501s68.167 -112 114.5 -139s93.833 -40.5 142.5 -40.5z" />
    <glyph glyph-name="R" unicode="R" horiz-adv-x="1331" 
d="M110 0l0.00292969 1475h654c168 0 292.167 -37.167 372.5 -111.5s120.5 -177.833 120.5 -310.5c0 -74.667 -14.333 -138.334 -43 -191.001s-64.334 -93.334 -107.001 -122.001s-85 -44.667 -127 -48c43.333 -2.66699 83.666 -13 120.999 -31s67.5 -46.833 90.5 -86.5
s34.5 -93.167 34.5 -160.5v-122v-122c0 -35.333 2.83301 -68.833 8.5 -100.5s14.5 -54.834 26.5 -69.501h-404c-10.667 16.667 -18.834 40.334 -24.501 71.001s-8.5 63.667 -8.5 99v99v99c0 53.333 -11.333 95.5 -34 126.5s-63.667 46.5 -123 46.5h-268l105 123v-664h-394z
M504.003 700.002l-105 141.001h272c34 0 63.833 7 89.5 21s45.667 34.167 60 60.5s21.5 57.166 21.5 92.499c0 43.333 -15.5 81 -46.5 113s-73.167 48 -126.5 48h-280l115 120v-596z" />
    <glyph glyph-name="S" unicode="S" horiz-adv-x="1296" 
d="M645 -26c-109.333 0 -207.337 17.501 -294.004 52.501s-155.167 87.167 -205.5 156.5s-75.5 155.333 -75.5 258v26v26h403v-22v-22c0 -46.667 14.5 -85.667 43.5 -117s73.167 -47 132.5 -47c57.333 0 102.5 8.5 135.5 25.5s49.5 44.833 49.5 83.5
c0 28.667 -15.5 55.334 -46.5 80.001s-72.667 48 -125 70s-110.5 43 -174.5 63c-69.333 22 -135.166 51.667 -197.499 89s-113.166 85.833 -152.499 145.5s-59 133.834 -59 222.501c0 91.333 25.333 169.5 76 234.5s118.834 114.833 204.501 149.5s180.834 52 285.501 52
c108.667 0 205.834 -17 291.501 -51s153.5 -84 203.5 -150s75 -147.667 75 -245v-25v-25h-403v15.5v15.5c0 43.333 -12.167 80 -36.5 110s-66.166 45 -125.499 45c-58.667 0 -103.834 -10.667 -135.501 -32s-47.5 -52.333 -47.5 -93c0 -28.667 13.333 -53.834 40 -75.501
s63.5 -41.834 110.5 -60.501s100.167 -38.667 159.5 -60c89.333 -31.333 167.666 -65.833 234.999 -103.5s119.833 -84.834 157.5 -141.501s56.5 -129.334 56.5 -218.001c0 -92.667 -25 -171.167 -75 -235.5s-118.833 -113.166 -206.5 -146.499s-187.5 -50 -299.5 -50z" />
    <glyph glyph-name="T" unicode="T" horiz-adv-x="1214" 
d="M1154 1175h-528l182 182v-1357h-403v1357l182 -182h-527v300h1094v-300z" />
    <glyph glyph-name="U" unicode="U" horiz-adv-x="1388" 
d="M1278 525c0 -183.333 -52.5 -321 -157.5 -413s-247.5 -138 -427.5 -138s-322.167 46 -426.5 138s-156.5 229.667 -156.5 413v73.5v79.5v797h404v-860v-53v-47c0 -74.667 12.833 -131.667 38.5 -171s72.5 -59 140.5 -59s115.167 19.667 141.5 59s39.5 96.333 39.5 171v960
h404v-950z" />
    <glyph glyph-name="V" unicode="V" horiz-adv-x="1366" 
d="M380 0l-340 1475h447l204 -1244h-15l203 1244h447l-338 -1475h-608z" />
    <glyph glyph-name="W" unicode="W" horiz-adv-x="1998" 
d="M264 0l-204 1475h415l128 -1412l-57 3l207 1409h493l206 -1409l-57 -3l128 1412h415l-204 -1475h-617l-137 1213h40l-138 -1213h-618z" />
    <glyph glyph-name="X" unicode="X" horiz-adv-x="1418" 
d="M534 892l-4 -326l-482 909h453l271 -642h-127l268 642h454l-478 -909l-3 326l495 -892h-454l-289 625h140l-289 -625h-453z" />
    <glyph glyph-name="Y" unicode="Y" horiz-adv-x="1355" 
d="M1315 1475l-438 -970v-505h-402v505l-435 970h427l289 -783h-158l289 783h428z" />
    <glyph glyph-name="Z" unicode="Z" horiz-adv-x="1212" 
d="M528 301h598v-301h-1049v257l609 920l2 -2h-566v300h1013v-254l-607 -918v-2z" />
    <glyph glyph-name="bracketleft" unicode="[" horiz-adv-x="930" 
d="M801 1663v-289h-311v-1522h311v-289h-670v2100h670z" />
    <glyph glyph-name="backslash" unicode="\" horiz-adv-x="855" 
d="M20 1563h321l508 -1718h-321z" />
    <glyph glyph-name="bracketright" unicode="]" horiz-adv-x="930" 
d="M131 1663h670v-2100h-670v289h311v1522h-311v289z" />
    <glyph glyph-name="asciicircum" unicode="^" horiz-adv-x="1350" 
d="M170 837l355 696h263l357 -696h-328l-210 550h100l-209 -550h-328z" />
    <glyph glyph-name="underscore" unicode="_" horiz-adv-x="1312" 
d="M22 -376v265h1288v-265h-1288z" />
    <glyph glyph-name="grave" unicode="`" horiz-adv-x="759" 
d="M650 1184h-247l-281 291h291z" />
    <glyph glyph-name="a" unicode="a" horiz-adv-x="1281" 
d="M453 -24c-76 0 -143.998 12.166 -203.998 36.499s-107.333 59.666 -142 105.999s-52 102.833 -52 169.5c0 78.667 22.5 142 67.5 190s102.667 84.333 173 109s143.166 40.334 218.499 47.001c107.333 10 179.666 18.667 216.999 26s56 20.333 56 39v0.5v0.5
c0 24.667 -14.833 45.834 -44.5 63.501s-69.167 26.5 -118.5 26.5c-53.333 0 -93 -9.83301 -119 -29.5s-39 -48.167 -39 -85.5h-397c0 89.333 25 164.333 75 225s117.167 106.5 201.5 137.5s178.166 46.5 281.499 46.5c98 0 189.833 -14.667 275.5 -44
s155.167 -74.166 208.5 -134.499s80 -137.5 80 -231.5v-42v-42v-329c0 -29.333 0.666992 -57.666 2 -84.999s5.33301 -52.666 12 -75.999c7.33301 -24.667 17 -45.834 29 -63.501s21.667 -29.834 29 -36.501h-394c-6 6 -14.667 17 -26 33s-20.666 34.333 -27.999 55
c-10 30 -17.167 58.167 -21.5 84.5s-6.5 58.5 -6.5 96.5l88 -61c-18 -48.667 -48.5 -90.334 -91.5 -125.001s-93.333 -61.167 -151 -79.5s-117.5 -27.5 -179.5 -27.5zM573.002 261.999c34.667 0 68.832 7.66602 102.499 22.999s61.834 40.833 84.501 76.5
s34 84.167 34 145.5v38l103 -83c-44 -15.333 -93 -28.166 -147 -38.499s-105.667 -18.166 -155 -23.499c-46 -4.66699 -80.167 -12.167 -102.5 -22.5s-33.5 -26.833 -33.5 -49.5s10 -39.334 30 -50.001s48 -16 84 -16z" />
    <glyph glyph-name="b" unicode="b" horiz-adv-x="1365" 
d="M818 -25c-84.667 0 -161.501 23.667 -230.501 71s-123.833 111.166 -164.5 191.499s-61 169.5 -61 267.5v10v10l142 3v-6.5v-6.5c0 -44 9.83301 -81 29.5 -111s44.667 -52.5 75 -67.5s61.5 -22.5 93.5 -22.5c50.667 0 97 17.667 139 53s63 92.333 63 171
s-20.833 134.834 -62.5 168.501s-88.167 50.5 -139.5 50.5c-31.333 0 -62.166 -7.16699 -92.499 -21.5s-55.5 -35.833 -75.5 -64.5s-30 -65.334 -30 -110.001l-142 10c0 98.667 20.333 186.5 61 263.5s95.5 137.667 164.5 182s145.833 66.5 230.5 66.5
c86 0 167.167 -21 243.5 -63s138.5 -103.5 186.5 -184.5s72 -180.167 72 -297.5c0 -124 -23.333 -227.667 -70 -311s-108 -146.166 -184 -188.499s-158.667 -63.5 -248 -63.5zM99.999 0v1563h404v-1563h-404z" />
    <glyph glyph-name="c" unicode="c" horiz-adv-x="1272" 
d="M656 -26c-127.333 0 -236.666 24.333 -327.999 73s-161.333 115.334 -210 200.001s-73 181 -73 289c0 108.667 24.333 204 73 286s118.667 146.167 210 192.5s200.666 69.5 327.999 69.5c94 0 176.667 -13.333 248 -40s130.833 -61.834 178.5 -105.501
s83.667 -91.5 108 -143.5s36.5 -103.667 36.5 -155v-4.5v-4.5h-399c0 4 -0.166992 7.66699 -0.5 11s-1.16602 6.66602 -2.49902 9.99902c-5.33301 17.333 -13.666 35.333 -24.999 54s-28.5 34.5 -51.5 47.5s-55.167 19.5 -96.5 19.5
c-40.667 0 -75.834 -9.33301 -105.501 -28s-52.5 -45.667 -68.5 -81s-24 -78 -24 -128c0 -48.667 8 -92 24 -130s38.833 -67.667 68.5 -89s64.834 -32 105.501 -32c40 0 72.167 6 96.5 18s42.666 28.5 54.999 49.5s20.166 44.833 23.499 71.5h400
c0 -50.667 -12.167 -102.5 -36.5 -155.5s-60.333 -101.667 -108 -146s-107.167 -80.166 -178.5 -107.499s-154 -41 -248 -41z" />
    <glyph glyph-name="d" unicode="d" horiz-adv-x="1361" 
d="M547 -26c-88.667 0 -171.168 21.168 -247.501 63.501s-137.833 105.333 -184.5 189s-70 187.5 -70 311.5c0 117.333 24 216.666 72 297.999s110.333 143 187 185s157.667 63 243 63s162.333 -22.333 231 -67s123.334 -105.5 164.001 -182.5s61 -164.833 61 -263.5v-11.5
v-11.5h-142v6.5v6.5c0 44.667 -10 81.334 -30 110.001s-45.167 50.167 -75.5 64.5s-61.166 21.5 -92.499 21.5c-50.667 0 -97 -16.833 -139 -50.5s-63 -89.834 -63 -168.501s21 -135.667 63 -171s88.333 -53 139 -53c32 0 63.167 7.5 93.5 22.5s55.333 37.5 75 67.5
s29.5 67 29.5 111l142 -10c0 -98 -20.333 -187.167 -61 -267.5s-95.334 -144.333 -164.001 -192s-145.667 -71.5 -231 -71.5zM860.999 0.000976562v1563h404v-1563h-404z" />
    <glyph glyph-name="e" unicode="e" horiz-adv-x="1308" 
d="M262 421l-0.00195312 239.999h626l-30 -52v17.5v16.5c0 22.667 -6.5 46.167 -19.5 70.5s-34 44.833 -63 61.5s-67.833 25 -116.5 25c-47.333 0 -87 -10 -119 -30s-56 -49.5 -72 -88.5s-24 -86.5 -24 -142.5c0 -58.667 7.66699 -108.667 23 -150
s39.666 -72.833 72.999 -94.5s77 -32.5 131 -32.5c32 0 59.333 2.33301 82 7s40.834 10.667 54.501 18s24 15.333 31 24s11.167 17 12.5 25h398c-4.66699 -46.667 -21.5 -91.667 -50.5 -135s-68.833 -82.166 -119.5 -116.499s-111.667 -61.333 -183 -81
s-152 -29.5 -242 -29.5c-124.667 0 -232.667 23.5 -324 70.5s-161.666 112.333 -210.999 196s-74 179.834 -74 288.501c0 111.333 25.333 208.666 76 291.999s121.834 148 213.501 194s198.167 69 319.5 69c125.333 0 233.5 -23.5 324.5 -70.5s161.167 -113.667 210.5 -200
s74 -188.833 74 -307.5c0 -20 -0.333008 -37 -1 -51s-1.66699 -25.333 -3 -34h-997z" />
    <glyph glyph-name="f" unicode="f" horiz-adv-x="930" 
d="M227 0l0.000976562 761.996h-214v300h214v31c0 85.333 12.333 156.833 37 214.5s57.167 104.334 97.5 140.001s84.5 62.834 132.5 81.501s95.833 31.334 143.5 38.001s90.5 10 128.5 10c51.333 0 88.666 -2.83301 111.999 -8.5s39 -10.167 47 -13.5v-303
c-8 2.66699 -22.667 5.83398 -44 9.50098s-44.333 5.5 -69 5.5c-34 0 -62.833 -3.83301 -86.5 -11.5s-42.5 -19.167 -56.5 -34.5s-24.167 -34 -30.5 -56s-9.5 -47.333 -9.5 -76v-27h269v-300h-269v-762h-402z" />
    <glyph glyph-name="g" unicode="g" horiz-adv-x="1290" 
d="M869 166c70.667 -8 132.336 -21.6699 185.003 -41.0029s93.667 -48.166 123 -86.499s44 -90.166 44 -155.499c0 -76 -24.833 -139.667 -74.5 -191s-120.334 -90 -212.001 -116s-200.5 -39 -326.5 -39c-190.667 0 -340.5 27.167 -449.5 81.5s-163.5 126.5 -163.5 216.5
c0 22.667 2.66699 43.667 8 63s12.666 36.333 21.999 51l361 -52c-2 -2.66699 -4.33301 -7.16699 -7 -13.5s-4 -15.166 -4 -26.499c0 -23.333 24 -42 72 -56s104.667 -21 170 -21c44 0 83.333 3.16699 118 9.5s62 15.5 82 27.5s30 25.667 30 41c0 21.333 -12 36.5 -36 45.5
s-50 15.167 -78 18.5l-401 48c-78.667 9.33301 -144.334 31.166 -197.001 65.499s-79 84.5 -79 150.5c0 40.667 12 77.167 36 109.5s51.167 59 81.5 80s54.833 34.5 73.5 40.5l174 -93c-10 -1.33301 -20.833 -6.83301 -32.5 -16.5s-17.5 -21.167 -17.5 -34.5
c0 -14.667 9.16699 -27.667 27.5 -39s50.833 -19.666 97.5 -24.999zM946.002 1062h349.001l-141 -402c-26.667 -76.667 -61.334 -144.334 -104.001 -203.001s-98.334 -104.5 -167.001 -137.5s-156.667 -49.5 -264 -49.5c-112.667 0 -211 15.5 -295 46.5
s-149 76.333 -195 136s-69 131.834 -69 216.501c0 85.333 23.167 159 69.5 221s109.166 109.833 188.499 143.5s168.333 50.5 267 50.5c66.667 0 129.834 -10.167 189.501 -30.5s108.334 -48.5 146.001 -84.5s56.5 -78.333 56.5 -127l-52 -22zM617.003 547.997
c30.667 0 58.167 4.83203 82.5 14.499s43.666 23.834 57.999 42.501s21.5 41.334 21.5 68.001c0 27.333 -7.16699 50.166 -21.5 68.499s-33.666 32.166 -57.999 41.499s-51.833 14 -82.5 14c-30 0 -57.333 -4.66699 -82 -14s-44.334 -23.333 -59.001 -42s-22 -42 -22 -70
c0 -26.667 7.33301 -49.167 22 -67.5s34.334 -32.166 59.001 -41.499s52 -14 82 -14z" />
    <glyph glyph-name="h" unicode="h" horiz-adv-x="1332" 
d="M839 0v366.003v48.5v66v51.5c0 67.333 -10 120.666 -30 159.999s-63 59 -129 59c-42.667 0 -77 -8.66699 -103 -26s-44.833 -42.333 -56.5 -75s-17.5 -72 -17.5 -118l-78 80c0 97.333 18.333 181.166 55 251.499s88 124.666 154 162.999s143.333 57.5 232 57.5
c131.333 0 226.833 -38 286.5 -114s89.5 -182.333 89.5 -319v-126.5v-184.5v-340h-403zM100 0.00292969v1563h403v-1563h-403z" />
    <glyph glyph-name="i" unicode="i" horiz-adv-x="544" 
d="M73 0v1062h399v-1062h-399zM272 1187c-59.333 0 -111.166 15.3311 -155.499 45.998s-66.5 74.334 -66.5 131.001c0 57.333 22.167 101.166 66.5 131.499s96.166 45.5 155.499 45.5s111.166 -15.167 155.499 -45.5s66.5 -74.166 66.5 -131.499
s-22.167 -101.166 -66.5 -131.499s-96.166 -45.5 -155.499 -45.5z" />
    <glyph glyph-name="j" unicode="j" horiz-adv-x="559" 
d="M-40 -464c-20 0 -39.835 0.5 -59.502 1.5l-50.5 2.5v295c13.333 -2 29.833 -3.83301 49.5 -5.5s39.834 -2.5 60.501 -2.5c24 0 43.833 2.83301 59.5 8.5s28 13.167 37 22.5s15.5 19.333 19.5 30s6 21 6 31v1143h402v-1151c0 -44 -6.33301 -88 -19 -132
s-37 -84.333 -73 -121s-88.667 -66.167 -158 -88.5s-160.666 -33.5 -273.999 -33.5zM285.998 1187c-59.333 0 -111.166 15.333 -155.499 46s-66.5 74.334 -66.5 131.001c0 57.333 22.167 101.166 66.5 131.499s96.166 45.5 155.499 45.5s111.166 -15.167 155.499 -45.5
s66.5 -74.166 66.5 -131.499c0 -56.667 -22.167 -100.334 -66.5 -131.001s-96.166 -46 -155.499 -46z" />
    <glyph glyph-name="k" unicode="k" horiz-adv-x="1221" 
d="M100 0v1563h382v-853l-69 38l336 314h487l-537 -485l80 139l439 -716h-421l-283 507l108 3l-177 -165l37 169v-514h-382z" />
    <glyph glyph-name="l" unicode="l" horiz-adv-x="617" 
d="M512 1563v-1563h-397v1563h397z" />
    <glyph glyph-name="m" unicode="m" horiz-adv-x="1928" 
d="M770 0v373.003v98.5v70.5c0 27.333 -1.33301 53.333 -4 78s-8.16699 47 -16.5 67s-20.833 35.667 -37.5 47s-39 17 -67 17c-23.333 0 -43.833 -5.5 -61.5 -16.5s-32.5 -26.5 -44.5 -46.5s-21 -44.167 -27 -72.5s-9 -59.5 -9 -93.5l-77 90c0 97.333 16 181.166 48 251.499
s78.167 124.666 138.5 162.999s132.5 57.5 216.5 57.5c93.333 0 164.5 -20.333 213.5 -61s82.5 -93.834 100.5 -159.501s27 -136.5 27 -212.5v-125v-196v-330h-400zM100 0.00292969v1062h403v-1062h-403zM1435 0.00292969l0.00292969 371.004v99.5v71.5
c0 31.333 -1.66699 59.666 -5 84.999s-9.33301 47.333 -18 66s-21.167 33 -37.5 43s-37.5 15 -63.5 15c-23.333 0 -43.833 -5.5 -61.5 -16.5s-32.334 -26.5 -44.001 -46.5s-20.5 -44.167 -26.5 -72.5s-9 -59.5 -9 -93.5l-77 90c0 97.333 16 181.166 48 251.499
s78 124.666 138 162.999s132 57.5 216 57.5c93.333 0 164.666 -20.333 213.999 -61s83.166 -93.834 101.499 -159.501s27.5 -136.5 27.5 -212.5v-124v-194v-333h-403z" />
    <glyph glyph-name="n" unicode="n" horiz-adv-x="1332" 
d="M839 0l-0.000976562 413.003v64v55c0 36.667 -3.16699 71.667 -9.5 105s-20.666 60.666 -42.999 81.999s-57.833 32 -106.5 32c-42 0 -76 -8.66699 -102 -26s-45 -42.333 -57 -75s-18 -72 -18 -118l-78 80c0 97.333 19.667 181.166 59 251.499s93 124.666 161 162.999
s144.667 57.5 230 57.5c90.667 0 162.667 -18.5 216 -55.5s91.833 -88.167 115.5 -153.5s35.5 -140 35.5 -224v-126v-150v-375h-403zM99.999 0.00292969v1062h403v-1062h-403z" />
    <glyph glyph-name="o" unicode="o" horiz-adv-x="1302" 
d="M651 -25c-120 0 -225.5 23.333 -316.5 70s-162 111.667 -213 195s-76.5 180 -76.5 290s25.5 206.667 76.5 290s122 148.166 213 194.499s196.5 69.5 316.5 69.5s225.5 -23.167 316.5 -69.5s162 -111.166 213 -194.499s76.5 -180 76.5 -290s-25.5 -206.667 -76.5 -290
s-122 -148.333 -213 -195s-196.5 -70 -316.5 -70zM651 280c41.333 0 76.666 10.333 105.999 31s51.833 49.667 67.5 87s23.5 81.333 23.5 132s-7.83301 94.5 -23.5 131.5s-38.167 65.667 -67.5 86s-64.666 30.5 -105.999 30.5c-40.667 0 -75.834 -10.167 -105.501 -30.5
s-52.334 -49 -68.001 -86s-23.5 -80.833 -23.5 -131.5s7.83301 -94.667 23.5 -132s38.334 -66.333 68.001 -87s64.834 -31 105.501 -31z" />
    <glyph glyph-name="p" unicode="p" horiz-adv-x="1365" 
d="M100 -437v1499h404v-1499h-404zM818 -26c-84.667 0 -161.501 23.832 -230.501 71.499s-123.833 111.667 -164.5 192s-61 169.5 -61 267.5v10v10l142 3v-6.5v-6.5c0 -44 9.83301 -81 29.5 -111s44.667 -52.5 75 -67.5s61.5 -22.5 93.5 -22.5c50.667 0 97 17.667 139 53
s63 92.333 63 171s-20.833 134.834 -62.5 168.501s-88.167 50.5 -139.5 50.5c-31.333 0 -62.166 -7.16699 -92.499 -21.5s-55.5 -35.833 -75.5 -64.5s-30 -65.334 -30 -110.001l-142 10c0 98.667 20.333 186.5 61 263.5s95.5 137.833 164.5 182.5s145.833 67 230.5 67
c86 0 167.167 -21 243.5 -63s138.5 -103.667 186.5 -185s72 -180.666 72 -297.999c0 -124 -23.333 -227.833 -70 -311.5s-108 -146.667 -184 -189s-158.667 -63.5 -248 -63.5z" />
    <glyph glyph-name="q" unicode="q" horiz-adv-x="1361" 
d="M547 -26c-88.667 0 -171.168 21.168 -247.501 63.501s-137.833 105.333 -184.5 189s-70 187.5 -70 311.5c0 117.333 24 216.666 72 297.999s110.333 143 187 185s157.667 63 243 63s162.333 -22.333 231 -67s123.334 -105.5 164.001 -182.5s61 -164.833 61 -263.5v-11.5
v-11.5h-142v6.5v6.5c0 44.667 -10 81.334 -30 110.001s-45.167 50.167 -75.5 64.5s-61.166 21.5 -92.499 21.5c-50.667 0 -97 -16.833 -139 -50.5s-63 -89.834 -63 -168.501s21 -135.667 63 -171s88.333 -53 139 -53c32 0 63.167 7.5 93.5 22.5s55.333 37.5 75 67.5
s29.5 67 29.5 111l142 -10c0 -98 -20.333 -187.167 -61 -267.5s-95.334 -144.333 -164.001 -192s-145.667 -71.5 -231 -71.5zM860.999 -436.999v1499h404v-1499h-404z" />
    <glyph glyph-name="r" unicode="r" horiz-adv-x="996" 
d="M100 0l0.00390625 1062h404v-393l-69 54c10 56.667 25.667 107.334 47 152.001s48.166 82.5 80.499 113.5s69.666 54.667 111.999 71s89.5 24.5 141.5 24.5c43.333 0 76.166 -2.83301 98.499 -8.5s36.166 -10.167 41.499 -13.5l-55 -352c-6 3.33301 -19.333 8.5 -40 15.5
s-45.667 10.5 -75 10.5c-52 0 -96 -8.16699 -132 -24.5s-65 -38.333 -87 -66s-38 -58.667 -48 -93s-15 -69.166 -15 -104.499v-448h-404z" />
    <glyph glyph-name="s" unicode="s" horiz-adv-x="1134" 
d="M565 -26c-62.667 0 -124.673 7.49902 -186.006 22.499s-117.166 37.667 -167.499 68s-90.666 68.5 -120.999 114.5s-45.5 100 -45.5 162v5v5h399v-5v-5c0 -28 12 -47.667 36 -59s56.333 -17 97 -17c14.667 0 31.667 1.83301 51 5.5s36.166 10 50.499 19
s21.5 20.833 21.5 35.5c0 22 -15.167 37.5 -45.5 46.5s-83.166 19.5 -158.499 31.5c-45.333 7.33301 -93.333 18.166 -144 32.499s-98.334 34 -143.001 59s-81 56.833 -109 95.5s-42 86.334 -42 143.001c0 77.333 23.5 142 70.5 194s109.333 91.167 187 117.5
s162.5 39.5 254.5 39.5c87.333 0 169.333 -14.833 246 -44.5s139 -71.834 187 -126.501s72 -119.334 72 -194.001v-5v-5h-395v5v5c0 18.667 -5.83301 33.5 -17.5 44.5s-26.167 19.167 -43.5 24.5s-34.666 8 -51.999 8c-13.333 0 -29.166 -1.5 -47.499 -4.5
s-34.166 -8.5 -47.499 -16.5s-20 -19.667 -20 -35c0 -13.333 8.5 -24.666 25.5 -33.999s40.333 -17.166 70 -23.499s62.834 -12.166 99.501 -17.499c38 -5.33301 82 -14 132 -26s98.667 -29.833 146 -53.5s86.5 -55.667 117.5 -96s46.5 -91.833 46.5 -154.5
c0 -67.333 -15.5 -124 -46.5 -170s-72.333 -83 -124 -111s-108.167 -48.333 -169.5 -61s-122.666 -19 -183.999 -19z" />
    <glyph glyph-name="t" unicode="t" horiz-adv-x="1014" 
d="M690 -26c-46 0 -94.5 3.5 -145.5 10.5s-98.833 21.5 -143.5 43.5s-81 55.167 -109 99.5s-42 103.833 -42 178.5v46v45v365h-237v300h5c52 0 93.5 2.33301 124.5 7s54.167 16 69.5 34s25.5 46.333 30.5 85s7.5 92 7.5 160v62h404v-348h293v-300h-293v-293v-29.5v-29.5
c0 -38.667 4.66699 -71.334 14 -98.001s34.333 -40 75 -40c24 0 46.667 2.33301 68 7s37.333 9.33398 48 14.001v-291c-15.333 -6.66699 -37.5 -13 -66.5 -19s-63.167 -9 -102.5 -9z" />
    <glyph glyph-name="u" unicode="u" horiz-adv-x="1312" 
d="M467 -21c-74.667 0 -135.831 11.665 -183.498 34.998s-84.834 55.333 -111.501 96s-45.334 86.834 -56.001 138.501s-16 105.834 -16 162.501v74.5v81.5v495h403v-427v-62v-53c0 -38 3.16699 -72.833 9.5 -104.5s19.5 -57 39.5 -76s50 -28.5 90 -28.5s73 10.833 99 32.5
s45.5 50 58.5 85s19.5 72.167 19.5 111.5l78 -90c0 -72.667 -9.83301 -138 -29.5 -196s-48 -107.5 -85 -148.5s-82 -72.333 -135 -94s-113.167 -32.5 -180.5 -32.5zM819.003 -0.00195312v1062h403v-1062h-403z" />
    <glyph glyph-name="v" unicode="v" horiz-adv-x="1163" 
d="M1158 1062l-299 -1062h-548l-306 1062h416l196 -966h-63l187 966h417z" />
    <glyph glyph-name="w" unicode="w" horiz-adv-x="1709" 
d="M957 0l-172 1062h276l183 -966l-63 -2l107 968h416l-201 -1062h-546zM205 0l-200 1062h416l106 -968l-62 2l182 966h276l-170 -1062h-548z" />
    <glyph glyph-name="x" unicode="x" horiz-adv-x="1244" 
d="M476 599l-3 -178l-461 641h439l298 -468h-242l302 468h430l-438 -594l-33 202l473 -670h-440l-312 476h276l-343 -476h-430z" />
    <glyph glyph-name="y" unicode="y" horiz-adv-x="1178" 
d="M225 -467c-38 0 -71.5 1.16602 -100.5 3.49902s-47.167 4.83301 -54.5 7.5v292c8.66699 -4 24.334 -7 47.001 -9s47.667 -3 75 -3c26.667 0 52 5 76 15s45.167 24.5 63.5 43.5s32.166 42.5 41.499 70.5l9 27l-366 1082h420l188 -842h-44l179 842h414l-348 -1089
c-31.333 -97.333 -70 -178.666 -116 -243.999s-107.167 -114.333 -183.5 -147s-176.5 -49 -300.5 -49z" />
    <glyph glyph-name="z" unicode="z" horiz-adv-x="1069" 
d="M476 301h541v-301h-967v283l522 495l11 -16h-516v300h936v-283l-516 -493z" />
    <glyph glyph-name="braceleft" unicode="{" horiz-adv-x="882" 
d="M792 1408c-52 0 -87.667 -12.8311 -107 -38.498s-29 -72.5 -29 -140.5v-357c0 -66.667 -15.833 -118 -47.5 -154s-69.667 -60.833 -114 -74.5s-85.5 -20.5 -123.5 -20.5v20c38 0 79.167 -6.83301 123.5 -20.5s82.333 -38.5 114 -74.5s47.5 -87.667 47.5 -155v-106v-123
v-89.5v-76.5c0 -68 9.66699 -114 29 -138s55 -36 107 -36v-291c-102.667 0 -192.5 10 -269.5 30s-137 54.833 -180 104.5s-64.5 118.5 -64.5 206.5v93v108v111v95c0 48.667 -5.66699 88.667 -17 120s-30.5 55.666 -57.5 72.999s-63.5 29 -109.5 35v247
c46 6 82.5 17.667 109.5 35s46.167 41.666 57.5 72.999s17 71.333 17 120v374c0 88.667 21.5 157.667 64.5 207s103 84 180 104s166.833 30 269.5 30v-291z" />
    <glyph glyph-name="bar" unicode="|" horiz-adv-x="664" 
d="M164 -280v1834h313v-1834h-313z" />
    <glyph glyph-name="braceright" unicode="}" horiz-adv-x="882" 
d="M94 1408v290.998c102.667 0 192.5 -10 269.5 -30s137 -54.667 180 -104s64.5 -118.333 64.5 -207v-94.5v-94.5v-92v-93c0 -48.667 5.83301 -88.667 17.5 -120s30.834 -55.666 57.501 -72.999s63 -29 109 -35v-247c-46 -6 -82.333 -17.667 -109 -35
s-45.834 -41.666 -57.501 -72.999s-17.5 -71.333 -17.5 -120v-407c0 -88 -21.5 -156.833 -64.5 -206.5s-103 -84.5 -180 -104.5s-166.833 -30 -269.5 -30v291c52 0 87.667 12 107 36s29 70 29 138v395c0 67.333 15.833 119 47.5 155s69.667 60.833 114 74.5
s85.5 20.5 123.5 20.5v-20c-38 0 -79.167 6.83301 -123.5 20.5s-82.333 38.5 -114 74.5s-47.5 87.333 -47.5 154v101.5v101.5v77v77c0 68 -9.66699 114.833 -29 140.5s-55 38.5 -107 38.5z" />
    <glyph glyph-name="asciitilde" unicode="~" horiz-adv-x="1350" 
d="M1018 730c0 -43.333 -8.17285 -85.667 -24.5059 -127s-41 -75.5 -74 -102.5s-74.833 -40.5 -125.5 -40.5c-39.333 0 -71.666 7.5 -96.999 22.5s-44.666 29.167 -57.999 42.5c-14.667 15.333 -28.167 27.833 -40.5 37.5s-27.166 14.5 -44.499 14.5
c-20 0 -35.5 -8.5 -46.5 -25.5s-16.5 -41.833 -16.5 -74.5h-196c0 43.333 8.33301 85.833 25 127.5s42 76.167 76 103.5s77.333 41 130 41c34.667 0 64.834 -7.66699 90.501 -23s45.834 -30 60.501 -44s29.334 -25.833 44.001 -35.5s29.667 -14.5 45 -14.5
c16.667 0 30.167 8.16699 40.5 24.5s15.5 40.833 15.5 73.5h196z" />
    <glyph glyph-name="uni00A0" unicode="&#xa0;" horiz-adv-x="500" 
 />
    <glyph glyph-name="exclamdown" unicode="&#xa1;" horiz-adv-x="622" 
d="M132 -419l82 1016h237l83 -1016h-402zM330 1086c54.667 0 101.167 -19.167 139.5 -57.5s57.5 -84.833 57.5 -139.5c0 -54 -19.167 -100.167 -57.5 -138.5s-84.833 -57.5 -139.5 -57.5c-54 0 -100.167 19.167 -138.5 57.5s-57.5 84.5 -57.5 138.5
c0 54.667 19.167 101.167 57.5 139.5s84.5 57.5 138.5 57.5z" />
    <glyph glyph-name="cent" unicode="&#xa2;" horiz-adv-x="1272" 
d="M569 1475h175v-1475h-175v1475zM656 186c-127.333 0 -236.666 24.333 -327.999 73s-161.333 115.334 -210 200.001s-73 181 -73 289c0 108.667 24.333 204 73 286s118.667 146.167 210 192.5s200.666 69.5 327.999 69.5c94 0 176.667 -13.333 248 -40
s130.833 -61.834 178.5 -105.501s83.667 -91.5 108 -143.5s36.5 -103.667 36.5 -155v-4.5v-4.5h-399c0 4 -0.166992 7.66699 -0.5 11s-1.16602 6.66602 -2.49902 9.99902c-5.33301 17.333 -13.666 35.333 -24.999 54s-28.5 34.5 -51.5 47.5s-55.167 19.5 -96.5 19.5
c-40.667 0 -75.834 -9.33301 -105.501 -28s-52.5 -45.667 -68.5 -81s-24 -78 -24 -128c0 -48.667 8 -92 24 -130s38.833 -67.667 68.5 -89s64.834 -32 105.501 -32c40 0 72.167 6 96.5 18s42.666 28.5 54.999 49.5s20.166 44.833 23.499 71.5h400
c0 -50.667 -12.167 -102.5 -36.5 -155.5s-60.333 -101.667 -108 -146s-107.167 -80.166 -178.5 -107.499s-154 -41 -248 -41z" />
    <glyph glyph-name="sterling" unicode="&#xa3;" horiz-adv-x="1277" 
d="M64 544v245h750v-245h-750zM906 1072c-8 15.333 -20.833 33.166 -38.5 53.499s-40.834 38.166 -69.501 53.499s-64.334 23 -107.001 23c-41.333 0 -77.666 -6.5 -108.999 -19.5s-55.5 -31.333 -72.5 -55s-25.5 -52.167 -25.5 -85.5c0 -38.667 6 -73 18 -103
s25.833 -62 41.5 -96s29.5 -75.833 41.5 -125.5s18 -114.167 18 -193.5c0 -62 -10.833 -119.833 -32.5 -173.5s-49.167 -102.167 -82.5 -145.5s-68 -80.833 -104 -112.5s-69 -56.834 -99 -75.501s-52 -30 -66 -34l-156 230c10.667 5.33301 27.167 16.333 49.5 33
s45.5 38.334 69.5 65.001s44.5 57.334 61.5 92.001s25.5 73 25.5 115c0 42.667 -7.16699 84.5 -21.5 125.5s-31 82.833 -50 125.5s-35.833 87.334 -50.5 134.001s-22 97.334 -22 152.001c0 81.333 22.333 154.833 67 220.5s106.834 118 186.501 157s172.167 58.5 277.5 58.5
c79.333 0 147.5 -9 204.5 -27s104.667 -40.667 143 -68s69 -55.333 92 -84s40.167 -53.334 51.5 -74.001zM1176 33c-12.667 -6.66699 -43.334 -18.166 -92.001 -34.499s-107.667 -24.5 -177 -24.5c-52.667 0 -100.334 6.16699 -143.001 18.5l-125.5 36.5
c-41 12 -85.833 18 -134.5 18c-44 0 -86 -4.5 -126 -13.5s-74.167 -18.5 -102.5 -28.5s-47.166 -17.333 -56.499 -22l10 34c10 3.33301 23.167 16.666 39.5 39.999l59.5 83c23.333 32 50 63.667 80 95s63.5 57.5 100.5 78.5s77.833 31.5 122.5 31.5
c48 0 85 -5.33301 111 -16s49.833 -21.167 71.5 -31.5s49.834 -15.5 84.501 -15.5c38 0 69.5 5.66699 94.5 17s40.833 19.333 47.5 24z" />
    <glyph glyph-name="currency" unicode="&#xa4;" horiz-adv-x="1383" 
d="M1210 1313l175 -175l-260 -260l-175 174zM1210 76l-260 261l175 174l260 -260zM217 1313l260 -261l-175 -174l-260 260zM217 76l-175 175l260 260l175 -174zM703 146c-120 0 -225.5 23.333 -316.5 70s-162 111.667 -213 195s-76.5 180 -76.5 290s25.5 206.667 76.5 290
s122 148.166 213 194.499s196.5 69.5 316.5 69.5s225.5 -23.167 316.5 -69.5s162 -111.166 213 -194.499s76.5 -180 76.5 -290s-25.5 -206.667 -76.5 -290s-122 -148.333 -213 -195s-196.5 -70 -316.5 -70zM703 451c41.333 0 76.666 10.333 105.999 31
s51.833 49.667 67.5 87s23.5 81.333 23.5 132s-7.83301 94.5 -23.5 131.5s-38.167 65.667 -67.5 86s-64.666 30.5 -105.999 30.5c-40.667 0 -75.834 -10.167 -105.501 -30.5s-52.334 -49 -68.001 -86s-23.5 -80.833 -23.5 -131.5s7.83301 -94.667 23.5 -132
s38.334 -66.333 68.001 -87s64.834 -31 105.501 -31z" />
    <glyph glyph-name="yen" unicode="&#xa5;" horiz-adv-x="1355" 
d="M191 497v245h1012v-245h-1012zM192 155v245h1012v-245h-1012zM1315 1475l-438 -970v-505h-402v505l-435 970h427l289 -783h-158l289 783h428z" />
    <glyph glyph-name="brokenbar" unicode="&#xa6;" horiz-adv-x="664" 
d="M164 -258v765h313v-765h-313zM164 791v763h313v-763h-313z" />
    <glyph glyph-name="section" unicode="&#xa7;" horiz-adv-x="1284" 
d="M891 201l-240.998 84.999c21.333 10 48.5 24.833 81.5 44.5s62.333 44.667 88 75s38.5 66.5 38.5 108.5c0 29.333 -10.333 57.333 -31 84s-50.334 52.834 -89.001 78.501s-84.667 50.834 -138 75.501c-70.667 33.333 -139 69.666 -205 108.999
s-120.167 84.166 -162.5 134.499s-63.5 107.833 -63.5 172.5c0 63.333 18.167 118.833 54.5 166.5s88.666 84.834 156.999 111.501s150.833 40 247.5 40s178.167 -13.5 244.5 -40.5s116.666 -66.333 150.999 -118s51.5 -114.5 51.5 -188.5v-13v-13h-338v13v13
c0 27.333 -2.5 50.166 -7.5 68.499s-12.333 33.333 -22 45s-21.834 20 -36.501 25s-32 7.5 -52 7.5c-36 0 -64 -7.66699 -84 -23s-30 -39.666 -30 -72.999c0 -32 14.167 -61.667 42.5 -89s63.833 -52.5 106.5 -75.5s86 -44.167 130 -63.5c50 -22 96.667 -44.833 140 -68.5
s81.333 -50.834 114 -81.501s58.334 -67.167 77.001 -109.5s28 -92.5 28 -150.5c0 -42.667 -9 -83.167 -27 -121.5s-40.667 -73 -68 -104s-55.166 -57.167 -83.499 -78.5s-52.833 -36.666 -73.5 -45.999zM624.002 -303.001c-96.667 0 -178.169 13.502 -244.502 40.502
s-116.666 66.5 -150.999 118.5s-51.5 114.667 -51.5 188v13v13h338v-13v-13c0 -26.667 2.5 -49.334 7.5 -68.001s12.333 -33.834 22 -45.501s21.834 -20 36.501 -25s32 -7.5 52 -7.5c36 0 64 7.66699 84 23s30 39.666 30 72.999c0 32 -14 61.667 -42 89
s-63.5 52.5 -106.5 75.5s-86.5 44.167 -130.5 63.5c-50 22 -96.667 44.833 -140 68.5s-81.333 50.834 -114 81.501s-58.334 67.167 -77.001 109.5s-28 92.5 -28 150.5c0 42.667 9 83.167 27 121.5s40.667 73 68 104s55.166 57.333 83.499 79s52.833 36.834 73.5 45.501
l241 -85c-21.333 -9.33301 -48.5 -24 -81.5 -44s-62.333 -45.167 -88 -75.5s-38.5 -66.5 -38.5 -108.5c0 -29.333 10.333 -57.333 31 -84s50.334 -52.667 89.001 -78s84.667 -50.666 138 -75.999c70.667 -32.667 139 -68.834 205 -108.501s120.167 -84.5 162.5 -134.5
s63.5 -107.667 63.5 -173c0 -63.333 -18.167 -118.833 -54.5 -166.5s-88.666 -84.834 -156.999 -111.501s-150.833 -40 -247.5 -40z" />
    <glyph glyph-name="dieresis" unicode="&#xa8;" horiz-adv-x="949" 
d="M202 1178c-54 0 -101.167 13.833 -141.5 41.5s-60.5 67.5 -60.5 119.5c0 52.667 20.167 92.667 60.5 120s87.5 41 141.5 41c53.333 0 100.333 -13.667 141 -41s61 -67.333 61 -120s-20.333 -92.667 -61 -120s-87.667 -41 -141 -41zM747 1178
c-54 0 -101.167 13.833 -141.5 41.5s-60.5 67.5 -60.5 119.5c0 52.667 20.167 92.667 60.5 120s87.5 41 141.5 41c53.333 0 100.333 -13.667 141 -41s61 -67.333 61 -120s-20.333 -92.667 -61 -120s-87.667 -41 -141 -41z" />
    <glyph glyph-name="copyright" unicode="&#xa9;" horiz-adv-x="1655" 
d="M804 28c-136.667 0 -259.5 29 -368.5 87s-195 140.5 -258 247.5s-94.5 233.167 -94.5 378.5s31.5 271 94.5 377s149 188 258 246s231.833 87 368.5 87c136 0 258.167 -29 366.5 -87s194 -140 257 -246s94.5 -231.667 94.5 -377s-31.5 -271.5 -94.5 -378.5
s-148.667 -189.5 -257 -247.5s-230.5 -87 -366.5 -87zM804 160c109.333 0 208.333 23.667 297 71s159 114.5 211 201.5s78 189.833 78 308.5c0 118 -26 220.333 -78 307s-122.333 153.667 -211 201s-187.667 71 -297 71c-110 0 -209.5 -23.667 -298.5 -71
s-159.667 -114.333 -212 -201s-78.5 -189 -78.5 -307c0 -118.667 26.167 -221.5 78.5 -308.5s123 -154.167 212 -201.5s188.5 -71 298.5 -71zM806 262c-80 0 -155.835 17.499 -227.502 52.499s-130 87.667 -175 158s-67.5 158.833 -67.5 265.5c0 97.333 19.667 182 59 254
s94.333 128 165 168s152.667 60 246 60c72.667 0 136.834 -11.167 192.501 -33.5s102.667 -51.666 141 -87.999s67.333 -76.166 87 -119.499s29.5 -86 29.5 -128v-13.5v-13.5h-289v8v8c0 18.667 -3.16699 37.167 -9.5 55.5s-16.166 35 -29.499 50s-30 27 -50 36
s-44 13.5 -72 13.5c-60.667 0 -105.667 -21.5 -135 -64.5s-44 -106.5 -44 -190.5c0 -56 6.66699 -102.833 20 -140.5s33.333 -65.834 60 -84.501s59.667 -28 99 -28c37.333 0 67.833 8 91.5 24s41.167 37.167 52.5 63.5s17 54.166 17 83.499h289
c0 -82.667 -19.833 -153.667 -59.5 -213s-93.5 -104.666 -161.5 -135.999s-144.333 -47 -229 -47z" />
    <glyph glyph-name="ordfeminine" unicode="&#xaa;" horiz-adv-x="728" 
d="M628 1021l-159.001 0.000976562c-5.33301 9.33301 -10.166 23 -14.499 41s-6.5 35.667 -6.5 53v180v16v15c0 13.333 -6.66699 24.333 -20 33s-33.666 13 -60.999 13c-30.667 0 -54.834 -4.83301 -72.501 -14.5s-26.5 -24.167 -26.5 -43.5h-153
c0 55.333 24.5 97.666 73.5 126.999s108.833 44 179.5 44c65.333 0 121.833 -13 169.5 -39s71.5 -69.667 71.5 -131v-8v-9v-153c0 -33.333 1.83301 -60 5.5 -80s8.16699 -34.667 13.5 -44zM277.999 1015c-54 0 -97.165 11.502 -129.498 34.502s-48.5 55.833 -48.5 98.5
c0 34 11 60.167 33 78.5s49.833 31.666 83.5 39.999s67.834 14.166 102.501 17.499c47.333 4.66699 80.666 9.66699 99.999 15s29 14.333 29 27l35 -75c-2.66699 -10.667 -16 -20.5 -40 -29.5s-57 -16.167 -99 -21.5c-26.667 -3.33301 -46.834 -7.5 -60.501 -12.5
s-20.5 -13.167 -20.5 -24.5c0 -12 6.33301 -20.667 19 -26s30 -8 52 -8c27.333 0 53.666 8.33301 78.999 25s38 44.667 38 84l43 -56c0 -34 -10.167 -63.5 -30.5 -88.5s-47 -44.333 -80 -58s-68.167 -20.5 -105.5 -20.5z" />
    <glyph glyph-name="guillemotleft" unicode="&#xab;" horiz-adv-x="1002" 
d="M574 885l-327 -320l327 -314h-231l-323 314l323 320h231zM982 885l-326 -320l324 -314h-230l-322 314l324 320h230z" />
    <glyph glyph-name="logicalnot" unicode="&#xac;" horiz-adv-x="1350" 
d="M824 271v435l182 -182h-727v245h790v-498h-245z" />
    <glyph glyph-name="uni00AD" unicode="&#xad;" horiz-adv-x="686" 
d="M66 444v245h530v-245h-530z" />
    <glyph glyph-name="registered" unicode="&#xae;" horiz-adv-x="1179" 
d="M580 499c-95.333 0 -182.333 22 -261 66s-141.334 103 -188.001 177s-70 156 -70 246s23.333 172 70 246s109.334 133 188.001 177s165.667 66 261 66c96 0 183.167 -22 261.5 -66s140.833 -103 187.5 -177s70 -156 70 -246s-23.333 -172 -70 -246
s-109.167 -133 -187.5 -177s-165.5 -66 -261.5 -66zM580 611c81.333 0 151.666 16.333 210.999 49s105 77.334 137 134.001s48 121.334 48 194.001s-16 137.334 -48 194.001s-77.667 101.334 -137 134.001s-129.666 49 -210.999 49s-151.666 -16.333 -210.999 -49
s-105 -77.334 -137 -134.001s-48 -121.334 -48 -194.001s16 -137.334 48 -194.001s77.667 -101.334 137 -134.001s129.666 -49 210.999 -49zM384 713v552.998h211c60.667 0 107 -13.5 139 -40.5s48 -64.5 48 -112.5c0 -40.667 -8 -70.667 -24 -90s-34.667 -30.333 -56 -33
c15.333 -2 28.666 -9.33301 39.999 -22s17 -29.667 17 -51v-69.5v-69.5c0 -17.333 1.66699 -31.666 5 -42.999s6.33301 -18.666 9 -21.999h-142c-1.33301 3.33301 -3.16602 11 -5.49902 23s-3.5 26 -3.5 42v46v46c0 17.333 -2.5 30 -7.5 38s-12.5 13.167 -22.5 15.5
s-22.667 3.5 -38 3.5h-29v-214h-141zM525 1045l53.002 -0.000976562c25.333 0 43.166 6.83301 53.499 20.5s15.5 27.834 15.5 42.501c0 12 -4.33301 23 -13 33s-26.334 15 -53.001 15h-56v-111z" />
    <glyph glyph-name="macron" unicode="&#xaf;" horiz-adv-x="900" 
d="M101 1266v163h693v-163h-693z" />
    <glyph glyph-name="degree" unicode="&#xb0;" horiz-adv-x="648" 
d="M326 1240c23.333 0 43.168 8.16699 59.501 24.5s24.5 36.166 24.5 59.499s-8.16699 43.166 -24.5 59.499s-36.166 24.5 -59.499 24.5c-22.667 0 -42.334 -8.16699 -59.001 -24.5s-25 -36.166 -25 -59.499s8.16699 -43.166 24.5 -59.499s36.166 -24.5 59.499 -24.5z
M326.002 1071c-46 0 -88.167 11.5 -126.5 34.5s-69 53.667 -92 92s-34.5 80.5 -34.5 126.5c0 46.667 11.5 89 34.5 127s53.667 68.5 92 91.5s80.5 34.5 126.5 34.5c46.667 0 89 -11.5 127 -34.5s68.5 -53.5 91.5 -91.5s34.5 -80 34.5 -126
c0 -46.667 -11.5 -89.167 -34.5 -127.5s-53.5 -69 -91.5 -92s-80.333 -34.5 -127 -34.5z" />
    <glyph glyph-name="plusminus" unicode="&#xb1;" horiz-adv-x="1350" 
d="M274 96v247h794v-247h-794zM1075 609h-279v-218h-249v218h-280v247h280v219h249v-219h279v-247z" />
    <glyph glyph-name="uni00B2" unicode="&#xb2;" horiz-adv-x="1060" 
d="M63 590l-0.00195312 263.001l72 26.5l136 52c52 20.333 102 40.833 150 61.5c38.667 16.667 75.334 34.5 110.001 53.5s63 39 85 60s33 42.167 33 63.5c0 22.667 -10.167 41.667 -30.5 57s-53.166 23 -98.499 23c-56.667 0 -95 -10.333 -115 -31s-30 -49 -30 -85h-323
c0 115.333 41.833 204 125.5 266s199.5 93 347.5 93c98.667 0 181.167 -14.667 247.5 -44s116.166 -68 149.499 -116s50 -100 50 -156c0 -52.667 -15.667 -96.834 -47 -132.501s-69.666 -65.667 -114.999 -90s-89.333 -45.833 -132 -64.5
c-26.667 -11.333 -53.834 -21.833 -81.501 -31.5s-51.667 -17.5 -72 -23.5s-33.166 -9.66699 -38.499 -11h469v-234h-892z" />
    <glyph glyph-name="uni00B3" unicode="&#xb3;" horiz-adv-x="1076" 
d="M782 1057c69.333 -2 119.164 -21.832 149.497 -59.499s45.5 -86.5 45.5 -146.5c0 -45.333 -15.5 -89.333 -46.5 -132s-79.5 -77.834 -145.5 -105.501s-151.667 -41.5 -257 -41.5c-91.333 0 -166.666 10.333 -225.999 31s-105.666 47.334 -138.999 80.001
s-56.833 68.167 -70.5 106.5s-20.5 74.833 -20.5 109.5v1v1h322v-1v-1c0 -36.667 12.667 -60 38 -70s58.666 -15 99.999 -15c34.667 0 63.667 5.33301 87 16s35 27.667 35 51c0 17.333 -6.83301 30.5 -20.5 39.5s-30.5 15.167 -50.5 18.5s-39 5 -57 5h-29v206h29
c18.667 0 37.834 1.66699 57.501 5s36.334 9 50.001 17s20.5 19.333 20.5 34c0 16.667 -11.167 28.667 -33.5 36s-50.166 11 -83.499 11c-38.667 0 -72.167 -4.83301 -100.5 -14.5s-42.5 -29.834 -42.5 -60.501h-322c0 48 14.833 96.167 44.5 144.5
s78.167 88.833 145.5 121.5s156.666 49 267.999 49c106 0 191.833 -12.333 257.5 -37s113.667 -56.167 144 -94.5s45.5 -77.833 45.5 -118.5c0 -48 -15.5 -90.5 -46.5 -127.5s-80.5 -56.5 -148.5 -58.5z" />
    <glyph glyph-name="acute" unicode="&#xb4;" horiz-adv-x="608" 
d="M32 1184l237 291h291l-281 -291h-247z" />
    <glyph glyph-name="uni00B5" unicode="&#xb5;" horiz-adv-x="1302" 
d="M809 0v1062h403v-1062h-403zM809 540l111.999 -90.001c0 -64 -6.66699 -124.333 -20 -181s-33.166 -106.667 -59.499 -150s-58.666 -77.166 -96.999 -101.499s-82.5 -36.5 -132.5 -36.5c-38.667 0 -66.834 5.83301 -84.501 17.5s-29.167 22.5 -34.5 32.5v-468h-403v1499
h403v-497v-22.5v-22.5c0 -38 3.16699 -72.833 9.5 -104.5s19.5 -57 39.5 -76s50 -28.5 90 -28.5s73 10.833 99 32.5s45.5 50 58.5 85s19.5 72.167 19.5 111.5z" />
    <glyph glyph-name="paragraph" unicode="&#xb6;" horiz-adv-x="1491" 
d="M674 -170v730h-24c-98.667 0 -182.167 13 -250.5 39s-123.5 61 -165.5 105s-72.5 93.5 -91.5 148.5s-28.5 111.167 -28.5 168.5c0 54.667 8.66699 108.667 26 162s46.333 101.833 87 145.5s95.5 78.667 164.5 105s155.167 39.5 258.5 39.5h700v-1643h-273v1398h-132
v-1398h-271z" />
    <glyph glyph-name="periodcentered" unicode="&#xb7;" horiz-adv-x="629" 
d="M315 548c-54.667 0 -101.167 19.167 -139.5 57.5s-57.5 84.833 -57.5 139.5c0 54 19.167 100.167 57.5 138.5s84.833 57.5 139.5 57.5c54 0 100.167 -19.167 138.5 -57.5s57.5 -84.5 57.5 -138.5c0 -54.667 -19.167 -101.167 -57.5 -139.5s-84.5 -57.5 -138.5 -57.5z" />
    <glyph glyph-name="cedilla" unicode="&#xb8;" horiz-adv-x="969" 
d="M602 -56c24 0 48.666 -4.83398 73.999 -14.501s46.833 -25.5 64.5 -47.5s26.5 -51.667 26.5 -89c0 -47.333 -15 -86 -45 -116s-68.5 -52 -115.5 -66s-95.833 -21 -146.5 -21c-44.667 0 -91.667 5.83301 -141 17.5s-84.666 24.834 -105.999 39.501l76 141
c15.333 -8.66699 41 -19.667 77 -33s71.667 -20 107 -20s64.666 5.5 87.999 16.5s35 27.5 35 49.5c0 17.333 -5.66699 29.833 -17 37.5s-24.666 11.5 -39.999 11.5s-30.5 -2.5 -45.5 -7.5s-26.167 -13.167 -33.5 -24.5l-146 39l74 143h166l-58 -107h-10
c6.66699 16 19.5 28.5 38.5 37.5s44.833 13.5 77.5 13.5z" />
    <glyph glyph-name="uni00B9" unicode="&#xb9;" horiz-adv-x="789" 
d="M587 1473l-0.000976562 -882.999h-320v597c-5.33301 -6 -19.333 -13.333 -42 -22s-49.834 -16.334 -81.501 -23.001s-64.5 -10 -98.5 -10v228c34.667 2.66699 67.834 9.5 99.501 20.5s58.834 24.833 81.501 41.5s38 33.667 46 51h315z" />
    <glyph glyph-name="ordmasculine" unicode="&#xba;" horiz-adv-x="800" 
d="M389 1018c-44.667 0 -86.5 9.33301 -125.5 28s-70.5 45.334 -94.5 80.001s-36 75.667 -36 123s12 88.333 36 123s55.5 61.5 94.5 80.5s80.833 28.5 125.5 28.5c46.667 0 89.667 -9.5 129 -28.5s71.166 -45.833 95.499 -80.5s36.5 -75.667 36.5 -123
s-12.167 -88.333 -36.5 -123s-56.166 -61.334 -95.499 -80.001s-82.333 -28 -129 -28zM389 1158c17.333 0 33.833 3 49.5 9s28.5 15.667 38.5 29s15 31 15 53c0 22.667 -5 40.5 -15 53.5s-22.833 22.5 -38.5 28.5s-32.167 9 -49.5 9c-16 0 -31.667 -3 -47 -9
s-27.833 -15.5 -37.5 -28.5s-14.5 -30.833 -14.5 -53.5c0 -22 4.83301 -39.667 14.5 -53s22.167 -23 37.5 -29s31 -9 47 -9z" />
    <glyph glyph-name="guillemotright" unicode="&#xbb;" horiz-adv-x="975" 
d="M399 885h230l326 -320l-326 -314h-230l329 314zM20 885h230l326 -320l-325 -314h-230l326 314z" />
    <glyph glyph-name="onequarter" unicode="&#xbc;" horiz-adv-x="2209" 
d="M587 1473l-0.000976562 -882.999h-320v597c-5.33301 -6 -19.333 -13.333 -42 -22s-49.834 -16.334 -81.501 -23.001s-64.5 -10 -98.5 -10v228c34.667 2.66699 67.834 9.5 99.501 20.5s58.834 24.833 81.501 41.5s38 33.667 46 51h315zM268.999 0.000976562l1133 1475h285
l-1133 -1475h-285zM1693 0.000976562v138h-477v198l389 547h410v-530h130v-215h-130v-138h-322zM1449 224.001l-82 129h326v332l61 -18z" />
    <glyph glyph-name="onehalf" unicode="&#xbd;" horiz-adv-x="2227" 
d="M587 1473l-0.000976562 -882.999h-320v597c-5.33301 -6 -19.333 -13.333 -42 -22s-49.834 -16.334 -81.501 -23.001s-64.5 -10 -98.5 -10v228c34.667 2.66699 67.834 9.5 99.501 20.5s58.834 24.833 81.501 41.5s38 33.667 46 51h315zM268.999 0.000976562l1133 1475h285
l-1133 -1475h-285zM1230 0.000976562l-0.00195312 263.001l72 26.5l136 52c52 20.333 102 40.833 150 61.5c38.667 16.667 75.334 34.5 110.001 53.5s63 39 85 60s33 42.167 33 63.5c0 22.667 -10.167 41.667 -30.5 57s-53.166 23 -98.499 23
c-56.667 0 -95 -10.333 -115 -31s-30 -49 -30 -85h-323c0 115.333 41.833 204 125.5 266s199.5 93 347.5 93c98.667 0 181.167 -14.667 247.5 -44s116.166 -68 149.499 -116s50 -100 50 -156c0 -52.667 -15.667 -96.834 -47 -132.501s-69.666 -65.667 -114.999 -90
s-89.333 -45.833 -132 -64.5c-26.667 -11.333 -53.834 -21.833 -81.501 -31.5s-51.667 -17.5 -72 -23.5s-33.166 -9.66699 -38.499 -11h469v-234h-892z" />
    <glyph glyph-name="threequarters" unicode="&#xbe;" horiz-adv-x="2496" 
d="M782 1057c69.333 -2 119.164 -21.832 149.497 -59.499s45.5 -86.5 45.5 -146.5c0 -45.333 -15.5 -89.333 -46.5 -132s-79.5 -77.834 -145.5 -105.501s-151.667 -41.5 -257 -41.5c-91.333 0 -166.666 10.333 -225.999 31s-105.666 47.334 -138.999 80.001
s-56.833 68.167 -70.5 106.5s-20.5 74.833 -20.5 109.5v1v1h322v-1v-1c0 -36.667 12.667 -60 38 -70s58.666 -15 99.999 -15c34.667 0 63.667 5.33301 87 16s35 27.667 35 51c0 17.333 -6.83301 30.5 -20.5 39.5s-30.5 15.167 -50.5 18.5s-39 5 -57 5h-29v206h29
c18.667 0 37.834 1.66699 57.501 5s36.334 9 50.001 17s20.5 19.333 20.5 34c0 16.667 -11.167 28.667 -33.5 36s-50.166 11 -83.499 11c-38.667 0 -72.167 -4.83301 -100.5 -14.5s-42.5 -29.834 -42.5 -60.501h-322c0 48 14.833 96.167 44.5 144.5
s78.167 88.833 145.5 121.5s156.666 49 267.999 49c106 0 191.833 -12.333 257.5 -37s113.667 -56.167 144 -94.5s45.5 -77.833 45.5 -118.5c0 -48 -15.5 -90.5 -46.5 -127.5s-80.5 -56.5 -148.5 -58.5zM555.998 0.000976562l1133 1475h285l-1133 -1475h-285z
M1980 0.000976562v138h-477v198l389 547h410v-530h130v-215h-130v-138h-322zM1736 224.001l-82 129h326v332l61 -18z" />
    <glyph glyph-name="questiondown" unicode="&#xbf;" horiz-adv-x="1159" 
d="M726 609c0 -63.333 -9.66992 -120.333 -29.0029 -171s-43.666 -96.334 -72.999 -137.001s-59 -78.334 -89 -113.001c-21.333 -24.667 -41 -49.167 -59 -73.5s-32.333 -48.666 -43 -72.999s-16 -49.5 -16 -75.5c0 -42.667 11.667 -75.334 35 -98.001s57 -34 101 -34
c49.333 0 88.666 17.833 117.999 53.5s44 90.834 44 165.501h353c0 -116 -23.333 -209.667 -70 -281s-108.667 -123.166 -186 -155.499s-161.666 -48.5 -252.999 -48.5s-174.166 15.333 -248.499 46s-133.5 77.167 -177.5 139.5s-66 140.833 -66 235.5
c0 56 9.83301 105.5 29.5 148.5s44.834 81.667 75.501 116s62 66.5 94 96.5c42 40 79 80 111 120s48 86.333 48 139h301zM558.997 1086c54.667 0 101.167 -19.167 139.5 -57.5s57.5 -84.833 57.5 -139.5c0 -54 -19.167 -100.167 -57.5 -138.5s-84.833 -57.5 -139.5 -57.5
c-54 0 -100.167 19.167 -138.5 57.5s-57.5 84.5 -57.5 138.5c0 54.667 19.167 101.167 57.5 139.5s84.5 57.5 138.5 57.5z" />
    <glyph glyph-name="Agrave" unicode="&#xc0;" horiz-adv-x="1405" 
d="M40 0l343 1475h641l341 -1475h-413l-249 1234h2l-252 -1234h-413zM340 310v303h728v-303h-728zM898 1563h-257l-311 224h301z" />
    <glyph glyph-name="Aacute" unicode="&#xc1;" horiz-adv-x="1405" 
d="M40 0l343 1475h641l341 -1475h-413l-249 1234h2l-252 -1234h-413zM340 310v303h728v-303h-728zM507 1563l267 224h301l-311 -224h-257z" />
    <glyph glyph-name="Acircumflex" unicode="&#xc2;" horiz-adv-x="1405" 
d="M40 0l343 1475h641l341 -1475h-413l-249 1234h2l-252 -1234h-413zM340 310v303h728v-303h-728zM321 1562l259 225h249l258 -225h-246l-190 169h103l-188 -169h-245z" />
    <glyph glyph-name="Atilde" unicode="&#xc3;" horiz-adv-x="1405" 
d="M40 0l343 1475h641l341 -1475h-413l-249 1234h2l-252 -1234h-413zM340 310v303h728v-303h-728zM1075 1816c0 -43.333 -8.17285 -85.667 -24.5059 -127s-41 -75.5 -74 -102.5s-74.833 -40.5 -125.5 -40.5c-39.333 0 -71.666 7.5 -96.999 22.5s-44.666 29.167 -57.999 42.5
c-14.667 15.333 -28.167 27.833 -40.5 37.5s-27.166 14.5 -44.499 14.5c-20 0 -35.5 -8.5 -46.5 -25.5s-16.5 -41.833 -16.5 -74.5h-196c0 43.333 8.33301 85.833 25 127.5s42 76.167 76 103.5s77.333 41 130 41c34.667 0 64.834 -7.66699 90.501 -23s45.834 -30 60.501 -44
s29.334 -25.833 44.001 -35.5s29.667 -14.5 45 -14.5c16.667 0 30.167 8.16699 40.5 24.5s15.5 40.833 15.5 73.5h196z" />
    <glyph glyph-name="Adieresis" unicode="&#xc4;" horiz-adv-x="1405" 
d="M40 0l343 1475h641l341 -1475h-413l-249 1234h2l-252 -1234h-413zM340 310v303h728v-303h-728zM432 1530c-54 0 -101.167 13.833 -141.5 41.5s-60.5 67.5 -60.5 119.5c0 52.667 20.167 92.667 60.5 120s87.5 41 141.5 41c53.333 0 100.333 -13.667 141 -41
s61 -67.333 61 -120s-20.333 -92.667 -61 -120s-87.667 -41 -141 -41zM977 1530c-54 0 -101.167 13.833 -141.5 41.5s-60.5 67.5 -60.5 119.5c0 52.667 20.167 92.667 60.5 120s87.5 41 141.5 41c53.333 0 100.333 -13.667 141 -41s61 -67.333 61 -120
s-20.333 -92.667 -61 -120s-87.667 -41 -141 -41z" />
    <glyph glyph-name="Aring" unicode="&#xc5;" horiz-adv-x="1405" 
d="M40 0l343 1475h641l341 -1475h-413l-249 1234h2l-252 -1234h-413zM340 310v303h728v-303h-728zM704 1684c23.333 0 43.166 8.16699 59.499 24.5s24.5 36.166 24.5 59.499s-8.16699 43.166 -24.5 59.499s-36.166 24.5 -59.499 24.5s-43.166 -8.16699 -59.499 -24.5
s-24.5 -36.166 -24.5 -59.499s8.16699 -43.166 24.5 -59.499s36.166 -24.5 59.499 -24.5zM704 1515c-46 0 -88.167 11.5 -126.5 34.5s-69 53.667 -92 92s-34.5 80.5 -34.5 126.5c0 46.667 11.5 89 34.5 127s53.667 68.5 92 91.5s80.5 34.5 126.5 34.5
c46.667 0 89 -11.5 127 -34.5s68.5 -53.5 91.5 -91.5s34.5 -80 34.5 -126c0 -46.667 -11.5 -89.167 -34.5 -127.5s-53.5 -69 -91.5 -92s-80.333 -34.5 -127 -34.5z" />
    <glyph glyph-name="AE" unicode="&#xc6;" horiz-adv-x="2067" 
d="M0 0l837 1475h1120v-300h-702l131 131v-530l-114 114h574v-300h-564l104 104v-508l-114 114h685v-300h-958v1151l30 -24l-592 -1127h-437zM458 260l79 284h645v-284h-724z" />
    <glyph glyph-name="Ccedilla" unicode="&#xc7;" horiz-adv-x="1469" 
d="M1399 557c0 -67.333 -12.835 -135.169 -38.502 -203.502s-64.667 -131.166 -117 -188.499s-118.666 -103.5 -198.999 -138.5s-175.5 -52.5 -285.5 -52.5c-111.333 0 -209.833 19.833 -295.5 59.5s-157.667 94.667 -216 165s-102.5 151.666 -132.5 243.999
s-45 190.833 -45 295.5c0 105.333 15 204 45 296s74.167 172.833 132.5 242.5s130.333 124.334 216 164.001s184.167 59.5 295.5 59.5c120 0 222.5 -20.333 307.5 -61s153.333 -94 205 -160s87.5 -136.667 107.5 -212c13.333 -51.333 20 -101 20 -149h-405
c0 21.333 -1.33301 40 -4 56c-6 43.333 -19 81 -39 113s-46.167 56.833 -78.5 74.5s-70.166 26.5 -113.499 26.5c-52 0 -99 -15.333 -141 -46s-75.5 -79 -100.5 -145s-37.5 -152.333 -37.5 -259c0 -106 12.5 -192.333 37.5 -259s58.5 -115.667 100.5 -147s89 -47 141 -47
c37.333 0 70.5 6.83301 99.5 20.5s53.5 32.834 73.5 57.501s35.333 53.5 46 86.5s16 68.833 16 107.5h405zM880.998 -56.0029c24 0 48.666 -4.83398 73.999 -14.501s46.833 -25.5 64.5 -47.5s26.5 -51.667 26.5 -89c0 -47.333 -15 -86 -45 -116s-68.5 -52 -115.5 -66
s-95.833 -21 -146.5 -21c-44.667 0 -91.667 5.83301 -141 17.5s-84.666 24.834 -105.999 39.501l76 141c15.333 -8.66699 41 -19.667 77 -33s71.667 -20 107 -20s64.666 5.5 87.999 16.5s35 27.5 35 49.5c0 17.333 -5.66699 29.833 -17 37.5s-24.666 11.5 -39.999 11.5
s-30.5 -2.5 -45.5 -7.5s-26.167 -13.167 -33.5 -24.5l-146 39l74 143h166l-58 -107h-10c6.66699 16 19.5 28.5 38.5 37.5s44.833 13.5 77.5 13.5z" />
    <glyph glyph-name="Egrave" unicode="&#xc8;" horiz-adv-x="1177" 
d="M334 1175l182 182v-575l-90 108h530v-300h-530l90 107v-579l-182 182h733v-300h-957v1475h957v-300h-733zM797 1563h-257l-311 224h301z" />
    <glyph glyph-name="Eacute" unicode="&#xc9;" horiz-adv-x="1177" 
d="M334 1175l182 182v-575l-90 108h530v-300h-530l90 107v-579l-182 182h733v-300h-957v1475h957v-300h-733zM406 1563l267 224h301l-311 -224h-257z" />
    <glyph glyph-name="Ecircumflex" unicode="&#xca;" horiz-adv-x="1177" 
d="M334 1175l182 182v-575l-90 108h530v-300h-530l90 107v-579l-182 182h733v-300h-957v1475h957v-300h-733zM220 1562l259 225h249l258 -225h-246l-190 169h103l-188 -169h-245z" />
    <glyph glyph-name="Edieresis" unicode="&#xcb;" horiz-adv-x="1177" 
d="M334 1175l182 182v-575l-90 108h530v-300h-530l90 107v-579l-182 182h733v-300h-957v1475h957v-300h-733zM331 1530c-54 0 -101.167 13.833 -141.5 41.5s-60.5 67.5 -60.5 119.5c0 52.667 20.167 92.667 60.5 120s87.5 41 141.5 41c53.333 0 100.333 -13.667 141 -41
s61 -67.333 61 -120s-20.333 -92.667 -61 -120s-87.667 -41 -141 -41zM876 1530c-54 0 -101.167 13.833 -141.5 41.5s-60.5 67.5 -60.5 119.5c0 52.667 20.167 92.667 60.5 120s87.5 41 141.5 41c53.333 0 100.333 -13.667 141 -41s61 -67.333 61 -120
s-20.333 -92.667 -61 -120s-87.667 -41 -141 -41z" />
    <glyph glyph-name="Igrave" unicode="&#xcc;" horiz-adv-x="608" 
d="M105 0v1475h398v-1475h-398zM499 1563h-257l-311 224h301z" />
    <glyph glyph-name="Iacute" unicode="&#xcd;" horiz-adv-x="608" 
d="M105 0v1475h398v-1475h-398zM108 1563l267 224h301l-311 -224h-257z" />
    <glyph glyph-name="Icircumflex" unicode="&#xce;" horiz-adv-x="608" 
d="M105 0v1475h398v-1475h-398zM-78 1562l259 225h249l258 -225h-246l-190 169h103l-188 -169h-245z" />
    <glyph glyph-name="Idieresis" unicode="&#xcf;" horiz-adv-x="608" 
d="M105 0v1475h398v-1475h-398zM88 1536c-54 0 -101.167 13.833 -141.5 41.5s-60.5 67.5 -60.5 119.5c0 52.667 20.167 92.667 60.5 120s87.5 41 141.5 41c53.333 0 100.333 -13.667 141 -41s61 -67.333 61 -120s-20.333 -92.667 -61 -120s-87.667 -41 -141 -41zM527 1536
c-54 0 -101.167 13.833 -141.5 41.5s-60.5 67.5 -60.5 119.5c0 52.667 20.167 92.667 60.5 120s87.5 41 141.5 41c53.333 0 100.333 -13.667 141 -41s61 -67.333 61 -120s-20.333 -92.667 -61 -120s-87.667 -41 -141 -41z" />
    <glyph glyph-name="Eth" unicode="&#xd0;" horiz-adv-x="1403" 
d="M16 645v179h750v-179h-750zM110 0v1475h548c99.333 0 190.333 -18.333 273 -55s154 -88 214 -154s106.333 -143.667 139 -233s49 -186.666 49 -291.999s-16.333 -203 -49 -293s-79 -168.5 -139 -235.5s-131.333 -119.167 -214 -156.5s-173.667 -56 -273 -56h-548z
M514 117.999l-182 182h272c57.333 0 110.166 17.833 158.499 53.5s87.166 86.5 116.499 152.5s44 144.333 44 235c0 91.333 -14.667 169.333 -44 234s-68.166 114.167 -116.499 148.5s-101.166 51.5 -158.499 51.5h-272l182 182v-1239z" />
    <glyph glyph-name="Ntilde" unicode="&#xd1;" horiz-adv-x="1558" 
d="M503 0h-393v1475h616l407 -1354l-78 -16v1370h393v-1475h-621l-407 1349l83 16v-1365zM1173 1816c0 -43.333 -8.17285 -85.667 -24.5059 -127s-41 -75.5 -74 -102.5s-74.833 -40.5 -125.5 -40.5c-39.333 0 -71.666 7.5 -96.999 22.5s-44.666 29.167 -57.999 42.5
c-14.667 15.333 -28.167 27.833 -40.5 37.5s-27.166 14.5 -44.499 14.5c-20 0 -35.5 -8.5 -46.5 -25.5s-16.5 -41.833 -16.5 -74.5h-196c0 43.333 8.33301 85.833 25 127.5s42 76.167 76 103.5s77.333 41 130 41c34.667 0 64.834 -7.66699 90.501 -23s45.834 -30 60.501 -44
s29.334 -25.833 44.001 -35.5s29.667 -14.5 45 -14.5c16.667 0 30.167 8.16699 40.5 24.5s15.5 40.833 15.5 73.5h196z" />
    <glyph glyph-name="Ograve" unicode="&#xd2;" horiz-adv-x="1564" 
d="M782 -26c-95.333 0 -185.835 16.333 -271.502 49s-161.5 81.334 -227.5 146.001s-118 144.667 -156 240s-57 205.333 -57 330c0 125.333 18.833 235.333 56.5 330s89.334 174 155.001 238s141.334 112.167 227.001 144.5s176.834 48.5 273.501 48.5
s188 -16.167 274 -48.5s161.833 -80.5 227.5 -144.5s117.167 -143.333 154.5 -238s56 -204.667 56 -330c0 -124.667 -19 -234.667 -57 -330s-90.167 -175.333 -156.5 -240s-142.333 -113.334 -228 -146.001s-175.834 -49 -270.501 -49zM781.998 286
c49.333 0 97.167 13.501 143.5 40.501s84.333 73.5 114 139.5s44.5 157 44.5 273c0 116.667 -15 207.5 -45 272.5s-68 110.667 -114 137s-93.667 39.5 -143 39.5c-48.667 0 -96.167 -13.167 -142.5 -39.5s-84.5 -72 -114.5 -137s-45 -155.833 -45 -272.5
s15 -207.834 45 -273.501s68.167 -112 114.5 -139s93.833 -40.5 142.5 -40.5zM975.999 1563h-257l-311 224h301z" />
    <glyph glyph-name="Oacute" unicode="&#xd3;" horiz-adv-x="1564" 
d="M782 -26c-95.333 0 -185.835 16.333 -271.502 49s-161.5 81.334 -227.5 146.001s-118 144.667 -156 240s-57 205.333 -57 330c0 125.333 18.833 235.333 56.5 330s89.334 174 155.001 238s141.334 112.167 227.001 144.5s176.834 48.5 273.501 48.5
s188 -16.167 274 -48.5s161.833 -80.5 227.5 -144.5s117.167 -143.333 154.5 -238s56 -204.667 56 -330c0 -124.667 -19 -234.667 -57 -330s-90.167 -175.333 -156.5 -240s-142.333 -113.334 -228 -146.001s-175.834 -49 -270.501 -49zM781.998 286
c49.333 0 97.167 13.501 143.5 40.501s84.333 73.5 114 139.5s44.5 157 44.5 273c0 116.667 -15 207.5 -45 272.5s-68 110.667 -114 137s-93.667 39.5 -143 39.5c-48.667 0 -96.167 -13.167 -142.5 -39.5s-84.5 -72 -114.5 -137s-45 -155.833 -45 -272.5
s15 -207.834 45 -273.501s68.167 -112 114.5 -139s93.833 -40.5 142.5 -40.5zM584.999 1563l267 224h301l-311 -224h-257z" />
    <glyph glyph-name="Ocircumflex" unicode="&#xd4;" horiz-adv-x="1564" 
d="M782 -26c-95.333 0 -185.835 16.333 -271.502 49s-161.5 81.334 -227.5 146.001s-118 144.667 -156 240s-57 205.333 -57 330c0 125.333 18.833 235.333 56.5 330s89.334 174 155.001 238s141.334 112.167 227.001 144.5s176.834 48.5 273.501 48.5
s188 -16.167 274 -48.5s161.833 -80.5 227.5 -144.5s117.167 -143.333 154.5 -238s56 -204.667 56 -330c0 -124.667 -19 -234.667 -57 -330s-90.167 -175.333 -156.5 -240s-142.333 -113.334 -228 -146.001s-175.834 -49 -270.501 -49zM781.998 286
c49.333 0 97.167 13.501 143.5 40.501s84.333 73.5 114 139.5s44.5 157 44.5 273c0 116.667 -15 207.5 -45 272.5s-68 110.667 -114 137s-93.667 39.5 -143 39.5c-48.667 0 -96.167 -13.167 -142.5 -39.5s-84.5 -72 -114.5 -137s-45 -155.833 -45 -272.5
s15 -207.834 45 -273.501s68.167 -112 114.5 -139s93.833 -40.5 142.5 -40.5zM398.999 1562l259 225h249l258 -225h-246l-190 169h103l-188 -169h-245z" />
    <glyph glyph-name="Otilde" unicode="&#xd5;" horiz-adv-x="1564" 
d="M782 -26c-95.333 0 -185.835 16.333 -271.502 49s-161.5 81.334 -227.5 146.001s-118 144.667 -156 240s-57 205.333 -57 330c0 125.333 18.833 235.333 56.5 330s89.334 174 155.001 238s141.334 112.167 227.001 144.5s176.834 48.5 273.501 48.5
s188 -16.167 274 -48.5s161.833 -80.5 227.5 -144.5s117.167 -143.333 154.5 -238s56 -204.667 56 -330c0 -124.667 -19 -234.667 -57 -330s-90.167 -175.333 -156.5 -240s-142.333 -113.334 -228 -146.001s-175.834 -49 -270.501 -49zM781.998 286
c49.333 0 97.167 13.501 143.5 40.501s84.333 73.5 114 139.5s44.5 157 44.5 273c0 116.667 -15 207.5 -45 272.5s-68 110.667 -114 137s-93.667 39.5 -143 39.5c-48.667 0 -96.167 -13.167 -142.5 -39.5s-84.5 -72 -114.5 -137s-45 -155.833 -45 -272.5
s15 -207.834 45 -273.501s68.167 -112 114.5 -139s93.833 -40.5 142.5 -40.5zM1153 1816c0 -43.333 -8.17285 -85.667 -24.5059 -127s-41 -75.5 -74 -102.5s-74.833 -40.5 -125.5 -40.5c-39.333 0 -71.666 7.5 -96.999 22.5s-44.666 29.167 -57.999 42.5
c-14.667 15.333 -28.167 27.833 -40.5 37.5s-27.166 14.5 -44.499 14.5c-20 0 -35.5 -8.5 -46.5 -25.5s-16.5 -41.833 -16.5 -74.5h-196c0 43.333 8.33301 85.833 25 127.5s42 76.167 76 103.5s77.333 41 130 41c34.667 0 64.834 -7.66699 90.501 -23s45.834 -30 60.501 -44
s29.334 -25.833 44.001 -35.5s29.667 -14.5 45 -14.5c16.667 0 30.167 8.16699 40.5 24.5s15.5 40.833 15.5 73.5h196z" />
    <glyph glyph-name="Odieresis" unicode="&#xd6;" horiz-adv-x="1564" 
d="M782 -26c-95.333 0 -185.835 16.333 -271.502 49s-161.5 81.334 -227.5 146.001s-118 144.667 -156 240s-57 205.333 -57 330c0 125.333 18.833 235.333 56.5 330s89.334 174 155.001 238s141.334 112.167 227.001 144.5s176.834 48.5 273.501 48.5
s188 -16.167 274 -48.5s161.833 -80.5 227.5 -144.5s117.167 -143.333 154.5 -238s56 -204.667 56 -330c0 -124.667 -19 -234.667 -57 -330s-90.167 -175.333 -156.5 -240s-142.333 -113.334 -228 -146.001s-175.834 -49 -270.501 -49zM781.998 286
c49.333 0 97.167 13.501 143.5 40.501s84.333 73.5 114 139.5s44.5 157 44.5 273c0 116.667 -15 207.5 -45 272.5s-68 110.667 -114 137s-93.667 39.5 -143 39.5c-48.667 0 -96.167 -13.167 -142.5 -39.5s-84.5 -72 -114.5 -137s-45 -155.833 -45 -272.5
s15 -207.834 45 -273.501s68.167 -112 114.5 -139s93.833 -40.5 142.5 -40.5zM509.999 1530c-54 0 -101.167 13.833 -141.5 41.5s-60.5 67.5 -60.5 119.5c0 52.667 20.167 92.667 60.5 120s87.5 41 141.5 41c53.333 0 100.333 -13.667 141 -41s61 -67.333 61 -120
s-20.333 -92.667 -61 -120s-87.667 -41 -141 -41zM1055 1530c-54 0 -101.167 13.833 -141.5 41.5s-60.5 67.5 -60.5 119.5c0 52.667 20.167 92.667 60.5 120s87.5 41 141.5 41c53.333 0 100.333 -13.667 141 -41s61 -67.333 61 -120s-20.333 -92.667 -61 -120
s-87.667 -41 -141 -41z" />
    <glyph glyph-name="multiply" unicode="&#xd7;" horiz-adv-x="1350" 
d="M456 160l-175 174l611 549l177 -173zM1069 334l-177 -177l-611 551l175 175z" />
    <glyph glyph-name="Oslash" unicode="&#xd8;" horiz-adv-x="1564" 
d="M1375 1484l-983 -1609l-203 117l981 1609zM782 -26c-95.333 0 -185.835 16.333 -271.502 49s-161.5 81.334 -227.5 146.001s-118 144.667 -156 240s-57 205.333 -57 330c0 125.333 18.833 235.333 56.5 330s89.334 174 155.001 238s141.334 112.167 227.001 144.5
s176.834 48.5 273.501 48.5s188 -16.167 274 -48.5s161.833 -80.5 227.5 -144.5s117.167 -143.333 154.5 -238s56 -204.667 56 -330c0 -124.667 -19 -234.667 -57 -330s-90.167 -175.333 -156.5 -240s-142.333 -113.334 -228 -146.001s-175.834 -49 -270.501 -49z
M781.998 286c49.333 0 97.167 13.501 143.5 40.501s84.333 73.5 114 139.5s44.5 157 44.5 273c0 116.667 -15 207.5 -45 272.5s-68 110.667 -114 137s-93.667 39.5 -143 39.5c-48.667 0 -96.167 -13.167 -142.5 -39.5s-84.5 -72 -114.5 -137s-45 -155.833 -45 -272.5
s15 -207.834 45 -273.501s68.167 -112 114.5 -139s93.833 -40.5 142.5 -40.5z" />
    <glyph glyph-name="Ugrave" unicode="&#xd9;" horiz-adv-x="1388" 
d="M1278 525c0 -183.333 -52.5 -321 -157.5 -413s-247.5 -138 -427.5 -138s-322.167 46 -426.5 138s-156.5 229.667 -156.5 413v73.5v79.5v797h404v-860v-53v-47c0 -74.667 12.833 -131.667 38.5 -171s72.5 -59 140.5 -59s115.167 19.667 141.5 59s39.5 96.333 39.5 171v960
h404v-950zM888 1563h-257l-311 224h301z" />
    <glyph glyph-name="Uacute" unicode="&#xda;" horiz-adv-x="1388" 
d="M1278 525c0 -183.333 -52.5 -321 -157.5 -413s-247.5 -138 -427.5 -138s-322.167 46 -426.5 138s-156.5 229.667 -156.5 413v73.5v79.5v797h404v-860v-53v-47c0 -74.667 12.833 -131.667 38.5 -171s72.5 -59 140.5 -59s115.167 19.667 141.5 59s39.5 96.333 39.5 171v960
h404v-950zM497 1563l267 224h301l-311 -224h-257z" />
    <glyph glyph-name="Ucircumflex" unicode="&#xdb;" horiz-adv-x="1388" 
d="M1278 525c0 -183.333 -52.5 -321 -157.5 -413s-247.5 -138 -427.5 -138s-322.167 46 -426.5 138s-156.5 229.667 -156.5 413v73.5v79.5v797h404v-860v-53v-47c0 -74.667 12.833 -131.667 38.5 -171s72.5 -59 140.5 -59s115.167 19.667 141.5 59s39.5 96.333 39.5 171v960
h404v-950zM311 1562l259 225h249l258 -225h-246l-190 169h103l-188 -169h-245z" />
    <glyph glyph-name="Udieresis" unicode="&#xdc;" horiz-adv-x="1388" 
d="M1278 525c0 -183.333 -52.5 -321 -157.5 -413s-247.5 -138 -427.5 -138s-322.167 46 -426.5 138s-156.5 229.667 -156.5 413v73.5v79.5v797h404v-860v-53v-47c0 -74.667 12.833 -131.667 38.5 -171s72.5 -59 140.5 -59s115.167 19.667 141.5 59s39.5 96.333 39.5 171v960
h404v-950zM422 1530c-54 0 -101.167 13.833 -141.5 41.5s-60.5 67.5 -60.5 119.5c0 52.667 20.167 92.667 60.5 120s87.5 41 141.5 41c53.333 0 100.333 -13.667 141 -41s61 -67.333 61 -120s-20.333 -92.667 -61 -120s-87.667 -41 -141 -41zM967 1530
c-54 0 -101.167 13.833 -141.5 41.5s-60.5 67.5 -60.5 119.5c0 52.667 20.167 92.667 60.5 120s87.5 41 141.5 41c53.333 0 100.333 -13.667 141 -41s61 -67.333 61 -120s-20.333 -92.667 -61 -120s-87.667 -41 -141 -41z" />
    <glyph glyph-name="Yacute" unicode="&#xdd;" horiz-adv-x="1355" 
d="M1315 1475l-438 -970v-505h-402v505l-435 970h427l289 -783h-158l289 783h428zM482 1563l267 224h301l-311 -224h-257z" />
    <glyph glyph-name="Thorn" unicode="&#xde;" horiz-adv-x="1250" 
d="M110 0v1473h403v-441l-121 121h288c100 0 187.5 -15.667 262.5 -47s133.333 -78.5 175 -141.5s62.5 -141.833 62.5 -236.5s-21 -173.334 -63 -236.001s-100.5 -109.5 -175.5 -140.5s-162.167 -46.5 -261.5 -46.5h-288l121 121v-426h-403zM513 511.001l-94 94h219
c28.667 0 53.5 5 74.5 15s37.333 24.167 49 42.5s17.5 40.5 17.5 66.5c0 27.333 -5.83301 50 -17.5 68s-28.167 31.667 -49.5 41s-46 14 -74 14h-227l102 102v-443z" />
    <glyph glyph-name="germandbls" unicode="&#xdf;" horiz-adv-x="1302" 
d="M72 0l-0.00292969 932.997c0 98 13 180.167 39 246.5s60.5 120 103.5 161s91 72.167 144 93.5s106.833 35.833 161.5 43.5s106.334 11.5 155.001 11.5c88.667 0 170.5 -15.167 245.5 -45.5s135.333 -74.166 181 -131.499s68.5 -126.666 68.5 -207.999
c0 -57.333 -9.83301 -102.5 -29.5 -135.5s-40.167 -60.167 -61.5 -81.5c-16 -16 -29.5 -30.833 -40.5 -44.5s-16.5 -29.167 -16.5 -46.5s9.16699 -35.166 27.5 -53.499s39.833 -37.833 64.5 -58.5c23.333 -18.667 46 -41.167 68 -67.5s40 -56.833 54 -91.5
s21 -74.667 21 -120c0 -86 -17 -160.167 -51 -222.5s-89.667 -110.5 -167 -144.5s-181.333 -51 -312 -51c-30.667 0 -62.167 2 -94.5 6s-57.166 8.66699 -74.499 14l49 295c11.333 -4 27.833 -9 49.5 -15s45.834 -9 72.501 -9c47.333 0 81.166 8.33301 101.499 25
s30.5 48 30.5 94c0 18 -4.16699 35.333 -12.5 52s-19.5 33.334 -33.5 50.001s-29 33.667 -45 51c-30 32.667 -58.333 68 -85 106s-40 82.333 -40 133c0 45.333 8.66699 81.166 26 107.499s36.333 49.166 57 68.499c18 17.333 33.667 34.333 47 51s20 37.334 20 62.001
c0 18 -4 35.333 -12 52s-21.5 30.5 -40.5 41.5s-45.5 16.5 -79.5 16.5c-69.333 0 -118.666 -22.333 -147.999 -67s-44 -124.667 -44 -240v-881h-399z" />
    <glyph glyph-name="agrave" unicode="&#xe0;" horiz-adv-x="1281" 
d="M453 -24c-76 0 -143.998 12.166 -203.998 36.499s-107.333 59.666 -142 105.999s-52 102.833 -52 169.5c0 78.667 22.5 142 67.5 190s102.667 84.333 173 109s143.166 40.334 218.499 47.001c107.333 10 179.666 18.667 216.999 26s56 20.333 56 39v0.5v0.5
c0 24.667 -14.833 45.834 -44.5 63.501s-69.167 26.5 -118.5 26.5c-53.333 0 -93 -9.83301 -119 -29.5s-39 -48.167 -39 -85.5h-397c0 89.333 25 164.333 75 225s117.167 106.5 201.5 137.5s178.166 46.5 281.499 46.5c98 0 189.833 -14.667 275.5 -44
s155.167 -74.166 208.5 -134.499s80 -137.5 80 -231.5v-42v-42v-329c0 -29.333 0.666992 -57.666 2 -84.999s5.33301 -52.666 12 -75.999c7.33301 -24.667 17 -45.834 29 -63.501s21.667 -29.834 29 -36.501h-394c-6 6 -14.667 17 -26 33s-20.666 34.333 -27.999 55
c-10 30 -17.167 58.167 -21.5 84.5s-6.5 58.5 -6.5 96.5l88 -61c-18 -48.667 -48.5 -90.334 -91.5 -125.001s-93.333 -61.167 -151 -79.5s-117.5 -27.5 -179.5 -27.5zM573.002 261.999c34.667 0 68.832 7.66602 102.499 22.999s61.834 40.833 84.501 76.5
s34 84.167 34 145.5v38l103 -83c-44 -15.333 -93 -28.166 -147 -38.499s-105.667 -18.166 -155 -23.499c-46 -4.66699 -80.167 -12.167 -102.5 -22.5s-33.5 -26.833 -33.5 -49.5s10 -39.334 30 -50.001s48 -16 84 -16zM842 1175h-247l-281 291h291z" />
    <glyph glyph-name="aacute" unicode="&#xe1;" horiz-adv-x="1281" 
d="M453 -24c-76 0 -143.998 12.166 -203.998 36.499s-107.333 59.666 -142 105.999s-52 102.833 -52 169.5c0 78.667 22.5 142 67.5 190s102.667 84.333 173 109s143.166 40.334 218.499 47.001c107.333 10 179.666 18.667 216.999 26s56 20.333 56 39v0.5v0.5
c0 24.667 -14.833 45.834 -44.5 63.501s-69.167 26.5 -118.5 26.5c-53.333 0 -93 -9.83301 -119 -29.5s-39 -48.167 -39 -85.5h-397c0 89.333 25 164.333 75 225s117.167 106.5 201.5 137.5s178.166 46.5 281.499 46.5c98 0 189.833 -14.667 275.5 -44
s155.167 -74.166 208.5 -134.499s80 -137.5 80 -231.5v-42v-42v-329c0 -29.333 0.666992 -57.666 2 -84.999s5.33301 -52.666 12 -75.999c7.33301 -24.667 17 -45.834 29 -63.501s21.667 -29.834 29 -36.501h-394c-6 6 -14.667 17 -26 33s-20.666 34.333 -27.999 55
c-10 30 -17.167 58.167 -21.5 84.5s-6.5 58.5 -6.5 96.5l88 -61c-18 -48.667 -48.5 -90.334 -91.5 -125.001s-93.333 -61.167 -151 -79.5s-117.5 -27.5 -179.5 -27.5zM573.002 261.999c34.667 0 68.832 7.66602 102.499 22.999s61.834 40.833 84.501 76.5
s34 84.167 34 145.5v38l103 -83c-44 -15.333 -93 -28.166 -147 -38.499s-105.667 -18.166 -155 -23.499c-46 -4.66699 -80.167 -12.167 -102.5 -22.5s-33.5 -26.833 -33.5 -49.5s10 -39.334 30 -50.001s48 -16 84 -16zM450 1184l237 291h291l-281 -291h-247z" />
    <glyph glyph-name="acircumflex" unicode="&#xe2;" horiz-adv-x="1281" 
d="M453 -24c-76 0 -143.998 12.166 -203.998 36.499s-107.333 59.666 -142 105.999s-52 102.833 -52 169.5c0 78.667 22.5 142 67.5 190s102.667 84.333 173 109s143.166 40.334 218.499 47.001c107.333 10 179.666 18.667 216.999 26s56 20.333 56 39v0.5v0.5
c0 24.667 -14.833 45.834 -44.5 63.501s-69.167 26.5 -118.5 26.5c-53.333 0 -93 -9.83301 -119 -29.5s-39 -48.167 -39 -85.5h-397c0 89.333 25 164.333 75 225s117.167 106.5 201.5 137.5s178.166 46.5 281.499 46.5c98 0 189.833 -14.667 275.5 -44
s155.167 -74.166 208.5 -134.499s80 -137.5 80 -231.5v-42v-42v-329c0 -29.333 0.666992 -57.666 2 -84.999s5.33301 -52.666 12 -75.999c7.33301 -24.667 17 -45.834 29 -63.501s21.667 -29.834 29 -36.501h-394c-6 6 -14.667 17 -26 33s-20.666 34.333 -27.999 55
c-10 30 -17.167 58.167 -21.5 84.5s-6.5 58.5 -6.5 96.5l88 -61c-18 -48.667 -48.5 -90.334 -91.5 -125.001s-93.333 -61.167 -151 -79.5s-117.5 -27.5 -179.5 -27.5zM573.002 261.999c34.667 0 68.832 7.66602 102.499 22.999s61.834 40.833 84.501 76.5
s34 84.167 34 145.5v38l103 -83c-44 -15.333 -93 -28.166 -147 -38.499s-105.667 -18.166 -155 -23.499c-46 -4.66699 -80.167 -12.167 -102.5 -22.5s-33.5 -26.833 -33.5 -49.5s10 -39.334 30 -50.001s48 -16 84 -16zM264 1184l259 291h249l258 -291h-246l-190 219h103
l-188 -219h-245z" />
    <glyph glyph-name="atilde" unicode="&#xe3;" horiz-adv-x="1281" 
d="M453 -24c-76 0 -143.998 12.166 -203.998 36.499s-107.333 59.666 -142 105.999s-52 102.833 -52 169.5c0 78.667 22.5 142 67.5 190s102.667 84.333 173 109s143.166 40.334 218.499 47.001c107.333 10 179.666 18.667 216.999 26s56 20.333 56 39v0.5v0.5
c0 24.667 -14.833 45.834 -44.5 63.501s-69.167 26.5 -118.5 26.5c-53.333 0 -93 -9.83301 -119 -29.5s-39 -48.167 -39 -85.5h-397c0 89.333 25 164.333 75 225s117.167 106.5 201.5 137.5s178.166 46.5 281.499 46.5c98 0 189.833 -14.667 275.5 -44
s155.167 -74.166 208.5 -134.499s80 -137.5 80 -231.5v-42v-42v-329c0 -29.333 0.666992 -57.666 2 -84.999s5.33301 -52.666 12 -75.999c7.33301 -24.667 17 -45.834 29 -63.501s21.667 -29.834 29 -36.501h-394c-6 6 -14.667 17 -26 33s-20.666 34.333 -27.999 55
c-10 30 -17.167 58.167 -21.5 84.5s-6.5 58.5 -6.5 96.5l88 -61c-18 -48.667 -48.5 -90.334 -91.5 -125.001s-93.333 -61.167 -151 -79.5s-117.5 -27.5 -179.5 -27.5zM573.002 261.999c34.667 0 68.832 7.66602 102.499 22.999s61.834 40.833 84.501 76.5
s34 84.167 34 145.5v38l103 -83c-44 -15.333 -93 -28.166 -147 -38.499s-105.667 -18.166 -155 -23.499c-46 -4.66699 -80.167 -12.167 -102.5 -22.5s-33.5 -26.833 -33.5 -49.5s10 -39.334 30 -50.001s48 -16 84 -16zM1008 1459c0 -43.333 -8.17285 -85.667 -24.5059 -127
s-41 -75.5 -74 -102.5s-74.833 -40.5 -125.5 -40.5c-39.333 0 -71.666 7.5 -96.999 22.5s-44.666 29.167 -57.999 42.5c-14.667 15.333 -28.167 27.833 -40.5 37.5s-27.166 14.5 -44.499 14.5c-20 0 -35.5 -8.5 -46.5 -25.5s-16.5 -41.833 -16.5 -74.5h-196
c0 43.333 8.33301 85.833 25 127.5s42 76.167 76 103.5s77.333 41 130 41c34.667 0 64.834 -7.66699 90.501 -23s45.834 -30 60.501 -44s29.334 -25.833 44.001 -35.5s29.667 -14.5 45 -14.5c16.667 0 30.167 8.16699 40.5 24.5s15.5 40.833 15.5 73.5h196z" />
    <glyph glyph-name="adieresis" unicode="&#xe4;" horiz-adv-x="1281" 
d="M453 -24c-76 0 -143.998 12.166 -203.998 36.499s-107.333 59.666 -142 105.999s-52 102.833 -52 169.5c0 78.667 22.5 142 67.5 190s102.667 84.333 173 109s143.166 40.334 218.499 47.001c107.333 10 179.666 18.667 216.999 26s56 20.333 56 39v0.5v0.5
c0 24.667 -14.833 45.834 -44.5 63.501s-69.167 26.5 -118.5 26.5c-53.333 0 -93 -9.83301 -119 -29.5s-39 -48.167 -39 -85.5h-397c0 89.333 25 164.333 75 225s117.167 106.5 201.5 137.5s178.166 46.5 281.499 46.5c98 0 189.833 -14.667 275.5 -44
s155.167 -74.166 208.5 -134.499s80 -137.5 80 -231.5v-42v-42v-329c0 -29.333 0.666992 -57.666 2 -84.999s5.33301 -52.666 12 -75.999c7.33301 -24.667 17 -45.834 29 -63.501s21.667 -29.834 29 -36.501h-394c-6 6 -14.667 17 -26 33s-20.666 34.333 -27.999 55
c-10 30 -17.167 58.167 -21.5 84.5s-6.5 58.5 -6.5 96.5l88 -61c-18 -48.667 -48.5 -90.334 -91.5 -125.001s-93.333 -61.167 -151 -79.5s-117.5 -27.5 -179.5 -27.5zM573.002 261.999c34.667 0 68.832 7.66602 102.499 22.999s61.834 40.833 84.501 76.5
s34 84.167 34 145.5v38l103 -83c-44 -15.333 -93 -28.166 -147 -38.499s-105.667 -18.166 -155 -23.499c-46 -4.66699 -80.167 -12.167 -102.5 -22.5s-33.5 -26.833 -33.5 -49.5s10 -39.334 30 -50.001s48 -16 84 -16zM373 1178c-54 0 -101.167 13.833 -141.5 41.5
s-60.5 67.5 -60.5 119.5c0 52.667 20.167 92.667 60.5 120s87.5 41 141.5 41c53.333 0 100.333 -13.667 141 -41s61 -67.333 61 -120s-20.333 -92.667 -61 -120s-87.667 -41 -141 -41zM918 1178c-54 0 -101.167 13.833 -141.5 41.5s-60.5 67.5 -60.5 119.5
c0 52.667 20.167 92.667 60.5 120s87.5 41 141.5 41c53.333 0 100.333 -13.667 141 -41s61 -67.333 61 -120s-20.333 -92.667 -61 -120s-87.667 -41 -141 -41z" />
    <glyph glyph-name="aring" unicode="&#xe5;" horiz-adv-x="1281" 
d="M453 -24c-76 0 -143.998 12.166 -203.998 36.499s-107.333 59.666 -142 105.999s-52 102.833 -52 169.5c0 78.667 22.5 142 67.5 190s102.667 84.333 173 109s143.166 40.334 218.499 47.001c107.333 10 179.666 18.667 216.999 26s56 20.333 56 39v0.5v0.5
c0 24.667 -14.833 45.834 -44.5 63.501s-69.167 26.5 -118.5 26.5c-53.333 0 -93 -9.83301 -119 -29.5s-39 -48.167 -39 -85.5h-397c0 89.333 25 164.333 75 225s117.167 106.5 201.5 137.5s178.166 46.5 281.499 46.5c98 0 189.833 -14.667 275.5 -44
s155.167 -74.166 208.5 -134.499s80 -137.5 80 -231.5v-42v-42v-329c0 -29.333 0.666992 -57.666 2 -84.999s5.33301 -52.666 12 -75.999c7.33301 -24.667 17 -45.834 29 -63.501s21.667 -29.834 29 -36.501h-394c-6 6 -14.667 17 -26 33s-20.666 34.333 -27.999 55
c-10 30 -17.167 58.167 -21.5 84.5s-6.5 58.5 -6.5 96.5l88 -61c-18 -48.667 -48.5 -90.334 -91.5 -125.001s-93.333 -61.167 -151 -79.5s-117.5 -27.5 -179.5 -27.5zM573.002 261.999c34.667 0 68.832 7.66602 102.499 22.999s61.834 40.833 84.501 76.5
s34 84.167 34 145.5v38l103 -83c-44 -15.333 -93 -28.166 -147 -38.499s-105.667 -18.166 -155 -23.499c-46 -4.66699 -80.167 -12.167 -102.5 -22.5s-33.5 -26.833 -33.5 -49.5s10 -39.334 30 -50.001s48 -16 84 -16zM647 1304c23.333 0 43.166 8.16699 59.499 24.5
s24.5 36.166 24.5 59.499s-8.16699 43.166 -24.5 59.499s-36.166 24.5 -59.499 24.5s-43.166 -8.16699 -59.499 -24.5s-24.5 -36.166 -24.5 -59.499s8.16699 -43.166 24.5 -59.499s36.166 -24.5 59.499 -24.5zM647 1135c-46 0 -88.167 11.5 -126.5 34.5s-69 53.667 -92 92
s-34.5 80.5 -34.5 126.5c0 46.667 11.5 89 34.5 127s53.667 68.5 92 91.5s80.5 34.5 126.5 34.5c46.667 0 89 -11.5 127 -34.5s68.5 -53.5 91.5 -91.5s34.5 -80 34.5 -126c0 -46.667 -11.5 -89.167 -34.5 -127.5s-53.5 -69 -91.5 -92s-80.333 -34.5 -127 -34.5z" />
    <glyph glyph-name="ae" unicode="&#xe6;" horiz-adv-x="2125" 
d="M576 -26c-168.667 0 -297.668 34.334 -387.001 103.001s-134 155.667 -134 261c0 58.667 14.333 107.5 43 146.5s67.167 69.667 115.5 92s102.833 38.333 163.5 48s123 14.5 187 14.5c79.333 0 139.333 1 180 3s68 6.66699 82 14s21 18.666 21 33.999v5v5
c0 24.667 -16.5 45.834 -49.5 63.501s-74.167 26.5 -123.5 26.5c-35.333 0 -68.166 -3.66699 -98.499 -11s-54.5 -18.666 -72.5 -33.999s-27 -35.333 -27 -60h-397c0 67.333 16.333 125.833 49 175.5s77.167 91.167 133.5 124.5s120.333 58.166 192 74.499
s146.167 24.5 223.5 24.5c79.333 0 154.333 -10.5 225 -31.5s131.667 -52.5 183 -94.5c12.667 -10.667 24.5 -21.5 35.5 -32.5s21.167 -22.833 30.5 -35.5l-158 4c53.333 60 120.666 106.667 201.999 140s173.333 50 276 50c125.333 0 233.5 -23.5 324.5 -70.5
s161.167 -113.667 210.5 -200s74 -188.833 74 -307.5c0 -20 -0.333008 -37 -1 -51s-1.66699 -25.333 -3 -34h-996l169 139c0 -14.667 0.333008 -28.834 1 -42.501s1.66699 -27.167 3 -40.5c4.66699 -44 14.834 -82.167 30.501 -114.5s39.5 -57.166 71.5 -74.499
s74.333 -26 127 -26c32 0 59.5 2.33301 82.5 7s42 10.667 57 18s26.167 15.333 33.5 24s11.666 17 12.999 25h398c-4.66699 -46.667 -21.5 -91.667 -50.5 -135s-68.833 -82.166 -119.5 -116.499s-111.667 -61.333 -183 -81s-152 -29.5 -242 -29.5
c-78.667 0 -151 9.66699 -217 29s-124.333 47.166 -175 83.499s-92.667 79.166 -126 128.499l126 19c-21.333 -64 -59 -115 -113 -153s-115.667 -65.333 -185 -82s-137.666 -25 -204.999 -25zM592.999 272.001c26 0 54 4.33203 84 12.999s58.5 22.5 85.5 41.5
s49.167 44.333 66.5 76s26 70.834 26 117.501v17.5v17.5l114 -110c-59.333 -10 -121.833 -16.667 -187.5 -20s-122.5 -5 -170.5 -5c-54.667 0 -93.667 -7.16699 -117 -21.5s-35 -32.833 -35 -55.5s10.833 -40.167 32.5 -52.5s55.5 -18.5 101.5 -18.5zM1266 651
l408.999 0.000976562c0 3.33301 -0.166992 6.66602 -0.5 9.99902s-1.16602 6.66602 -2.49902 9.99902c-4 20.667 -13.5 40.834 -28.5 60.501s-36.167 36 -63.5 49s-62 19.5 -104 19.5c-35.333 0 -67 -5.66699 -95 -17s-51.667 -28 -71 -50s-34 -49.333 -44 -82z" />
    <glyph glyph-name="ccedilla" unicode="&#xe7;" horiz-adv-x="1272" 
d="M787 -56c24 0 48.666 -4.83398 73.999 -14.501s46.833 -25.5 64.5 -47.5s26.5 -51.667 26.5 -89c0 -47.333 -15 -86 -45 -116s-68.5 -52 -115.5 -66s-95.833 -21 -146.5 -21c-44.667 0 -91.667 5.83301 -141 17.5s-84.666 24.834 -105.999 39.501l76 141
c15.333 -8.66699 41 -19.667 77 -33s71.667 -20 107 -20s64.666 5.5 87.999 16.5s35 27.5 35 49.5c0 17.333 -5.66699 29.833 -17 37.5s-24.666 11.5 -39.999 11.5s-30.5 -2.5 -45.5 -7.5s-26.167 -13.167 -33.5 -24.5l-146 39l74 143h166l-58 -107h-10
c6.66699 16 19.5 28.5 38.5 37.5s44.833 13.5 77.5 13.5zM655.999 -26.001c-127.333 0 -236.666 24.333 -327.999 73s-161.333 115.334 -210 200.001s-73 181 -73 289c0 108.667 24.333 204 73 286s118.667 146.167 210 192.5s200.666 69.5 327.999 69.5
c94 0 176.667 -13.333 248 -40s130.833 -61.834 178.5 -105.501s83.667 -91.5 108 -143.5s36.5 -103.667 36.5 -155v-4.5v-4.5h-399c0 4 -0.166992 7.66699 -0.5 11s-1.16602 6.66602 -2.49902 9.99902c-5.33301 17.333 -13.666 35.333 -24.999 54s-28.5 34.5 -51.5 47.5
s-55.167 19.5 -96.5 19.5c-40.667 0 -75.834 -9.33301 -105.501 -28s-52.5 -45.667 -68.5 -81s-24 -78 -24 -128c0 -48.667 8 -92 24 -130s38.833 -67.667 68.5 -89s64.834 -32 105.501 -32c40 0 72.167 6 96.5 18s42.666 28.5 54.999 49.5s20.166 44.833 23.499 71.5h400
c0 -50.667 -12.167 -102.5 -36.5 -155.5s-60.333 -101.667 -108 -146s-107.167 -80.166 -178.5 -107.499s-154 -41 -248 -41z" />
    <glyph glyph-name="egrave" unicode="&#xe8;" horiz-adv-x="1308" 
d="M262 421l-0.00195312 239.999h626l-30 -52v17.5v16.5c0 22.667 -6.5 46.167 -19.5 70.5s-34 44.833 -63 61.5s-67.833 25 -116.5 25c-47.333 0 -87 -10 -119 -30s-56 -49.5 -72 -88.5s-24 -86.5 -24 -142.5c0 -58.667 7.66699 -108.667 23 -150
s39.666 -72.833 72.999 -94.5s77 -32.5 131 -32.5c32 0 59.333 2.33301 82 7s40.834 10.667 54.501 18s24 15.333 31 24s11.167 17 12.5 25h398c-4.66699 -46.667 -21.5 -91.667 -50.5 -135s-68.833 -82.166 -119.5 -116.499s-111.667 -61.333 -183 -81
s-152 -29.5 -242 -29.5c-124.667 0 -232.667 23.5 -324 70.5s-161.666 112.333 -210.999 196s-74 179.834 -74 288.501c0 111.333 25.333 208.666 76 291.999s121.834 148 213.501 194s198.167 69 319.5 69c125.333 0 233.5 -23.5 324.5 -70.5s161.167 -113.667 210.5 -200
s74 -188.833 74 -307.5c0 -20 -0.333008 -37 -1 -51s-1.66699 -25.333 -3 -34h-997zM846.998 1175h-247l-281 291h291z" />
    <glyph glyph-name="eacute" unicode="&#xe9;" horiz-adv-x="1308" 
d="M262 421l-0.00195312 239.999h626l-30 -52v17.5v16.5c0 22.667 -6.5 46.167 -19.5 70.5s-34 44.833 -63 61.5s-67.833 25 -116.5 25c-47.333 0 -87 -10 -119 -30s-56 -49.5 -72 -88.5s-24 -86.5 -24 -142.5c0 -58.667 7.66699 -108.667 23 -150
s39.666 -72.833 72.999 -94.5s77 -32.5 131 -32.5c32 0 59.333 2.33301 82 7s40.834 10.667 54.501 18s24 15.333 31 24s11.167 17 12.5 25h398c-4.66699 -46.667 -21.5 -91.667 -50.5 -135s-68.833 -82.166 -119.5 -116.499s-111.667 -61.333 -183 -81
s-152 -29.5 -242 -29.5c-124.667 0 -232.667 23.5 -324 70.5s-161.666 112.333 -210.999 196s-74 179.834 -74 288.501c0 111.333 25.333 208.666 76 291.999s121.834 148 213.501 194s198.167 69 319.5 69c125.333 0 233.5 -23.5 324.5 -70.5s161.167 -113.667 210.5 -200
s74 -188.833 74 -307.5c0 -20 -0.333008 -37 -1 -51s-1.66699 -25.333 -3 -34h-997zM454.998 1184l237 291h291l-281 -291h-247z" />
    <glyph glyph-name="ecircumflex" unicode="&#xea;" horiz-adv-x="1308" 
d="M262 421l-0.00195312 239.999h626l-30 -52v17.5v16.5c0 22.667 -6.5 46.167 -19.5 70.5s-34 44.833 -63 61.5s-67.833 25 -116.5 25c-47.333 0 -87 -10 -119 -30s-56 -49.5 -72 -88.5s-24 -86.5 -24 -142.5c0 -58.667 7.66699 -108.667 23 -150
s39.666 -72.833 72.999 -94.5s77 -32.5 131 -32.5c32 0 59.333 2.33301 82 7s40.834 10.667 54.501 18s24 15.333 31 24s11.167 17 12.5 25h398c-4.66699 -46.667 -21.5 -91.667 -50.5 -135s-68.833 -82.166 -119.5 -116.499s-111.667 -61.333 -183 -81
s-152 -29.5 -242 -29.5c-124.667 0 -232.667 23.5 -324 70.5s-161.666 112.333 -210.999 196s-74 179.834 -74 288.501c0 111.333 25.333 208.666 76 291.999s121.834 148 213.501 194s198.167 69 319.5 69c125.333 0 233.5 -23.5 324.5 -70.5s161.167 -113.667 210.5 -200
s74 -188.833 74 -307.5c0 -20 -0.333008 -37 -1 -51s-1.66699 -25.333 -3 -34h-997zM268.998 1184l259 291h249l258 -291h-246l-190 219h103l-188 -219h-245z" />
    <glyph glyph-name="edieresis" unicode="&#xeb;" horiz-adv-x="1308" 
d="M262 421l-0.00195312 239.999h626l-30 -52v17.5v16.5c0 22.667 -6.5 46.167 -19.5 70.5s-34 44.833 -63 61.5s-67.833 25 -116.5 25c-47.333 0 -87 -10 -119 -30s-56 -49.5 -72 -88.5s-24 -86.5 -24 -142.5c0 -58.667 7.66699 -108.667 23 -150
s39.666 -72.833 72.999 -94.5s77 -32.5 131 -32.5c32 0 59.333 2.33301 82 7s40.834 10.667 54.501 18s24 15.333 31 24s11.167 17 12.5 25h398c-4.66699 -46.667 -21.5 -91.667 -50.5 -135s-68.833 -82.166 -119.5 -116.499s-111.667 -61.333 -183 -81
s-152 -29.5 -242 -29.5c-124.667 0 -232.667 23.5 -324 70.5s-161.666 112.333 -210.999 196s-74 179.834 -74 288.501c0 111.333 25.333 208.666 76 291.999s121.834 148 213.501 194s198.167 69 319.5 69c125.333 0 233.5 -23.5 324.5 -70.5s161.167 -113.667 210.5 -200
s74 -188.833 74 -307.5c0 -20 -0.333008 -37 -1 -51s-1.66699 -25.333 -3 -34h-997zM377.998 1178c-54 0 -101.167 13.833 -141.5 41.5s-60.5 67.5 -60.5 119.5c0 52.667 20.167 92.667 60.5 120s87.5 41 141.5 41c53.333 0 100.333 -13.667 141 -41s61 -67.333 61 -120
s-20.333 -92.667 -61 -120s-87.667 -41 -141 -41zM922.998 1178c-54 0 -101.167 13.833 -141.5 41.5s-60.5 67.5 -60.5 119.5c0 52.667 20.167 92.667 60.5 120s87.5 41 141.5 41c53.333 0 100.333 -13.667 141 -41s61 -67.333 61 -120s-20.333 -92.667 -61 -120
s-87.667 -41 -141 -41z" />
    <glyph glyph-name="igrave" unicode="&#xec;" horiz-adv-x="545" 
d="M73 0v1062h399v-1062h-399zM469 1175h-247l-281 291h291z" />
    <glyph glyph-name="iacute" unicode="&#xed;" horiz-adv-x="545" 
d="M73 0v1062h399v-1062h-399zM77 1184l237 291h291l-281 -291h-247z" />
    <glyph glyph-name="icircumflex" unicode="&#xee;" horiz-adv-x="545" 
d="M73 0v1062h399v-1062h-399zM-109 1184l259 291h249l258 -291h-246l-190 219h103l-188 -219h-245z" />
    <glyph glyph-name="idieresis" unicode="&#xef;" horiz-adv-x="545" 
d="M73 0v1062h399v-1062h-399zM52 1178c-54 0 -101.167 13.833 -141.5 41.5s-60.5 67.5 -60.5 119.5c0 52.667 20.167 92.667 60.5 120s87.5 41 141.5 41c53.333 0 100.333 -13.667 141 -41s61 -67.333 61 -120s-20.333 -92.667 -61 -120s-87.667 -41 -141 -41zM491 1178
c-54 0 -101.167 13.833 -141.5 41.5s-60.5 67.5 -60.5 119.5c0 52.667 20.167 92.667 60.5 120s87.5 41 141.5 41c53.333 0 100.333 -13.667 141 -41s61 -67.333 61 -120s-20.333 -92.667 -61 -120s-87.667 -41 -141 -41z" />
    <glyph glyph-name="eth" unicode="&#xf0;" horiz-adv-x="1353" 
d="M379 1222l390 369l215 -123l-388 -365zM879 530c0 160.667 -14.1641 292.332 -42.4971 394.999s-68.333 184.334 -120 245.001s-112.834 107.667 -183.501 141s-148.667 61 -234 83l169 182c109.333 -25.333 211.666 -63.833 306.999 -115.5s179.166 -119 251.499 -202
s128.833 -184.667 169.5 -305s61 -261.5 61 -423.5h-378zM651.003 -26.002c-120 0 -225.5 23.333 -316.5 70s-162 111.834 -213 195.501s-76.5 180.5 -76.5 290.5s25.5 206.667 76.5 290s122 148.166 213 194.499s196.5 69.5 316.5 69.5s225.5 -23.167 316.5 -69.5
s162 -111.166 213 -194.499s76.5 -180 76.5 -290s-25.5 -206.833 -76.5 -290.5s-122 -148.834 -213 -195.501s-196.5 -70 -316.5 -70zM651.003 279.998c41.333 0 77 10.333 107 31s53.167 49.667 69.5 87s24.5 81.333 24.5 132s-8.16699 94.5 -24.5 131.5
s-39.5 65.667 -69.5 86s-65.667 30.5 -107 30.5c-40.667 0 -76.167 -10.167 -106.5 -30.5s-53.666 -49 -69.999 -86s-24.5 -80.833 -24.5 -131.5s8.16699 -94.667 24.5 -132s39.666 -66.333 69.999 -87s65.833 -31 106.5 -31z" />
    <glyph glyph-name="ntilde" unicode="&#xf1;" horiz-adv-x="1332" 
d="M839 0l-0.000976562 413.003v64v55c0 36.667 -3.16699 71.667 -9.5 105s-20.666 60.666 -42.999 81.999s-57.833 32 -106.5 32c-42 0 -76 -8.66699 -102 -26s-45 -42.333 -57 -75s-18 -72 -18 -118l-78 80c0 97.333 19.667 181.166 59 251.499s93 124.666 161 162.999
s144.667 57.5 230 57.5c90.667 0 162.667 -18.5 216 -55.5s91.833 -88.167 115.5 -153.5s35.5 -140 35.5 -224v-126v-150v-375h-403zM99.999 0.00292969v1062h403v-1062h-403zM1045 1459c0 -43.333 -8.17285 -85.667 -24.5059 -127s-41 -75.5 -74 -102.5
s-74.833 -40.5 -125.5 -40.5c-39.333 0 -71.666 7.5 -96.999 22.5s-44.666 29.167 -57.999 42.5c-14.667 15.333 -28.167 27.833 -40.5 37.5s-27.166 14.5 -44.499 14.5c-20 0 -35.5 -8.5 -46.5 -25.5s-16.5 -41.833 -16.5 -74.5h-196c0 43.333 8.33301 85.833 25 127.5
s42 76.167 76 103.5s77.333 41 130 41c34.667 0 64.834 -7.66699 90.501 -23s45.834 -30 60.501 -44s29.334 -25.833 44.001 -35.5s29.667 -14.5 45 -14.5c16.667 0 30.167 8.16699 40.5 24.5s15.5 40.833 15.5 73.5h196z" />
    <glyph glyph-name="ograve" unicode="&#xf2;" horiz-adv-x="1302" 
d="M651 -25c-120 0 -225.5 23.333 -316.5 70s-162 111.667 -213 195s-76.5 180 -76.5 290s25.5 206.667 76.5 290s122 148.166 213 194.499s196.5 69.5 316.5 69.5s225.5 -23.167 316.5 -69.5s162 -111.166 213 -194.499s76.5 -180 76.5 -290s-25.5 -206.667 -76.5 -290
s-122 -148.333 -213 -195s-196.5 -70 -316.5 -70zM651 280c41.333 0 76.666 10.333 105.999 31s51.833 49.667 67.5 87s23.5 81.333 23.5 132s-7.83301 94.5 -23.5 131.5s-38.167 65.667 -67.5 86s-64.666 30.5 -105.999 30.5c-40.667 0 -75.834 -10.167 -105.501 -30.5
s-52.334 -49 -68.001 -86s-23.5 -80.833 -23.5 -131.5s7.83301 -94.667 23.5 -132s38.334 -66.333 68.001 -87s64.834 -31 105.501 -31zM846 1175h-247l-281 291h291z" />
    <glyph glyph-name="oacute" unicode="&#xf3;" horiz-adv-x="1302" 
d="M651 -25c-120 0 -225.5 23.333 -316.5 70s-162 111.667 -213 195s-76.5 180 -76.5 290s25.5 206.667 76.5 290s122 148.166 213 194.499s196.5 69.5 316.5 69.5s225.5 -23.167 316.5 -69.5s162 -111.166 213 -194.499s76.5 -180 76.5 -290s-25.5 -206.667 -76.5 -290
s-122 -148.333 -213 -195s-196.5 -70 -316.5 -70zM651 280c41.333 0 76.666 10.333 105.999 31s51.833 49.667 67.5 87s23.5 81.333 23.5 132s-7.83301 94.5 -23.5 131.5s-38.167 65.667 -67.5 86s-64.666 30.5 -105.999 30.5c-40.667 0 -75.834 -10.167 -105.501 -30.5
s-52.334 -49 -68.001 -86s-23.5 -80.833 -23.5 -131.5s7.83301 -94.667 23.5 -132s38.334 -66.333 68.001 -87s64.834 -31 105.501 -31zM454 1184l237 291h291l-281 -291h-247z" />
    <glyph glyph-name="ocircumflex" unicode="&#xf4;" horiz-adv-x="1302" 
d="M651 -25c-120 0 -225.5 23.333 -316.5 70s-162 111.667 -213 195s-76.5 180 -76.5 290s25.5 206.667 76.5 290s122 148.166 213 194.499s196.5 69.5 316.5 69.5s225.5 -23.167 316.5 -69.5s162 -111.166 213 -194.499s76.5 -180 76.5 -290s-25.5 -206.667 -76.5 -290
s-122 -148.333 -213 -195s-196.5 -70 -316.5 -70zM651 280c41.333 0 76.666 10.333 105.999 31s51.833 49.667 67.5 87s23.5 81.333 23.5 132s-7.83301 94.5 -23.5 131.5s-38.167 65.667 -67.5 86s-64.666 30.5 -105.999 30.5c-40.667 0 -75.834 -10.167 -105.501 -30.5
s-52.334 -49 -68.001 -86s-23.5 -80.833 -23.5 -131.5s7.83301 -94.667 23.5 -132s38.334 -66.333 68.001 -87s64.834 -31 105.501 -31zM268 1184l259 291h249l258 -291h-246l-190 219h103l-188 -219h-245z" />
    <glyph glyph-name="otilde" unicode="&#xf5;" horiz-adv-x="1302" 
d="M651 -25c-120 0 -225.5 23.333 -316.5 70s-162 111.667 -213 195s-76.5 180 -76.5 290s25.5 206.667 76.5 290s122 148.166 213 194.499s196.5 69.5 316.5 69.5s225.5 -23.167 316.5 -69.5s162 -111.166 213 -194.499s76.5 -180 76.5 -290s-25.5 -206.667 -76.5 -290
s-122 -148.333 -213 -195s-196.5 -70 -316.5 -70zM651 280c41.333 0 76.666 10.333 105.999 31s51.833 49.667 67.5 87s23.5 81.333 23.5 132s-7.83301 94.5 -23.5 131.5s-38.167 65.667 -67.5 86s-64.666 30.5 -105.999 30.5c-40.667 0 -75.834 -10.167 -105.501 -30.5
s-52.334 -49 -68.001 -86s-23.5 -80.833 -23.5 -131.5s7.83301 -94.667 23.5 -132s38.334 -66.333 68.001 -87s64.834 -31 105.501 -31zM1012 1459c0 -43.333 -8.17285 -85.667 -24.5059 -127s-41 -75.5 -74 -102.5s-74.833 -40.5 -125.5 -40.5
c-39.333 0 -71.666 7.5 -96.999 22.5s-44.666 29.167 -57.999 42.5c-14.667 15.333 -28.167 27.833 -40.5 37.5s-27.166 14.5 -44.499 14.5c-20 0 -35.5 -8.5 -46.5 -25.5s-16.5 -41.833 -16.5 -74.5h-196c0 43.333 8.33301 85.833 25 127.5s42 76.167 76 103.5
s77.333 41 130 41c34.667 0 64.834 -7.66699 90.501 -23s45.834 -30 60.501 -44s29.334 -25.833 44.001 -35.5s29.667 -14.5 45 -14.5c16.667 0 30.167 8.16699 40.5 24.5s15.5 40.833 15.5 73.5h196z" />
    <glyph glyph-name="odieresis" unicode="&#xf6;" horiz-adv-x="1302" 
d="M651 -25c-120 0 -225.5 23.333 -316.5 70s-162 111.667 -213 195s-76.5 180 -76.5 290s25.5 206.667 76.5 290s122 148.166 213 194.499s196.5 69.5 316.5 69.5s225.5 -23.167 316.5 -69.5s162 -111.166 213 -194.499s76.5 -180 76.5 -290s-25.5 -206.667 -76.5 -290
s-122 -148.333 -213 -195s-196.5 -70 -316.5 -70zM651 280c41.333 0 76.666 10.333 105.999 31s51.833 49.667 67.5 87s23.5 81.333 23.5 132s-7.83301 94.5 -23.5 131.5s-38.167 65.667 -67.5 86s-64.666 30.5 -105.999 30.5c-40.667 0 -75.834 -10.167 -105.501 -30.5
s-52.334 -49 -68.001 -86s-23.5 -80.833 -23.5 -131.5s7.83301 -94.667 23.5 -132s38.334 -66.333 68.001 -87s64.834 -31 105.501 -31zM377 1178c-54 0 -101.167 13.833 -141.5 41.5s-60.5 67.5 -60.5 119.5c0 52.667 20.167 92.667 60.5 120s87.5 41 141.5 41
c53.333 0 100.333 -13.667 141 -41s61 -67.333 61 -120s-20.333 -92.667 -61 -120s-87.667 -41 -141 -41zM922 1178c-54 0 -101.167 13.833 -141.5 41.5s-60.5 67.5 -60.5 119.5c0 52.667 20.167 92.667 60.5 120s87.5 41 141.5 41c53.333 0 100.333 -13.667 141 -41
s61 -67.333 61 -120s-20.333 -92.667 -61 -120s-87.667 -41 -141 -41z" />
    <glyph glyph-name="divide" unicode="&#xf7;" horiz-adv-x="1350" 
d="M298 398v247h751v-247h-751zM669 726c-42.667 0 -78 13.667 -106 41s-42 61.666 -42 102.999s14 75.666 42 102.999s63.333 41 106 41c42 0 77 -13.667 105 -41s42 -61.666 42 -102.999s-14 -75.666 -42 -102.999s-63 -41 -105 -41zM669 30c-42.667 0 -78 13.667 -106 41
s-42 61.666 -42 102.999s14 75.666 42 102.999s63.333 41 106 41c42 0 77 -13.667 105 -41s42 -61.666 42 -102.999s-14 -75.666 -42 -102.999s-63 -41 -105 -41z" />
    <glyph glyph-name="oslash" unicode="&#xf8;" horiz-adv-x="1302" 
d="M1144 1031l-858 -1098l-129 98l857 1098zM651 -25c-120 0 -225.5 23.333 -316.5 70s-162 111.667 -213 195s-76.5 180 -76.5 290s25.5 206.667 76.5 290s122 148.166 213 194.499s196.5 69.5 316.5 69.5s225.5 -23.167 316.5 -69.5s162 -111.166 213 -194.499
s76.5 -180 76.5 -290s-25.5 -206.667 -76.5 -290s-122 -148.333 -213 -195s-196.5 -70 -316.5 -70zM651 280c41.333 0 76.666 10.333 105.999 31s51.833 49.667 67.5 87s23.5 81.333 23.5 132s-7.83301 94.5 -23.5 131.5s-38.167 65.667 -67.5 86
s-64.666 30.5 -105.999 30.5c-40.667 0 -75.834 -10.167 -105.501 -30.5s-52.334 -49 -68.001 -86s-23.5 -80.833 -23.5 -131.5s7.83301 -94.667 23.5 -132s38.334 -66.333 68.001 -87s64.834 -31 105.501 -31z" />
    <glyph glyph-name="ugrave" unicode="&#xf9;" horiz-adv-x="1312" 
d="M467 -21c-74.667 0 -135.831 11.665 -183.498 34.998s-84.834 55.333 -111.501 96s-45.334 86.834 -56.001 138.501s-16 105.834 -16 162.501v74.5v81.5v495h403v-427v-62v-53c0 -38 3.16699 -72.833 9.5 -104.5s19.5 -57 39.5 -76s50 -28.5 90 -28.5s73 10.833 99 32.5
s45.5 50 58.5 85s19.5 72.167 19.5 111.5l78 -90c0 -72.667 -9.83301 -138 -29.5 -196s-48 -107.5 -85 -148.5s-82 -72.333 -135 -94s-113.167 -32.5 -180.5 -32.5zM819.003 -0.00195312v1062h403v-1062h-403zM851.003 1175h-247l-281 291h291z" />
    <glyph glyph-name="uacute" unicode="&#xfa;" horiz-adv-x="1312" 
d="M467 -21c-74.667 0 -135.831 11.665 -183.498 34.998s-84.834 55.333 -111.501 96s-45.334 86.834 -56.001 138.501s-16 105.834 -16 162.501v74.5v81.5v495h403v-427v-62v-53c0 -38 3.16699 -72.833 9.5 -104.5s19.5 -57 39.5 -76s50 -28.5 90 -28.5s73 10.833 99 32.5
s45.5 50 58.5 85s19.5 72.167 19.5 111.5l78 -90c0 -72.667 -9.83301 -138 -29.5 -196s-48 -107.5 -85 -148.5s-82 -72.333 -135 -94s-113.167 -32.5 -180.5 -32.5zM819.003 -0.00195312v1062h403v-1062h-403zM459.003 1184l237 291h291l-281 -291h-247z" />
    <glyph glyph-name="ucircumflex" unicode="&#xfb;" horiz-adv-x="1312" 
d="M467 -21c-74.667 0 -135.831 11.665 -183.498 34.998s-84.834 55.333 -111.501 96s-45.334 86.834 -56.001 138.501s-16 105.834 -16 162.501v74.5v81.5v495h403v-427v-62v-53c0 -38 3.16699 -72.833 9.5 -104.5s19.5 -57 39.5 -76s50 -28.5 90 -28.5s73 10.833 99 32.5
s45.5 50 58.5 85s19.5 72.167 19.5 111.5l78 -90c0 -72.667 -9.83301 -138 -29.5 -196s-48 -107.5 -85 -148.5s-82 -72.333 -135 -94s-113.167 -32.5 -180.5 -32.5zM819.003 -0.00195312v1062h403v-1062h-403zM273.003 1184l259 291h249l258 -291h-246l-190 219h103
l-188 -219h-245z" />
    <glyph glyph-name="udieresis" unicode="&#xfc;" horiz-adv-x="1312" 
d="M467 -21c-74.667 0 -135.831 11.665 -183.498 34.998s-84.834 55.333 -111.501 96s-45.334 86.834 -56.001 138.501s-16 105.834 -16 162.501v74.5v81.5v495h403v-427v-62v-53c0 -38 3.16699 -72.833 9.5 -104.5s19.5 -57 39.5 -76s50 -28.5 90 -28.5s73 10.833 99 32.5
s45.5 50 58.5 85s19.5 72.167 19.5 111.5l78 -90c0 -72.667 -9.83301 -138 -29.5 -196s-48 -107.5 -85 -148.5s-82 -72.333 -135 -94s-113.167 -32.5 -180.5 -32.5zM819.003 -0.00195312v1062h403v-1062h-403zM382.003 1178c-54 0 -101.167 13.833 -141.5 41.5
s-60.5 67.5 -60.5 119.5c0 52.667 20.167 92.667 60.5 120s87.5 41 141.5 41c53.333 0 100.333 -13.667 141 -41s61 -67.333 61 -120s-20.333 -92.667 -61 -120s-87.667 -41 -141 -41zM927.003 1178c-54 0 -101.167 13.833 -141.5 41.5s-60.5 67.5 -60.5 119.5
c0 52.667 20.167 92.667 60.5 120s87.5 41 141.5 41c53.333 0 100.333 -13.667 141 -41s61 -67.333 61 -120s-20.333 -92.667 -61 -120s-87.667 -41 -141 -41z" />
    <glyph glyph-name="yacute" unicode="&#xfd;" horiz-adv-x="1178" 
d="M225 -467c-38 0 -71.5 1.16602 -100.5 3.49902s-47.167 4.83301 -54.5 7.5v292c8.66699 -4 24.334 -7 47.001 -9s47.667 -3 75 -3c26.667 0 52 5 76 15s45.167 24.5 63.5 43.5s32.166 42.5 41.499 70.5l9 27l-366 1082h420l188 -842h-44l179 842h414l-348 -1089
c-31.333 -97.333 -70 -178.666 -116 -243.999s-107.167 -114.333 -183.5 -147s-176.5 -49 -300.5 -49zM399 1184l237 291h291l-281 -291h-247z" />
    <glyph glyph-name="thorn" unicode="&#xfe;" horiz-adv-x="1365" 
d="M818 -25c-84.667 0 -161.501 23.667 -230.501 71s-123.833 111.166 -164.5 191.499s-61 169.5 -61 267.5v10v10l142 3v-6.5v-6.5c0 -44 9.83301 -81 29.5 -111s44.667 -52.5 75 -67.5s61.5 -22.5 93.5 -22.5c50.667 0 97 17.667 139 53s63 92.333 63 171
s-20.833 134.834 -62.5 168.501s-88.167 50.5 -139.5 50.5c-31.333 0 -62.166 -7.16699 -92.499 -21.5s-55.5 -35.833 -75.5 -64.5s-30 -65.334 -30 -110.001l-142 10c0 98.667 20.333 186.5 61 263.5s95.5 137.667 164.5 182s145.833 66.5 230.5 66.5
c86 0 167.167 -21 243.5 -63s138.5 -103.5 186.5 -184.5s72 -180.167 72 -297.5c0 -124 -23.333 -227.667 -70 -311s-108 -146.166 -184 -188.499s-158.667 -63.5 -248 -63.5zM99.999 -437v2000h404v-2000h-404z" />
    <glyph glyph-name="ydieresis" unicode="&#xff;" horiz-adv-x="1178" 
d="M225 -467c-38 0 -71.5 1.16602 -100.5 3.49902s-47.167 4.83301 -54.5 7.5v292c8.66699 -4 24.334 -7 47.001 -9s47.667 -3 75 -3c26.667 0 52 5 76 15s45.167 24.5 63.5 43.5s32.166 42.5 41.499 70.5l9 27l-366 1082h420l188 -842h-44l179 842h414l-348 -1089
c-31.333 -97.333 -70 -178.666 -116 -243.999s-107.167 -114.333 -183.5 -147s-176.5 -49 -300.5 -49zM322 1178c-54 0 -101.167 13.833 -141.5 41.5s-60.5 67.5 -60.5 119.5c0 52.667 20.167 92.667 60.5 120s87.5 41 141.5 41c53.333 0 100.333 -13.667 141 -41
s61 -67.333 61 -120s-20.333 -92.667 -61 -120s-87.667 -41 -141 -41zM867 1178c-54 0 -101.167 13.833 -141.5 41.5s-60.5 67.5 -60.5 119.5c0 52.667 20.167 92.667 60.5 120s87.5 41 141.5 41c53.333 0 100.333 -13.667 141 -41s61 -67.333 61 -120
s-20.333 -92.667 -61 -120s-87.667 -41 -141 -41z" />
    <glyph glyph-name="Amacron" unicode="&#x100;" horiz-adv-x="1405" 
d="M40 0l343 1475h641l341 -1475h-413l-249 1234h2l-252 -1234h-413zM340 310v303h728v-303h-728zM357 1609v163h693v-163h-693z" />
    <glyph glyph-name="amacron" unicode="&#x101;" horiz-adv-x="1281" 
d="M453 -24c-76 0 -143.998 12.166 -203.998 36.499s-107.333 59.666 -142 105.999s-52 102.833 -52 169.5c0 78.667 22.5 142 67.5 190s102.667 84.333 173 109s143.166 40.334 218.499 47.001c107.333 10 179.666 18.667 216.999 26s56 20.333 56 39v0.5v0.5
c0 24.667 -14.833 45.834 -44.5 63.501s-69.167 26.5 -118.5 26.5c-53.333 0 -93 -9.83301 -119 -29.5s-39 -48.167 -39 -85.5h-397c0 89.333 25 164.333 75 225s117.167 106.5 201.5 137.5s178.166 46.5 281.499 46.5c98 0 189.833 -14.667 275.5 -44
s155.167 -74.166 208.5 -134.499s80 -137.5 80 -231.5v-42v-42v-329c0 -29.333 0.666992 -57.666 2 -84.999s5.33301 -52.666 12 -75.999c7.33301 -24.667 17 -45.834 29 -63.501s21.667 -29.834 29 -36.501h-394c-6 6 -14.667 17 -26 33s-20.666 34.333 -27.999 55
c-10 30 -17.167 58.167 -21.5 84.5s-6.5 58.5 -6.5 96.5l88 -61c-18 -48.667 -48.5 -90.334 -91.5 -125.001s-93.333 -61.167 -151 -79.5s-117.5 -27.5 -179.5 -27.5zM573.002 261.999c34.667 0 68.832 7.66602 102.499 22.999s61.834 40.833 84.501 76.5
s34 84.167 34 145.5v38l103 -83c-44 -15.333 -93 -28.166 -147 -38.499s-105.667 -18.166 -155 -23.499c-46 -4.66699 -80.167 -12.167 -102.5 -22.5s-33.5 -26.833 -33.5 -49.5s10 -39.334 30 -50.001s48 -16 84 -16zM300 1266v163h693v-163h-693z" />
    <glyph glyph-name="Abreve" unicode="&#x102;" horiz-adv-x="1405" 
d="M40 0l343 1475h641l341 -1475h-413l-249 1234h2l-252 -1234h-413zM340 310v303h728v-303h-728zM381 1772h231c0 -24.667 7.83301 -45.334 23.5 -62.001s38.5 -25 68.5 -25c30.667 0 53.667 8.33301 69 25s23 37.334 23 62.001h231c0 -72 -30.5 -129.333 -91.5 -172
s-138.167 -64 -231.5 -64s-170.5 21.333 -231.5 64s-91.5 100 -91.5 172z" />
    <glyph glyph-name="abreve" unicode="&#x103;" horiz-adv-x="1281" 
d="M453 -24c-76 0 -143.998 12.166 -203.998 36.499s-107.333 59.666 -142 105.999s-52 102.833 -52 169.5c0 78.667 22.5 142 67.5 190s102.667 84.333 173 109s143.166 40.334 218.499 47.001c107.333 10 179.666 18.667 216.999 26s56 20.333 56 39v0.5v0.5
c0 24.667 -14.833 45.834 -44.5 63.501s-69.167 26.5 -118.5 26.5c-53.333 0 -93 -9.83301 -119 -29.5s-39 -48.167 -39 -85.5h-397c0 89.333 25 164.333 75 225s117.167 106.5 201.5 137.5s178.166 46.5 281.499 46.5c98 0 189.833 -14.667 275.5 -44
s155.167 -74.166 208.5 -134.499s80 -137.5 80 -231.5v-42v-42v-329c0 -29.333 0.666992 -57.666 2 -84.999s5.33301 -52.666 12 -75.999c7.33301 -24.667 17 -45.834 29 -63.501s21.667 -29.834 29 -36.501h-394c-6 6 -14.667 17 -26 33s-20.666 34.333 -27.999 55
c-10 30 -17.167 58.167 -21.5 84.5s-6.5 58.5 -6.5 96.5l88 -61c-18 -48.667 -48.5 -90.334 -91.5 -125.001s-93.333 -61.167 -151 -79.5s-117.5 -27.5 -179.5 -27.5zM573.002 261.999c34.667 0 68.832 7.66602 102.499 22.999s61.834 40.833 84.501 76.5
s34 84.167 34 145.5v38l103 -83c-44 -15.333 -93 -28.166 -147 -38.499s-105.667 -18.166 -155 -23.499c-46 -4.66699 -80.167 -12.167 -102.5 -22.5s-33.5 -26.833 -33.5 -49.5s10 -39.334 30 -50.001s48 -16 84 -16zM324 1495h231c0 -39.333 7.83301 -72 23.5 -98
s38.5 -39 68.5 -39c30.667 0 53.667 13 69 39s23 58.667 23 98h231c0 -92 -30.5 -162.667 -91.5 -212s-138.167 -74 -231.5 -74s-170.5 24.667 -231.5 74s-91.5 120 -91.5 212z" />
    <glyph glyph-name="Aogonek" unicode="&#x104;" horiz-adv-x="1405" 
d="M40 0l343 1475h641l341 -1475h-413l-249 1234h2l-252 -1234h-413zM340 310v303h728v-303h-728zM1365 -270l0.000976562 -186.999c-14 -1.33301 -28.833 -2.5 -44.5 -3.5s-32.167 -1.5 -49.5 -1.5c-50.667 0 -99 5.33301 -145 16s-83.667 28.834 -113 54.501
s-44 60.167 -44 103.5c0 44.667 13.167 86.5 39.5 125.5s56.166 72.667 89.499 101s59.666 48.833 78.999 61.5h188c-16.667 -13.333 -38 -33.666 -64 -60.999s-49.333 -55.833 -70 -85.5s-31 -54.834 -31 -75.501c0 -22.667 9.5 -37.334 28.5 -44.001s40.5 -10 64.5 -10
c12 0 24.333 0.666992 37 2s24.334 2.66602 35.001 3.99902z" />
    <glyph glyph-name="aogonek" unicode="&#x105;" horiz-adv-x="1281" 
d="M453 -24c-76 0 -143.998 12.166 -203.998 36.499s-107.333 59.666 -142 105.999s-52 102.833 -52 169.5c0 78.667 22.5 142 67.5 190s102.667 84.333 173 109s143.166 40.334 218.499 47.001c107.333 10 179.666 18.667 216.999 26s56 20.333 56 39v0.5v0.5
c0 24.667 -14.833 45.834 -44.5 63.501s-69.167 26.5 -118.5 26.5c-53.333 0 -93 -9.83301 -119 -29.5s-39 -48.167 -39 -85.5h-397c0 89.333 25 164.333 75 225s117.167 106.5 201.5 137.5s178.166 46.5 281.499 46.5c98 0 189.833 -14.667 275.5 -44
s155.167 -74.166 208.5 -134.499s80 -137.5 80 -231.5v-42v-42v-329c0 -29.333 0.666992 -57.666 2 -84.999s5.33301 -52.666 12 -75.999c7.33301 -24.667 17 -45.834 29 -63.501s21.667 -29.834 29 -36.501h-394c-6 6 -14.667 17 -26 33s-20.666 34.333 -27.999 55
c-10 30 -17.167 58.167 -21.5 84.5s-6.5 58.5 -6.5 96.5l88 -61c-18 -48.667 -48.5 -90.334 -91.5 -125.001s-93.333 -61.167 -151 -79.5s-117.5 -27.5 -179.5 -27.5zM573.002 261.999c34.667 0 68.832 7.66602 102.499 22.999s61.834 40.833 84.501 76.5
s34 84.167 34 145.5v38l103 -83c-44 -15.333 -93 -28.166 -147 -38.499s-105.667 -18.166 -155 -23.499c-46 -4.66699 -80.167 -12.167 -102.5 -22.5s-33.5 -26.833 -33.5 -49.5s10 -39.334 30 -50.001s48 -16 84 -16zM1263 -270.002v-186.998
c-14 -1.33301 -28.833 -2.5 -44.5 -3.5s-32.167 -1.5 -49.5 -1.5c-50.667 0 -97.334 6.16699 -140.001 18.5s-77 32.166 -103 59.499s-39 62.666 -39 105.999c0 38 11.5 75.833 34.5 113.5s49.5 71.334 79.5 101.001s54.667 50.834 74 63.501h188
c-16.667 -13.333 -38 -33.666 -64 -60.999s-49.333 -55.833 -70 -85.5s-31 -54.834 -31 -75.501c0 -22.667 9.5 -37.334 28.5 -44.001s40.5 -10 64.5 -10c12 0 24.333 0.666992 37 2s24.334 2.66602 35.001 3.99902z" />
    <glyph glyph-name="Cacute" unicode="&#x106;" horiz-adv-x="1469" 
d="M1399 557c0 -67.333 -12.835 -135.169 -38.502 -203.502s-64.667 -131.166 -117 -188.499s-118.666 -103.5 -198.999 -138.5s-175.5 -52.5 -285.5 -52.5c-144.667 0 -268.5 32.5 -371.5 97.5s-181.667 154.833 -236 269.5s-81.5 247 -81.5 397s27.167 282.167 81.5 396.5
s133 203.833 236 268.5s226.833 97 371.5 97c120 0 222.5 -20.333 307.5 -61s153.333 -94 205 -160s87.5 -136.667 107.5 -212c13.333 -51.333 20 -101 20 -149h-405c0 21.333 -1.33301 40 -4 56c-6 43.333 -19 81 -39 113s-46.167 56.833 -78.5 74.5
s-70.166 26.5 -113.499 26.5c-52 0 -99 -15.333 -141 -46s-75.5 -79 -100.5 -145s-37.5 -152.333 -37.5 -259c0 -106 12.5 -192.333 37.5 -259s58.5 -115.667 100.5 -147s89 -47 141 -47c37.333 0 70.5 6.83301 99.5 20.5s53.5 32.834 73.5 57.501s35.333 53.5 46 86.5
s16 68.833 16 107.5h405zM551.998 1563l267 224h301l-311 -224h-257z" />
    <glyph glyph-name="cacute" unicode="&#x107;" horiz-adv-x="1272" 
d="M656 -26c-127.333 0 -236.666 24.333 -327.999 73s-161.333 115.334 -210 200.001s-73 181 -73 289c0 108.667 24.333 204 73 286s118.667 146.167 210 192.5s200.666 69.5 327.999 69.5c94 0 176.667 -13.333 248 -40s130.833 -61.834 178.5 -105.501
s83.667 -91.5 108 -143.5s36.5 -103.667 36.5 -155v-4.5v-4.5h-399c0 4 -0.166992 7.66699 -0.5 11s-1.16602 6.66602 -2.49902 9.99902c-5.33301 17.333 -13.666 35.333 -24.999 54s-28.5 34.5 -51.5 47.5s-55.167 19.5 -96.5 19.5
c-40.667 0 -75.834 -9.33301 -105.501 -28s-52.5 -45.667 -68.5 -81s-24 -78 -24 -128c0 -48.667 8 -92 24 -130s38.833 -67.667 68.5 -89s64.834 -32 105.501 -32c40 0 72.167 6 96.5 18s42.666 28.5 54.999 49.5s20.166 44.833 23.499 71.5h400
c0 -50.667 -12.167 -102.5 -36.5 -155.5s-60.333 -101.667 -108 -146s-107.167 -80.166 -178.5 -107.499s-154 -41 -248 -41zM440 1184l237 291h291l-281 -291h-247z" />
    <glyph glyph-name="Ccircumflex" unicode="&#x108;" horiz-adv-x="1469" 
d="M1399 557c0 -67.333 -12.835 -135.169 -38.502 -203.502s-64.667 -131.166 -117 -188.499s-118.666 -103.5 -198.999 -138.5s-175.5 -52.5 -285.5 -52.5c-144.667 0 -268.5 32.5 -371.5 97.5s-181.667 154.833 -236 269.5s-81.5 247 -81.5 397s27.167 282.167 81.5 396.5
s133 203.833 236 268.5s226.833 97 371.5 97c120 0 222.5 -20.333 307.5 -61s153.333 -94 205 -160s87.5 -136.667 107.5 -212c13.333 -51.333 20 -101 20 -149h-405c0 21.333 -1.33301 40 -4 56c-6 43.333 -19 81 -39 113s-46.167 56.833 -78.5 74.5
s-70.166 26.5 -113.499 26.5c-52 0 -99 -15.333 -141 -46s-75.5 -79 -100.5 -145s-37.5 -152.333 -37.5 -259c0 -106 12.5 -192.333 37.5 -259s58.5 -115.667 100.5 -147s89 -47 141 -47c37.333 0 70.5 6.83301 99.5 20.5s53.5 32.834 73.5 57.501s35.333 53.5 46 86.5
s16 68.833 16 107.5h405zM365.998 1562l259 225h249l258 -225h-246l-190 169h103l-188 -169h-245z" />
    <glyph glyph-name="ccircumflex" unicode="&#x109;" horiz-adv-x="1272" 
d="M656 -26c-127.333 0 -236.666 24.333 -327.999 73s-161.333 115.334 -210 200.001s-73 181 -73 289c0 108.667 24.333 204 73 286s118.667 146.167 210 192.5s200.666 69.5 327.999 69.5c94 0 176.667 -13.333 248 -40s130.833 -61.834 178.5 -105.501
s83.667 -91.5 108 -143.5s36.5 -103.667 36.5 -155v-4.5v-4.5h-399c0 4 -0.166992 7.66699 -0.5 11s-1.16602 6.66602 -2.49902 9.99902c-5.33301 17.333 -13.666 35.333 -24.999 54s-28.5 34.5 -51.5 47.5s-55.167 19.5 -96.5 19.5
c-40.667 0 -75.834 -9.33301 -105.501 -28s-52.5 -45.667 -68.5 -81s-24 -78 -24 -128c0 -48.667 8 -92 24 -130s38.833 -67.667 68.5 -89s64.834 -32 105.501 -32c40 0 72.167 6 96.5 18s42.666 28.5 54.999 49.5s20.166 44.833 23.499 71.5h400
c0 -50.667 -12.167 -102.5 -36.5 -155.5s-60.333 -101.667 -108 -146s-107.167 -80.166 -178.5 -107.499s-154 -41 -248 -41zM254 1184l259 291h249l258 -291h-246l-190 219h103l-188 -219h-245z" />
    <glyph glyph-name="Cdotaccent" unicode="&#x10a;" horiz-adv-x="1469" 
d="M1399 557c0 -67.333 -12.835 -135.169 -38.502 -203.502s-64.667 -131.166 -117 -188.499s-118.666 -103.5 -198.999 -138.5s-175.5 -52.5 -285.5 -52.5c-144.667 0 -268.5 32.5 -371.5 97.5s-181.667 154.833 -236 269.5s-81.5 247 -81.5 397s27.167 282.167 81.5 396.5
s133 203.833 236 268.5s226.833 97 371.5 97c120 0 222.5 -20.333 307.5 -61s153.333 -94 205 -160s87.5 -136.667 107.5 -212c13.333 -51.333 20 -101 20 -149h-405c0 21.333 -1.33301 40 -4 56c-6 43.333 -19 81 -39 113s-46.167 56.833 -78.5 74.5
s-70.166 26.5 -113.499 26.5c-52 0 -99 -15.333 -141 -46s-75.5 -79 -100.5 -145s-37.5 -152.333 -37.5 -259c0 -106 12.5 -192.333 37.5 -259s58.5 -115.667 100.5 -147s89 -47 141 -47c37.333 0 70.5 6.83301 99.5 20.5s53.5 32.834 73.5 57.501s35.333 53.5 46 86.5
s16 68.833 16 107.5h405zM751.998 1557c-59.333 0 -111.166 15.3311 -155.499 45.998s-66.5 74.334 -66.5 131.001c0 57.333 22.167 101.166 66.5 131.499s96.166 45.5 155.499 45.5s111.166 -15.167 155.499 -45.5s66.5 -74.166 66.5 -131.499
s-22.167 -101.166 -66.5 -131.499s-96.166 -45.5 -155.499 -45.5z" />
    <glyph glyph-name="cdotaccent" unicode="&#x10b;" horiz-adv-x="1272" 
d="M656 -26c-127.333 0 -236.666 24.333 -327.999 73s-161.333 115.334 -210 200.001s-73 181 -73 289c0 108.667 24.333 204 73 286s118.667 146.167 210 192.5s200.666 69.5 327.999 69.5c94 0 176.667 -13.333 248 -40s130.833 -61.834 178.5 -105.501
s83.667 -91.5 108 -143.5s36.5 -103.667 36.5 -155v-4.5v-4.5h-399c0 4 -0.166992 7.66699 -0.5 11s-1.16602 6.66602 -2.49902 9.99902c-5.33301 17.333 -13.666 35.333 -24.999 54s-28.5 34.5 -51.5 47.5s-55.167 19.5 -96.5 19.5
c-40.667 0 -75.834 -9.33301 -105.501 -28s-52.5 -45.667 -68.5 -81s-24 -78 -24 -128c0 -48.667 8 -92 24 -130s38.833 -67.667 68.5 -89s64.834 -32 105.501 -32c40 0 72.167 6 96.5 18s42.666 28.5 54.999 49.5s20.166 44.833 23.499 71.5h400
c0 -50.667 -12.167 -102.5 -36.5 -155.5s-60.333 -101.667 -108 -146s-107.167 -80.166 -178.5 -107.499s-154 -41 -248 -41zM636 1187c-59.333 0 -111.166 15.3311 -155.499 45.998s-66.5 74.334 -66.5 131.001c0 57.333 22.167 101.166 66.5 131.499
s96.166 45.5 155.499 45.5s111.166 -15.167 155.499 -45.5s66.5 -74.166 66.5 -131.499s-22.167 -101.166 -66.5 -131.499s-96.166 -45.5 -155.499 -45.5z" />
    <glyph glyph-name="Ccaron" unicode="&#x10c;" horiz-adv-x="1469" 
d="M1399 557c0 -67.333 -12.835 -135.169 -38.502 -203.502s-64.667 -131.166 -117 -188.499s-118.666 -103.5 -198.999 -138.5s-175.5 -52.5 -285.5 -52.5c-144.667 0 -268.5 32.5 -371.5 97.5s-181.667 154.833 -236 269.5s-81.5 247 -81.5 397s27.167 282.167 81.5 396.5
s133 203.833 236 268.5s226.833 97 371.5 97c120 0 222.5 -20.333 307.5 -61s153.333 -94 205 -160s87.5 -136.667 107.5 -212c13.333 -51.333 20 -101 20 -149h-405c0 21.333 -1.33301 40 -4 56c-6 43.333 -19 81 -39 113s-46.167 56.833 -78.5 74.5
s-70.166 26.5 -113.499 26.5c-52 0 -99 -15.333 -141 -46s-75.5 -79 -100.5 -145s-37.5 -152.333 -37.5 -259c0 -106 12.5 -192.333 37.5 -259s58.5 -115.667 100.5 -147s89 -47 141 -47c37.333 0 70.5 6.83301 99.5 20.5s53.5 32.834 73.5 57.501s35.333 53.5 46 86.5
s16 68.833 16 107.5h405zM365.998 1787h245l188 -169h-103l190 169h246l-258 -225h-249z" />
    <glyph glyph-name="ccaron" unicode="&#x10d;" horiz-adv-x="1272" 
d="M656 -26c-127.333 0 -236.666 24.333 -327.999 73s-161.333 115.334 -210 200.001s-73 181 -73 289c0 108.667 24.333 204 73 286s118.667 146.167 210 192.5s200.666 69.5 327.999 69.5c94 0 176.667 -13.333 248 -40s130.833 -61.834 178.5 -105.501
s83.667 -91.5 108 -143.5s36.5 -103.667 36.5 -155v-4.5v-4.5h-399c0 4 -0.166992 7.66699 -0.5 11s-1.16602 6.66602 -2.49902 9.99902c-5.33301 17.333 -13.666 35.333 -24.999 54s-28.5 34.5 -51.5 47.5s-55.167 19.5 -96.5 19.5
c-40.667 0 -75.834 -9.33301 -105.501 -28s-52.5 -45.667 -68.5 -81s-24 -78 -24 -128c0 -48.667 8 -92 24 -130s38.833 -67.667 68.5 -89s64.834 -32 105.501 -32c40 0 72.167 6 96.5 18s42.666 28.5 54.999 49.5s20.166 44.833 23.499 71.5h400
c0 -50.667 -12.167 -102.5 -36.5 -155.5s-60.333 -101.667 -108 -146s-107.167 -80.166 -178.5 -107.499s-154 -41 -248 -41zM254 1475h245l188 -219h-103l190 219h246l-258 -291h-249z" />
    <glyph glyph-name="Dcaron" unicode="&#x10e;" horiz-adv-x="1403" 
d="M110 0v1475h548c99.333 0 190.333 -18.333 273 -55s154 -88 214 -154s106.333 -143.667 139 -233s49 -186.666 49 -291.999s-16.333 -203 -49 -293s-79 -168.5 -139 -235.5s-131.333 -119.167 -214 -156.5s-173.667 -56 -273 -56h-548zM514 117.999l-182 182h272
c57.333 0 110.166 17.833 158.499 53.5s87.166 86.5 116.499 152.5s44 144.333 44 235c0 91.333 -14.667 169.333 -44 234s-68.166 114.167 -116.499 148.5s-101.166 51.5 -158.499 51.5h-272l182 182v-1239zM276 1787h245l188 -169h-103l190 169h246l-258 -225h-249z" />
    <glyph glyph-name="dcaron" unicode="&#x10f;" horiz-adv-x="1610" 
d="M547 -26c-88.667 0 -171.168 21.168 -247.501 63.501s-137.833 105.333 -184.5 189s-70 187.5 -70 311.5c0 117.333 24 216.666 72 297.999s110.333 143 187 185s157.667 63 243 63s162.333 -22.333 231 -67s123.334 -105.5 164.001 -182.5s61 -164.833 61 -263.5v-11.5
v-11.5h-142v6.5v6.5c0 44.667 -10 81.334 -30 110.001s-45.167 50.167 -75.5 64.5s-61.166 21.5 -92.499 21.5c-50.667 0 -97 -16.833 -139 -50.5s-63 -89.834 -63 -168.501s21 -135.667 63 -171s88.333 -53 139 -53c32 0 63.167 7.5 93.5 22.5s55.333 37.5 75 67.5
s29.5 67 29.5 111l142 -10c0 -98 -20.333 -187.167 -61 -267.5s-95.334 -144.333 -164.001 -192s-145.667 -71.5 -231 -71.5zM860.999 0.000976562v1563h404v-1563h-404zM1601 1563c0 -64 -4.16797 -126.168 -12.501 -186.501s-17.666 -113 -27.999 -158
s-18.5 -77.5 -24.5 -97.5h-180c6 20.667 12 53.5 18 98.5s11.167 97.333 15.5 157s6.5 121.834 6.5 186.501h205z" />
    <glyph glyph-name="Dcroat" unicode="&#x110;" horiz-adv-x="1403" 
d="M110 0v1475h548c99.333 0 190.333 -18.333 273 -55s154 -88 214 -154s106.333 -143.667 139 -233s49 -186.666 49 -291.999s-16.333 -203 -49 -293s-79 -168.5 -139 -235.5s-131.333 -119.167 -214 -156.5s-173.667 -56 -273 -56h-548zM514 117.999l-182 182h272
c57.333 0 110.166 17.833 158.499 53.5s87.166 86.5 116.499 152.5s44 144.333 44 235c0 91.333 -14.667 169.333 -44 234s-68.166 114.167 -116.499 148.5s-101.166 51.5 -158.499 51.5h-272l182 182v-1239zM16 644.999v179h750v-179h-750z" />
    <glyph glyph-name="dcroat" unicode="&#x111;" horiz-adv-x="1378" 
d="M482 1220v179h901v-179h-901zM547 -26c-88.667 0 -171.168 21.168 -247.501 63.501s-137.833 105.333 -184.5 189s-70 187.5 -70 311.5c0 117.333 24 216.666 72 297.999s110.333 143 187 185s157.667 63 243 63s162.333 -22.333 231 -67s123.334 -105.5 164.001 -182.5
s61 -164.833 61 -263.5v-11.5v-11.5h-142v6.5v6.5c0 44.667 -10 81.334 -30 110.001s-45.167 50.167 -75.5 64.5s-61.166 21.5 -92.499 21.5c-50.667 0 -97 -16.833 -139 -50.5s-63 -89.834 -63 -168.501s21 -135.667 63 -171s88.333 -53 139 -53c32 0 63.167 7.5 93.5 22.5
s55.333 37.5 75 67.5s29.5 67 29.5 111l142 -10c0 -98 -20.333 -187.167 -61 -267.5s-95.334 -144.333 -164.001 -192s-145.667 -71.5 -231 -71.5zM860.999 0.000976562v1563h404v-1563h-404z" />
    <glyph glyph-name="Emacron" unicode="&#x112;" horiz-adv-x="1177" 
d="M334 1175l182 182v-575l-90 108h530v-300h-530l90 107v-579l-182 182h733v-300h-957v1475h957v-300h-733zM256 1609v163h693v-163h-693z" />
    <glyph glyph-name="emacron" unicode="&#x113;" horiz-adv-x="1308" 
d="M262 421l-0.00195312 239.999h626l-30 -52v17.5v16.5c0 22.667 -6.5 46.167 -19.5 70.5s-34 44.833 -63 61.5s-67.833 25 -116.5 25c-47.333 0 -87 -10 -119 -30s-56 -49.5 -72 -88.5s-24 -86.5 -24 -142.5c0 -58.667 7.66699 -108.667 23 -150
s39.666 -72.833 72.999 -94.5s77 -32.5 131 -32.5c32 0 59.333 2.33301 82 7s40.834 10.667 54.501 18s24 15.333 31 24s11.167 17 12.5 25h398c-4.66699 -46.667 -21.5 -91.667 -50.5 -135s-68.833 -82.166 -119.5 -116.499s-111.667 -61.333 -183 -81
s-152 -29.5 -242 -29.5c-124.667 0 -232.667 23.5 -324 70.5s-161.666 112.333 -210.999 196s-74 179.834 -74 288.501c0 111.333 25.333 208.666 76 291.999s121.834 148 213.501 194s198.167 69 319.5 69c125.333 0 233.5 -23.5 324.5 -70.5s161.167 -113.667 210.5 -200
s74 -188.833 74 -307.5c0 -20 -0.333008 -37 -1 -51s-1.66699 -25.333 -3 -34h-997zM304.998 1266v163h693v-163h-693z" />
    <glyph glyph-name="Ebreve" unicode="&#x114;" horiz-adv-x="1177" 
d="M334 1175l182 182v-575l-90 108h530v-300h-530l90 107v-579l-182 182h733v-300h-957v1475h957v-300h-733zM280 1772h231c0 -24.667 7.83301 -45.334 23.5 -62.001s38.5 -25 68.5 -25c30.667 0 53.667 8.33301 69 25s23 37.334 23 62.001h231
c0 -72 -30.5 -129.333 -91.5 -172s-138.167 -64 -231.5 -64s-170.5 21.333 -231.5 64s-91.5 100 -91.5 172z" />
    <glyph glyph-name="ebreve" unicode="&#x115;" horiz-adv-x="1308" 
d="M262 421l-0.00195312 239.999h626l-30 -52v17.5v16.5c0 22.667 -6.5 46.167 -19.5 70.5s-34 44.833 -63 61.5s-67.833 25 -116.5 25c-47.333 0 -87 -10 -119 -30s-56 -49.5 -72 -88.5s-24 -86.5 -24 -142.5c0 -58.667 7.66699 -108.667 23 -150
s39.666 -72.833 72.999 -94.5s77 -32.5 131 -32.5c32 0 59.333 2.33301 82 7s40.834 10.667 54.501 18s24 15.333 31 24s11.167 17 12.5 25h398c-4.66699 -46.667 -21.5 -91.667 -50.5 -135s-68.833 -82.166 -119.5 -116.499s-111.667 -61.333 -183 -81
s-152 -29.5 -242 -29.5c-124.667 0 -232.667 23.5 -324 70.5s-161.666 112.333 -210.999 196s-74 179.834 -74 288.501c0 111.333 25.333 208.666 76 291.999s121.834 148 213.501 194s198.167 69 319.5 69c125.333 0 233.5 -23.5 324.5 -70.5s161.167 -113.667 210.5 -200
s74 -188.833 74 -307.5c0 -20 -0.333008 -37 -1 -51s-1.66699 -25.333 -3 -34h-997zM328.998 1495h231c0 -39.333 7.83301 -72 23.5 -98s38.5 -39 68.5 -39c30.667 0 53.667 13 69 39s23 58.667 23 98h231c0 -92 -30.5 -162.667 -91.5 -212s-138.167 -74 -231.5 -74
s-170.5 24.667 -231.5 74s-91.5 120 -91.5 212z" />
    <glyph glyph-name="Edotaccent" unicode="&#x116;" horiz-adv-x="1177" 
d="M334 1175l182 182v-575l-90 108h530v-300h-530l90 107v-579l-182 182h733v-300h-957v1475h957v-300h-733zM606 1557c-59.333 0 -111.166 15.3311 -155.499 45.998s-66.5 74.334 -66.5 131.001c0 57.333 22.167 101.166 66.5 131.499s96.166 45.5 155.499 45.5
s111.166 -15.167 155.499 -45.5s66.5 -74.166 66.5 -131.499s-22.167 -101.166 -66.5 -131.499s-96.166 -45.5 -155.499 -45.5z" />
    <glyph glyph-name="edotaccent" unicode="&#x117;" horiz-adv-x="1308" 
d="M262 421l-0.00195312 239.999h626l-30 -52v17.5v16.5c0 22.667 -6.5 46.167 -19.5 70.5s-34 44.833 -63 61.5s-67.833 25 -116.5 25c-47.333 0 -87 -10 -119 -30s-56 -49.5 -72 -88.5s-24 -86.5 -24 -142.5c0 -58.667 7.66699 -108.667 23 -150
s39.666 -72.833 72.999 -94.5s77 -32.5 131 -32.5c32 0 59.333 2.33301 82 7s40.834 10.667 54.501 18s24 15.333 31 24s11.167 17 12.5 25h398c-4.66699 -46.667 -21.5 -91.667 -50.5 -135s-68.833 -82.166 -119.5 -116.499s-111.667 -61.333 -183 -81
s-152 -29.5 -242 -29.5c-124.667 0 -232.667 23.5 -324 70.5s-161.666 112.333 -210.999 196s-74 179.834 -74 288.501c0 111.333 25.333 208.666 76 291.999s121.834 148 213.501 194s198.167 69 319.5 69c125.333 0 233.5 -23.5 324.5 -70.5s161.167 -113.667 210.5 -200
s74 -188.833 74 -307.5c0 -20 -0.333008 -37 -1 -51s-1.66699 -25.333 -3 -34h-997zM650.998 1187c-59.333 0 -111.166 15.3311 -155.499 45.998s-66.5 74.334 -66.5 131.001c0 57.333 22.167 101.166 66.5 131.499s96.166 45.5 155.499 45.5s111.166 -15.167 155.499 -45.5
s66.5 -74.166 66.5 -131.499s-22.167 -101.166 -66.5 -131.499s-96.166 -45.5 -155.499 -45.5z" />
    <glyph glyph-name="Eogonek" unicode="&#x118;" horiz-adv-x="1177" 
d="M334 1175l182 182v-575l-90 108h530v-300h-530l90 107v-579l-182 182h733v-300h-957v1475h957v-300h-733zM1067 -270l0.000976562 -186.999c-14 -1.33301 -28.833 -2.5 -44.5 -3.5s-32.167 -1.5 -49.5 -1.5c-50.667 0 -99 5.33301 -145 16s-83.667 28.834 -113 54.501
s-44 60.167 -44 103.5c0 44.667 13.167 86.5 39.5 125.5s56.166 72.667 89.499 101s59.666 48.833 78.999 61.5h188c-16.667 -13.333 -38 -33.666 -64 -60.999s-49.333 -55.833 -70 -85.5s-31 -54.834 -31 -75.501c0 -22.667 9.5 -37.334 28.5 -44.001s40.5 -10 64.5 -10
c12 0 24.333 0.666992 37 2s24.334 2.66602 35.001 3.99902z" />
    <glyph glyph-name="eogonek" unicode="&#x119;" horiz-adv-x="1308" 
d="M949 -245v-186.998c-14 -1.33301 -28.833 -2.5 -44.5 -3.5s-32.167 -1.5 -49.5 -1.5c-50.667 0 -97.334 6.16699 -140.001 18.5s-77 32.166 -103 59.499s-39 62.666 -39 105.999c0 38 11.5 75.833 34.5 113.5s49.5 71.334 79.5 101.001s54.667 50.834 74 63.501h188
c-16.667 -13.333 -38 -33.666 -64 -60.999s-49.333 -55.833 -70 -85.5s-31 -54.834 -31 -75.501c0 -22.667 9.5 -37.334 28.5 -44.001s40.5 -10 64.5 -10c12 0 24.333 0.666992 37 2s24.334 2.66602 35.001 3.99902zM262 421.002l-0.00195312 239.999h626l-30 -52v17.5v16.5
c0 22.667 -6.5 46.167 -19.5 70.5s-34 44.833 -63 61.5s-67.833 25 -116.5 25c-47.333 0 -87 -10 -119 -30s-56 -49.5 -72 -88.5s-24 -86.5 -24 -142.5c0 -58.667 7.66699 -108.667 23 -150s39.666 -72.833 72.999 -94.5s77 -32.5 131 -32.5c32 0 59.333 2.33301 82 7
s40.834 10.667 54.501 18s24 15.333 31 24s11.167 17 12.5 25h398c-4.66699 -46.667 -21.5 -91.667 -50.5 -135s-68.833 -82.166 -119.5 -116.499s-111.667 -61.333 -183 -81s-152 -29.5 -242 -29.5c-124.667 0 -232.667 23.5 -324 70.5s-161.666 112.333 -210.999 196
s-74 179.834 -74 288.501c0 111.333 25.333 208.666 76 291.999s121.834 148 213.501 194s198.167 69 319.5 69c125.333 0 233.5 -23.5 324.5 -70.5s161.167 -113.667 210.5 -200s74 -188.833 74 -307.5c0 -20 -0.333008 -37 -1 -51s-1.66699 -25.333 -3 -34h-997z" />
    <glyph glyph-name="Ecaron" unicode="&#x11a;" horiz-adv-x="1177" 
d="M334 1175l182 182v-575l-90 108h530v-300h-530l90 107v-579l-182 182h733v-300h-957v1475h957v-300h-733zM220 1787h245l188 -169h-103l190 169h246l-258 -225h-249z" />
    <glyph glyph-name="ecaron" unicode="&#x11b;" horiz-adv-x="1308" 
d="M262 421l-0.00195312 239.999h626l-30 -52v17.5v16.5c0 22.667 -6.5 46.167 -19.5 70.5s-34 44.833 -63 61.5s-67.833 25 -116.5 25c-47.333 0 -87 -10 -119 -30s-56 -49.5 -72 -88.5s-24 -86.5 -24 -142.5c0 -58.667 7.66699 -108.667 23 -150
s39.666 -72.833 72.999 -94.5s77 -32.5 131 -32.5c32 0 59.333 2.33301 82 7s40.834 10.667 54.501 18s24 15.333 31 24s11.167 17 12.5 25h398c-4.66699 -46.667 -21.5 -91.667 -50.5 -135s-68.833 -82.166 -119.5 -116.499s-111.667 -61.333 -183 -81
s-152 -29.5 -242 -29.5c-124.667 0 -232.667 23.5 -324 70.5s-161.666 112.333 -210.999 196s-74 179.834 -74 288.501c0 111.333 25.333 208.666 76 291.999s121.834 148 213.501 194s198.167 69 319.5 69c125.333 0 233.5 -23.5 324.5 -70.5s161.167 -113.667 210.5 -200
s74 -188.833 74 -307.5c0 -20 -0.333008 -37 -1 -51s-1.66699 -25.333 -3 -34h-997zM268.998 1475h245l188 -219h-103l190 219h246l-258 -291h-249z" />
    <glyph glyph-name="Gcircumflex" unicode="&#x11c;" horiz-adv-x="1482" 
d="M725 -26c-121.333 0 -231.667 28.5029 -331 85.5029s-178.166 141.667 -236.499 254s-87.5 251.833 -87.5 418.5s31.333 307 94 421s146.834 200.333 252.501 259s223.5 88 353.5 88c110 0 203.167 -17 279.5 -51s138.333 -77.5 186 -130.5s82.334 -108.5 104.001 -166.5
s32.5 -111 32.5 -159v-6v-6h-392v6v6c0 25.333 -4.83301 49.666 -14.5 72.999s-23.667 44.166 -42 62.499s-40.5 32.833 -66.5 43.5s-55 16 -87 16c-44 0 -88.333 -13 -133 -39s-82 -71.833 -112 -137.5s-45 -158.834 -45 -279.501c0 -90.667 8.5 -165.167 25.5 -223.5
s39.333 -103.666 67 -135.999s58.334 -55 92.001 -68s67.167 -19.5 100.5 -19.5c48 0 89.167 7.83301 123.5 23.5s61.666 35 81.999 58s33.166 45.5 38.499 67.5v56h-246v279h603v-769h-188l-41 163c-4.66699 -14.667 -15.834 -32.667 -33.501 -54
s-42.834 -42.333 -75.501 -63s-74 -37.834 -124 -51.501s-109.667 -20.5 -179 -20.5zM373.999 1562l259 225h249l258 -225h-246l-190 169h103l-188 -169h-245z" />
    <glyph glyph-name="gcircumflex" unicode="&#x11d;" horiz-adv-x="1290" 
d="M869 166c70.667 -8 132.336 -21.6699 185.003 -41.0029s93.667 -48.166 123 -86.499s44 -90.166 44 -155.499c0 -76 -24.833 -139.667 -74.5 -191s-120.334 -90 -212.001 -116s-200.5 -39 -326.5 -39c-190.667 0 -340.5 27.167 -449.5 81.5s-163.5 126.5 -163.5 216.5
c0 22.667 2.66699 43.667 8 63s12.666 36.333 21.999 51l361 -52c-2 -2.66699 -4.33301 -7.16699 -7 -13.5s-4 -15.166 -4 -26.499c0 -23.333 24 -42 72 -56s104.667 -21 170 -21c44 0 83.333 3.16699 118 9.5s62 15.5 82 27.5s30 25.667 30 41c0 21.333 -12 36.5 -36 45.5
s-50 15.167 -78 18.5l-401 48c-78.667 9.33301 -144.334 31.166 -197.001 65.499s-79 84.5 -79 150.5c0 40.667 12 77.167 36 109.5s51.167 59 81.5 80s54.833 34.5 73.5 40.5l174 -93c-10 -1.33301 -20.833 -6.83301 -32.5 -16.5s-17.5 -21.167 -17.5 -34.5
c0 -14.667 9.16699 -27.667 27.5 -39s50.833 -19.666 97.5 -24.999zM946.002 1062h349.001l-141 -402c-26.667 -76.667 -61.334 -144.334 -104.001 -203.001s-98.334 -104.5 -167.001 -137.5s-156.667 -49.5 -264 -49.5c-112.667 0 -211 15.5 -295 46.5
s-149 76.333 -195 136s-69 131.834 -69 216.501c0 85.333 23.167 159 69.5 221s109.166 109.833 188.499 143.5s168.333 50.5 267 50.5c66.667 0 129.834 -10.167 189.501 -30.5s108.334 -48.5 146.001 -84.5s56.5 -78.333 56.5 -127l-52 -22zM617.003 547.997
c30.667 0 58.167 4.83203 82.5 14.499s43.666 23.834 57.999 42.501s21.5 41.334 21.5 68.001c0 27.333 -7.16699 50.166 -21.5 68.499s-33.666 32.166 -57.999 41.499s-51.833 14 -82.5 14c-30 0 -57.333 -4.66699 -82 -14s-44.334 -23.333 -59.001 -42s-22 -42 -22 -70
c0 -26.667 7.33301 -49.167 22 -67.5s34.334 -32.166 59.001 -41.499s52 -14 82 -14zM214.003 1184l259 291h249l258 -291h-246l-190 219h103l-188 -219h-245z" />
    <glyph glyph-name="Gbreve" unicode="&#x11e;" horiz-adv-x="1482" 
d="M725 -26c-121.333 0 -231.667 28.5029 -331 85.5029s-178.166 141.667 -236.499 254s-87.5 251.833 -87.5 418.5s31.333 307 94 421s146.834 200.333 252.501 259s223.5 88 353.5 88c110 0 203.167 -17 279.5 -51s138.333 -77.5 186 -130.5s82.334 -108.5 104.001 -166.5
s32.5 -111 32.5 -159v-6v-6h-392v6v6c0 25.333 -4.83301 49.666 -14.5 72.999s-23.667 44.166 -42 62.499s-40.5 32.833 -66.5 43.5s-55 16 -87 16c-44 0 -88.333 -13 -133 -39s-82 -71.833 -112 -137.5s-45 -158.834 -45 -279.501c0 -90.667 8.5 -165.167 25.5 -223.5
s39.333 -103.666 67 -135.999s58.334 -55 92.001 -68s67.167 -19.5 100.5 -19.5c48 0 89.167 7.83301 123.5 23.5s61.666 35 81.999 58s33.166 45.5 38.499 67.5v56h-246v279h603v-769h-188l-41 163c-4.66699 -14.667 -15.834 -32.667 -33.501 -54
s-42.834 -42.333 -75.501 -63s-74 -37.834 -124 -51.501s-109.667 -20.5 -179 -20.5zM433.999 1772h231c0 -24.667 7.83301 -45.334 23.5 -62.001s38.5 -25 68.5 -25c30.667 0 53.667 8.33301 69 25s23 37.334 23 62.001h231c0 -72 -30.5 -129.333 -91.5 -172
s-138.167 -64 -231.5 -64s-170.5 21.333 -231.5 64s-91.5 100 -91.5 172z" />
    <glyph glyph-name="gbreve" unicode="&#x11f;" horiz-adv-x="1290" 
d="M869 166c70.667 -8 132.336 -21.6699 185.003 -41.0029s93.667 -48.166 123 -86.499s44 -90.166 44 -155.499c0 -76 -24.833 -139.667 -74.5 -191s-120.334 -90 -212.001 -116s-200.5 -39 -326.5 -39c-190.667 0 -340.5 27.167 -449.5 81.5s-163.5 126.5 -163.5 216.5
c0 22.667 2.66699 43.667 8 63s12.666 36.333 21.999 51l361 -52c-2 -2.66699 -4.33301 -7.16699 -7 -13.5s-4 -15.166 -4 -26.499c0 -23.333 24 -42 72 -56s104.667 -21 170 -21c44 0 83.333 3.16699 118 9.5s62 15.5 82 27.5s30 25.667 30 41c0 21.333 -12 36.5 -36 45.5
s-50 15.167 -78 18.5l-401 48c-78.667 9.33301 -144.334 31.166 -197.001 65.499s-79 84.5 -79 150.5c0 40.667 12 77.167 36 109.5s51.167 59 81.5 80s54.833 34.5 73.5 40.5l174 -93c-10 -1.33301 -20.833 -6.83301 -32.5 -16.5s-17.5 -21.167 -17.5 -34.5
c0 -14.667 9.16699 -27.667 27.5 -39s50.833 -19.666 97.5 -24.999zM946.002 1062h349.001l-141 -402c-26.667 -76.667 -61.334 -144.334 -104.001 -203.001s-98.334 -104.5 -167.001 -137.5s-156.667 -49.5 -264 -49.5c-112.667 0 -211 15.5 -295 46.5
s-149 76.333 -195 136s-69 131.834 -69 216.501c0 85.333 23.167 159 69.5 221s109.166 109.833 188.499 143.5s168.333 50.5 267 50.5c66.667 0 129.834 -10.167 189.501 -30.5s108.334 -48.5 146.001 -84.5s56.5 -78.333 56.5 -127l-52 -22zM617.003 547.997
c30.667 0 58.167 4.83203 82.5 14.499s43.666 23.834 57.999 42.501s21.5 41.334 21.5 68.001c0 27.333 -7.16699 50.166 -21.5 68.499s-33.666 32.166 -57.999 41.499s-51.833 14 -82.5 14c-30 0 -57.333 -4.66699 -82 -14s-44.334 -23.333 -59.001 -42s-22 -42 -22 -70
c0 -26.667 7.33301 -49.167 22 -67.5s34.334 -32.166 59.001 -41.499s52 -14 82 -14zM274.003 1495h231c0 -39.333 7.83301 -72 23.5 -98s38.5 -39 68.5 -39c30.667 0 53.667 13 69 39s23 58.667 23 98h231c0 -92 -30.5 -162.667 -91.5 -212s-138.167 -74 -231.5 -74
s-170.5 24.667 -231.5 74s-91.5 120 -91.5 212z" />
    <glyph glyph-name="Gdotaccent" unicode="&#x120;" horiz-adv-x="1482" 
d="M725 -26c-121.333 0 -231.667 28.5029 -331 85.5029s-178.166 141.667 -236.499 254s-87.5 251.833 -87.5 418.5s31.333 307 94 421s146.834 200.333 252.501 259s223.5 88 353.5 88c110 0 203.167 -17 279.5 -51s138.333 -77.5 186 -130.5s82.334 -108.5 104.001 -166.5
s32.5 -111 32.5 -159v-6v-6h-392v6v6c0 25.333 -4.83301 49.666 -14.5 72.999s-23.667 44.166 -42 62.499s-40.5 32.833 -66.5 43.5s-55 16 -87 16c-44 0 -88.333 -13 -133 -39s-82 -71.833 -112 -137.5s-45 -158.834 -45 -279.501c0 -90.667 8.5 -165.167 25.5 -223.5
s39.333 -103.666 67 -135.999s58.334 -55 92.001 -68s67.167 -19.5 100.5 -19.5c48 0 89.167 7.83301 123.5 23.5s61.666 35 81.999 58s33.166 45.5 38.499 67.5v56h-246v279h603v-769h-188l-41 163c-4.66699 -14.667 -15.834 -32.667 -33.501 -54
s-42.834 -42.333 -75.501 -63s-74 -37.834 -124 -51.501s-109.667 -20.5 -179 -20.5zM759.999 1557c-59.333 0 -111.166 15.3311 -155.499 45.998s-66.5 74.334 -66.5 131.001c0 57.333 22.167 101.166 66.5 131.499s96.166 45.5 155.499 45.5
s111.166 -15.167 155.499 -45.5s66.5 -74.166 66.5 -131.499s-22.167 -101.166 -66.5 -131.499s-96.166 -45.5 -155.499 -45.5z" />
    <glyph glyph-name="gdotaccent" unicode="&#x121;" horiz-adv-x="1290" 
d="M869 166c70.667 -8 132.336 -21.6699 185.003 -41.0029s93.667 -48.166 123 -86.499s44 -90.166 44 -155.499c0 -76 -24.833 -139.667 -74.5 -191s-120.334 -90 -212.001 -116s-200.5 -39 -326.5 -39c-190.667 0 -340.5 27.167 -449.5 81.5s-163.5 126.5 -163.5 216.5
c0 22.667 2.66699 43.667 8 63s12.666 36.333 21.999 51l361 -52c-2 -2.66699 -4.33301 -7.16699 -7 -13.5s-4 -15.166 -4 -26.499c0 -23.333 24 -42 72 -56s104.667 -21 170 -21c44 0 83.333 3.16699 118 9.5s62 15.5 82 27.5s30 25.667 30 41c0 21.333 -12 36.5 -36 45.5
s-50 15.167 -78 18.5l-401 48c-78.667 9.33301 -144.334 31.166 -197.001 65.499s-79 84.5 -79 150.5c0 40.667 12 77.167 36 109.5s51.167 59 81.5 80s54.833 34.5 73.5 40.5l174 -93c-10 -1.33301 -20.833 -6.83301 -32.5 -16.5s-17.5 -21.167 -17.5 -34.5
c0 -14.667 9.16699 -27.667 27.5 -39s50.833 -19.666 97.5 -24.999zM946.002 1062h349.001l-141 -402c-26.667 -76.667 -61.334 -144.334 -104.001 -203.001s-98.334 -104.5 -167.001 -137.5s-156.667 -49.5 -264 -49.5c-112.667 0 -211 15.5 -295 46.5
s-149 76.333 -195 136s-69 131.834 -69 216.501c0 85.333 23.167 159 69.5 221s109.166 109.833 188.499 143.5s168.333 50.5 267 50.5c66.667 0 129.834 -10.167 189.501 -30.5s108.334 -48.5 146.001 -84.5s56.5 -78.333 56.5 -127l-52 -22zM617.003 547.997
c30.667 0 58.167 4.83203 82.5 14.499s43.666 23.834 57.999 42.501s21.5 41.334 21.5 68.001c0 27.333 -7.16699 50.166 -21.5 68.499s-33.666 32.166 -57.999 41.499s-51.833 14 -82.5 14c-30 0 -57.333 -4.66699 -82 -14s-44.334 -23.333 -59.001 -42s-22 -42 -22 -70
c0 -26.667 7.33301 -49.167 22 -67.5s34.334 -32.166 59.001 -41.499s52 -14 82 -14zM596.003 1187c-59.333 0 -111.166 15.3311 -155.499 45.998s-66.5 74.334 -66.5 131.001c0 57.333 22.167 101.166 66.5 131.499s96.166 45.5 155.499 45.5
s111.166 -15.167 155.499 -45.5s66.5 -74.166 66.5 -131.499s-22.167 -101.166 -66.5 -131.499s-96.166 -45.5 -155.499 -45.5z" />
    <glyph glyph-name="uni0122" unicode="&#x122;" horiz-adv-x="1482" 
d="M725 -26c-121.333 0 -231.667 28.5029 -331 85.5029s-178.166 141.667 -236.499 254s-87.5 251.833 -87.5 418.5s31.333 307 94 421s146.834 200.333 252.501 259s223.5 88 353.5 88c110 0 203.167 -17 279.5 -51s138.333 -77.5 186 -130.5s82.334 -108.5 104.001 -166.5
s32.5 -111 32.5 -159v-6v-6h-392v6v6c0 25.333 -4.83301 49.666 -14.5 72.999s-23.667 44.166 -42 62.499s-40.5 32.833 -66.5 43.5s-55 16 -87 16c-44 0 -88.333 -13 -133 -39s-82 -71.833 -112 -137.5s-45 -158.834 -45 -279.501c0 -90.667 8.5 -165.167 25.5 -223.5
s39.333 -103.666 67 -135.999s58.334 -55 92.001 -68s67.167 -19.5 100.5 -19.5c48 0 89.167 7.83301 123.5 23.5s61.666 35 81.999 58s33.166 45.5 38.499 67.5v56h-246v279h603v-769h-188l-41 163c-4.66699 -14.667 -15.834 -32.667 -33.501 -54
s-42.834 -42.333 -75.501 -63s-74 -37.834 -124 -51.501s-109.667 -20.5 -179 -20.5zM717.999 -284.997c-35.333 0 -63.166 9.16699 -83.499 27.5s-30.5 43.5 -30.5 75.5c0 41.333 15.333 70.166 46 86.499s62.667 24.5 96 24.5c20 0 41.167 -4.5 63.5 -13.5
s41.166 -23.5 56.499 -43.5s23 -47.333 23 -82c0 -54 -12.833 -98.5 -38.5 -133.5s-55.834 -62.167 -90.501 -81.5s-65.334 -33.333 -92.001 -42l-20 58c20.667 6.66699 42.834 16.167 66.501 28.5s43.834 28.833 60.501 49.5s25 46.334 25 77.001
c-6 -10.667 -16.833 -18.5 -32.5 -23.5s-32.167 -7.5 -49.5 -7.5z" />
    <glyph glyph-name="uni0123" unicode="&#x123;" horiz-adv-x="1218" 
d="M602 1364c25.333 0 45.668 -7.33203 61.001 -21.999s23 -34.334 23 -59.001s-8.16699 -45.167 -24.5 -61.5s-40.166 -24.5 -71.499 -24.5c-32.667 0 -57.334 11.167 -74.001 33.5s-25 50.166 -25 83.499c0 32.667 7.5 61.834 22.5 87.501s34.167 47.5 57.5 65.5
s48 32 74 42l16 -36c-18.667 -6.66699 -36.334 -16.667 -53.001 -30s-30.167 -28.5 -40.5 -45.5s-15.5 -34.5 -15.5 -52.5c2 4.66699 7.5 9 16.5 13s20.167 6 33.5 6zM831.002 65.001c57.333 -4.66699 107.833 -15.1621 151.5 -31.4951s77.834 -40.333 102.501 -72
s37 -73.167 37 -124.5c0 -56.667 -19.333 -106.834 -58 -150.501s-97.334 -77.834 -176.001 -102.501s-177.667 -37 -297 -37c-168.667 0 -296 24.5 -382 73.5s-129 115.833 -129 200.5c0 26.667 3.16699 50.167 9.5 70.5s13.5 36.833 21.5 49.5l162 -24
c-5.33301 -7.33301 -10.5 -18.5 -15.5 -33.5s-7.5 -32.5 -7.5 -52.5c0 -53.333 30.333 -90.833 91 -112.5s146.667 -32.5 258 -32.5c83.333 0 151.666 5.66699 204.999 17s93 27.666 119 48.999s39 46.333 39 75c0 43.333 -18.167 70.166 -54.5 80.499
s-81.166 17.5 -134.499 21.5l-404 30c-67.333 5.33301 -122.166 26.166 -164.499 62.499s-63.5 80.5 -63.5 132.5c0 32 7.83301 62.333 23.5 91s34 52.834 55 72.501s39.833 31.5 56.5 35.5l134 -61c-16.667 -2.66699 -37.167 -14.167 -61.5 -34.5
s-36.5 -44.166 -36.5 -71.499c0 -24.667 9.66699 -44.834 29 -60.501s57.666 -25.834 114.999 -30.501zM978.002 1062.01l160 -0.000976562l-66 -418c-12 -78 -37 -148.5 -75 -211.5s-89.833 -113 -155.5 -150s-146.834 -55.5 -243.501 -55.5
c-100.667 0 -186.667 18.333 -258 55s-126 86.834 -164 150.501s-57 135.5 -57 215.5c0 81.333 19.833 154.5 59.5 219.5s94.834 116.333 165.501 154s151.667 56.5 243 56.5c82 0 153.667 -14.167 215 -42.5s109.833 -63.833 145.5 -106.5s55.5 -85.667 59.5 -129l-64 -4z
M597.002 379.005c64.667 0 120.167 10.666 166.5 31.999s82 52.333 107 93s37.5 90 37.5 148c0 56 -12.5 104.5 -37.5 145.5s-60.667 72.667 -107 95s-101.5 33.5 -165.5 33.5c-61.333 0 -115.5 -11.5 -162.5 -34.5s-83.667 -55.167 -110 -96.5s-39.5 -90 -39.5 -146
c0 -56.667 12.5 -105.167 37.5 -145.5s60.667 -71.166 107 -92.499s101.833 -32 166.5 -32z" />
    <glyph glyph-name="Hcircumflex" unicode="&#x124;" horiz-adv-x="1479" 
d="M1369 1475v-1475h-404v682l182 -99h-815l182 93v-676h-404v1475h404v-686l-182 95h815l-182 -94v685h404zM358 1562l259 225h249l258 -225h-246l-190 169h103l-188 -169h-245z" />
    <glyph glyph-name="hcircumflex" unicode="&#x125;" horiz-adv-x="1332" 
d="M839 0v366.003v48.5v66v51.5c0 67.333 -10 120.666 -30 159.999s-63 59 -129 59c-42.667 0 -77 -8.66699 -103 -26s-44.833 -42.333 -56.5 -75s-17.5 -72 -17.5 -118l-78 80c0 97.333 18.333 181.166 55 251.499s88 124.666 154 162.999s143.333 57.5 232 57.5
c131.333 0 226.833 -38 286.5 -114s89.5 -182.333 89.5 -319v-126.5v-184.5v-340h-403zM100 0.00292969v1563h403v-1563h-403zM-75 1685l259 291h249l258 -291h-246l-190 219h103l-188 -219h-245z" />
    <glyph glyph-name="Hbar" unicode="&#x126;" horiz-adv-x="1479" 
d="M32 1083v179h1413v-179h-1413zM1369 1475v-1475h-404v682l182 -99h-815l182 93v-676h-404v1475h404v-686l-182 95h815l-182 -94v685h404z" />
    <glyph glyph-name="hbar" unicode="&#x127;" horiz-adv-x="1362" 
d="M-4 1220v179h866v-179h-866zM869 0v366.003v48.5v66v51.5c0 67.333 -10 120.666 -30 159.999s-63 59 -129 59c-42.667 0 -77 -8.66699 -103 -26s-44.833 -42.333 -56.5 -75s-17.5 -72 -17.5 -118l-78 80c0 97.333 18.333 181.166 55 251.499s88 124.666 154 162.999
s143.333 57.5 232 57.5c131.333 0 226.833 -38 286.5 -114s89.5 -182.333 89.5 -319v-126.5v-184.5v-340h-403zM130 0.00292969v1563h403v-1563h-403z" />
    <glyph glyph-name="Itilde" unicode="&#x128;" horiz-adv-x="608" 
d="M105 0v1475h398v-1475h-398zM676 1816c0 -43.333 -8.17285 -85.667 -24.5059 -127s-41 -75.5 -74 -102.5s-74.833 -40.5 -125.5 -40.5c-39.333 0 -71.666 7.5 -96.999 22.5s-44.666 29.167 -57.999 42.5c-14.667 15.333 -28.167 27.833 -40.5 37.5
s-27.166 14.5 -44.499 14.5c-20 0 -35.5 -8.5 -46.5 -25.5s-16.5 -41.833 -16.5 -74.5h-196c0 43.333 8.33301 85.833 25 127.5s42 76.167 76 103.5s77.333 41 130 41c34.667 0 64.834 -7.66699 90.501 -23s45.834 -30 60.501 -44s29.334 -25.833 44.001 -35.5
s29.667 -14.5 45 -14.5c16.667 0 30.167 8.16699 40.5 24.5s15.5 40.833 15.5 73.5h196z" />
    <glyph glyph-name="itilde" unicode="&#x129;" horiz-adv-x="545" 
d="M73 0v1062h399v-1062h-399zM635 1459c0 -43.333 -8.17285 -85.667 -24.5059 -127s-41 -75.5 -74 -102.5s-74.833 -40.5 -125.5 -40.5c-39.333 0 -71.666 7.5 -96.999 22.5s-44.666 29.167 -57.999 42.5c-14.667 15.333 -28.167 27.833 -40.5 37.5
s-27.166 14.5 -44.499 14.5c-20 0 -35.5 -8.5 -46.5 -25.5s-16.5 -41.833 -16.5 -74.5h-196c0 43.333 8.33301 85.833 25 127.5s42 76.167 76 103.5s77.333 41 130 41c34.667 0 64.834 -7.66699 90.501 -23s45.834 -30 60.501 -44s29.334 -25.833 44.001 -35.5
s29.667 -14.5 45 -14.5c16.667 0 30.167 8.16699 40.5 24.5s15.5 40.833 15.5 73.5h196z" />
    <glyph glyph-name="Imacron" unicode="&#x12a;" horiz-adv-x="608" 
d="M105 0v1475h398v-1475h-398zM-42 1609v163h693v-163h-693z" />
    <glyph glyph-name="imacron" unicode="&#x12b;" horiz-adv-x="545" 
d="M73 0v1062h399v-1062h-399zM26 1266v163h495v-163h-495z" />
    <glyph glyph-name="Ibreve" unicode="&#x12c;" horiz-adv-x="608" 
d="M105 0v1475h398v-1475h-398zM-18 1772h231c0 -24.667 7.83301 -45.334 23.5 -62.001s38.5 -25 68.5 -25c30.667 0 53.667 8.33301 69 25s23 37.334 23 62.001h231c0 -72 -30.5 -129.333 -91.5 -172s-138.167 -64 -231.5 -64s-170.5 21.333 -231.5 64s-91.5 100 -91.5 172
z" />
    <glyph glyph-name="ibreve" unicode="&#x12d;" horiz-adv-x="545" 
d="M73 0v1062h399v-1062h-399zM-49 1495h231c0 -39.333 7.83301 -72 23.5 -98s38.5 -39 68.5 -39c30.667 0 53.667 13 69 39s23 58.667 23 98h231c0 -92 -30.5 -162.667 -91.5 -212s-138.167 -74 -231.5 -74s-170.5 24.667 -231.5 74s-91.5 120 -91.5 212z" />
    <glyph glyph-name="Iogonek" unicode="&#x12e;" horiz-adv-x="608" 
d="M105 0v1475h398v-1475h-398zM503 -270l0.000976562 -186.999c-14 -1.33301 -28.833 -2.5 -44.5 -3.5s-32.167 -1.5 -49.5 -1.5c-50.667 0 -99 5.33301 -145 16s-83.667 28.834 -113 54.501s-44 60.167 -44 103.5c0 44.667 13.167 86.5 39.5 125.5
s56.166 72.667 89.499 101s59.666 48.833 78.999 61.5h188c-16.667 -13.333 -38 -33.666 -64 -60.999s-49.333 -55.833 -70 -85.5s-31 -54.834 -31 -75.501c0 -22.667 9.5 -37.334 28.5 -44.001s40.5 -10 64.5 -10c12 0 24.333 0.666992 37 2s24.334 2.66602 35.001 3.99902
z" />
    <glyph glyph-name="iogonek" unicode="&#x12f;" horiz-adv-x="545" 
d="M73 0v1062h399v-1062h-399zM472 -270v-186.998c-14 -1.33301 -28.833 -2.5 -44.5 -3.5s-32.167 -1.5 -49.5 -1.5c-50.667 0 -97.334 6.16699 -140.001 18.5s-77 32.166 -103 59.499s-39 62.666 -39 105.999c0 38 11.5 75.833 34.5 113.5s49.5 71.334 79.5 101.001
s54.667 50.834 74 63.501h188c-16.667 -13.333 -38 -33.666 -64 -60.999s-49.333 -55.833 -70 -85.5s-31 -54.834 -31 -75.501c0 -22.667 9.5 -37.334 28.5 -44.001s40.5 -10 64.5 -10c12 0 24.333 0.666992 37 2s24.334 2.66602 35.001 3.99902zM273 1187
c-59.333 0 -111.166 15.3311 -155.499 45.998s-66.5 74.334 -66.5 131.001c0 57.333 22.167 101.166 66.5 131.499s96.166 45.5 155.499 45.5s111.166 -15.167 155.499 -45.5s66.5 -74.166 66.5 -131.499s-22.167 -101.166 -66.5 -131.499s-96.166 -45.5 -155.499 -45.5z
" />
    <glyph glyph-name="Idotaccent" unicode="&#x130;" horiz-adv-x="608" 
d="M105 0v1475h398v-1475h-398zM308 1557c-59.333 0 -111.166 15.3311 -155.499 45.998s-66.5 74.334 -66.5 131.001c0 57.333 22.167 101.166 66.5 131.499s96.166 45.5 155.499 45.5s111.166 -15.167 155.499 -45.5s66.5 -74.166 66.5 -131.499
s-22.167 -101.166 -66.5 -131.499s-96.166 -45.5 -155.499 -45.5z" />
    <glyph glyph-name="dotlessi" unicode="&#x131;" horiz-adv-x="545" 
d="M73 0v1062h399v-1062h-399z" />
    <glyph glyph-name="Jcircumflex" unicode="&#x134;" horiz-adv-x="1222" 
d="M579 -26c-133.333 0 -239.334 21.832 -318.001 65.499s-135.167 104.5 -169.5 182.5s-51.5 168 -51.5 270v37.5v37.5h401v-18.5v-21.5c0 -36 3 -72.667 9 -110s18.833 -68.666 38.5 -93.999s49.834 -38 90.501 -38c42 0 72 13 90 39s29.167 59.333 33.5 100
s6.5 83 6.5 127v924h403v-982c0 -68.667 -8 -134 -24 -196s-43.5 -117.333 -82.5 -166s-93.167 -87 -162.5 -115s-157.333 -42 -264 -42zM523.999 1562l259 225h249l258 -225h-246l-190 169h103l-188 -169h-245z" />
    <glyph glyph-name="jcircumflex" unicode="&#x135;" horiz-adv-x="559" 
d="M-40 -464c-20 0 -39.835 0.5 -59.502 1.5l-50.5 2.5v295c13.333 -2 29.833 -3.83301 49.5 -5.5s39.834 -2.5 60.501 -2.5c24 0 43.833 2.83301 59.5 8.5s28 13.167 37 22.5s15.5 19.333 19.5 30s6 21 6 31v1143h402v-1151c0 -44 -6.33301 -88 -19 -132
s-37 -84.333 -73 -121s-88.667 -66.167 -158 -88.5s-160.666 -33.5 -273.999 -33.5zM-96.002 1184l259 291h249l258 -291h-246l-190 219h103l-188 -219h-245z" />
    <glyph glyph-name="uni0136" unicode="&#x136;" horiz-adv-x="1420" 
d="M783 695l12 308l590 -1003h-438l-370 695l173 -24l-269 -367l32 251v-555h-403v1475h403v-736l-74 30l497 706h423zM678 -285c-35.333 0 -63.166 9.16699 -83.499 27.5s-30.5 43.5 -30.5 75.5c0 41.333 15.333 70.166 46 86.499s62.667 24.5 96 24.5
c20 0 41.167 -4.5 63.5 -13.5s41.166 -23.5 56.499 -43.5s23 -47.333 23 -82c0 -54 -12.833 -98.5 -38.5 -133.5s-55.834 -62.167 -90.501 -81.5s-65.334 -33.333 -92.001 -42l-20 58c20.667 6.66699 42.834 16.167 66.501 28.5s43.834 28.833 60.501 49.5
s25 46.334 25 77.001c-6 -10.667 -16.833 -18.5 -32.5 -23.5s-32.167 -7.5 -49.5 -7.5z" />
    <glyph glyph-name="uni0137" unicode="&#x137;" horiz-adv-x="1221" 
d="M100 0v1563h382v-853l-69 38l336 314h487l-537 -485l80 139l439 -716h-421l-283 507l108 3l-177 -165l37 169v-514h-382zM615 -285c-35.333 0 -63.166 9.16699 -83.499 27.5s-30.5 43.5 -30.5 75.5c0 41.333 15.333 70.166 46 86.499s62.667 24.5 96 24.5
c20 0 41.167 -4.5 63.5 -13.5s41.166 -23.5 56.499 -43.5s23 -47.333 23 -82c0 -54 -12.833 -98.5 -38.5 -133.5s-55.834 -62.167 -90.501 -81.5s-65.334 -33.333 -92.001 -42l-20 58c20.667 6.66699 42.834 16.167 66.501 28.5s43.834 28.833 60.501 49.5
s25 46.334 25 77.001c-6 -10.667 -16.833 -18.5 -32.5 -23.5s-32.167 -7.5 -49.5 -7.5z" />
    <glyph glyph-name="kgreenlandic" unicode="&#x138;" horiz-adv-x="1127" 
d="M740 500l-32 222l434 -722h-426l-280 500l231 -57l-213 -280l27 237v-400h-381v1062h381v-530l-54 22l300 508h415z" />
    <glyph glyph-name="Lacute" unicode="&#x139;" horiz-adv-x="1105" 
d="M110 0v1475h404v-1356l-182 202h708v-321h-930zM112 1563l267 224h301l-311 -224h-257z" />
    <glyph glyph-name="lacute" unicode="&#x13a;" horiz-adv-x="617" 
d="M512 1563v-1563h-397v1563h397zM111 1651l267 224h301l-311 -224h-257z" />
    <glyph glyph-name="uni013B" unicode="&#x13b;" horiz-adv-x="1105" 
d="M110 0v1475h404v-1356l-182 202h708v-321h-930zM559 -285c-35.333 0 -63.166 9.16699 -83.499 27.5s-30.5 43.5 -30.5 75.5c0 41.333 15.333 70.166 46 86.499s62.667 24.5 96 24.5c20 0 41.167 -4.5 63.5 -13.5s41.166 -23.5 56.499 -43.5s23 -47.333 23 -82
c0 -54 -12.833 -98.5 -38.5 -133.5s-55.834 -62.167 -90.501 -81.5s-65.334 -33.333 -92.001 -42l-20 58c20.667 6.66699 42.834 16.167 66.501 28.5s43.834 28.833 60.501 49.5s25 46.334 25 77.001c-6 -10.667 -16.833 -18.5 -32.5 -23.5s-32.167 -7.5 -49.5 -7.5z" />
    <glyph glyph-name="uni013C" unicode="&#x13c;" horiz-adv-x="617" 
d="M512 1563v-1563h-397v1563h397zM281 -285c-35.333 0 -63.166 9.16699 -83.499 27.5s-30.5 43.5 -30.5 75.5c0 41.333 15.333 70.166 46 86.499s62.667 24.5 96 24.5c20 0 41.167 -4.5 63.5 -13.5s41.166 -23.5 56.499 -43.5s23 -47.333 23 -82
c0 -54 -12.833 -98.5 -38.5 -133.5s-55.834 -62.167 -90.501 -81.5s-65.334 -33.333 -92.001 -42l-20 58c20.667 6.66699 42.834 16.167 66.501 28.5s43.834 28.833 60.501 49.5s25 46.334 25 77.001c-6 -10.667 -16.833 -18.5 -32.5 -23.5s-32.167 -7.5 -49.5 -7.5z" />
    <glyph glyph-name="Lcaron" unicode="&#x13d;" horiz-adv-x="1105" 
d="M110 0v1475h404v-1356l-182 202h708v-321h-930zM976 1475c0 -64 -4.16797 -126.168 -12.501 -186.501s-17.666 -113 -27.999 -158s-18.5 -77.5 -24.5 -97.5h-180c6 20.667 12 53.5 18 98.5s11.167 97.333 15.5 157s6.5 121.834 6.5 186.501h205z" />
    <glyph glyph-name="lcaron" unicode="&#x13e;" horiz-adv-x="814" 
d="M512 1563v-1563h-397v1563h397zM814 1563c0 -64 -4.16797 -126.168 -12.501 -186.501s-17.666 -113 -27.999 -158s-18.5 -77.5 -24.5 -97.5h-180c6 20.667 12 53.5 18 98.5s11.167 97.333 15.5 157s6.5 121.834 6.5 186.501h205z" />
    <glyph glyph-name="Ldot" unicode="&#x13f;" horiz-adv-x="1105" 
d="M110 0v1475h404v-1356l-182 202h708v-321h-930zM865 618c-54.667 0 -101.167 19.167 -139.5 57.5s-57.5 84.833 -57.5 139.5c0 54 19.167 100.167 57.5 138.5s84.833 57.5 139.5 57.5c54 0 100.167 -19.167 138.5 -57.5s57.5 -84.5 57.5 -138.5
c0 -54.667 -19.167 -101.167 -57.5 -139.5s-84.5 -57.5 -138.5 -57.5z" />
    <glyph glyph-name="ldot" unicode="&#x140;" horiz-adv-x="1035" 
d="M497 1563v-1563h-397v1563h397zM789 618c-54.667 0 -101.167 19.167 -139.5 57.5s-57.5 84.833 -57.5 139.5c0 54 19.167 100.167 57.5 138.5s84.833 57.5 139.5 57.5c54 0 100.167 -19.167 138.5 -57.5s57.5 -84.5 57.5 -138.5c0 -54.667 -19.167 -101.167 -57.5 -139.5
s-84.5 -57.5 -138.5 -57.5z" />
    <glyph glyph-name="Lslash" unicode="&#x141;" horiz-adv-x="1252" 
d="M1004 767l-896 -402l-130 278l896 402zM257 0v1475h404v-1356l-182 202h708v-321h-930z" />
    <glyph glyph-name="lslash" unicode="&#x142;" horiz-adv-x="567" 
d="M-99 782l659 304l98 -208l-659 -303zM512 1563v-1563h-397v1563h397z" />
    <glyph glyph-name="Nacute" unicode="&#x143;" horiz-adv-x="1558" 
d="M503 0h-393v1475h616l407 -1354l-78 -16v1370h393v-1475h-621l-407 1349l83 16v-1365zM605 1563l267 224h301l-311 -224h-257z" />
    <glyph glyph-name="nacute" unicode="&#x144;" horiz-adv-x="1332" 
d="M839 0l-0.000976562 413.003v64v55c0 36.667 -3.16699 71.667 -9.5 105s-20.666 60.666 -42.999 81.999s-57.833 32 -106.5 32c-42 0 -76 -8.66699 -102 -26s-45 -42.333 -57 -75s-18 -72 -18 -118l-78 80c0 97.333 19.667 181.166 59 251.499s93 124.666 161 162.999
s144.667 57.5 230 57.5c90.667 0 162.667 -18.5 216 -55.5s91.833 -88.167 115.5 -153.5s35.5 -140 35.5 -224v-126v-150v-375h-403zM99.999 0.00292969v1062h403v-1062h-403zM486.999 1184l237 291h291l-281 -291h-247z" />
    <glyph glyph-name="uni0145" unicode="&#x145;" horiz-adv-x="1558" 
d="M503 0h-393v1475h616l407 -1354l-78 -16v1370h393v-1475h-621l-407 1349l83 16v-1365zM773 -285c-35.333 0 -63.166 9.16699 -83.499 27.5s-30.5 43.5 -30.5 75.5c0 41.333 15.333 70.166 46 86.499s62.667 24.5 96 24.5c20 0 41.167 -4.5 63.5 -13.5
s41.166 -23.5 56.499 -43.5s23 -47.333 23 -82c0 -54 -12.833 -98.5 -38.5 -133.5s-55.834 -62.167 -90.501 -81.5s-65.334 -33.333 -92.001 -42l-20 58c20.667 6.66699 42.834 16.167 66.501 28.5s43.834 28.833 60.501 49.5s25 46.334 25 77.001
c-6 -10.667 -16.833 -18.5 -32.5 -23.5s-32.167 -7.5 -49.5 -7.5z" />
    <glyph glyph-name="uni0146" unicode="&#x146;" horiz-adv-x="1332" 
d="M839 0l-0.000976562 413.003v64v55c0 36.667 -3.16699 71.667 -9.5 105s-20.666 60.666 -42.999 81.999s-57.833 32 -106.5 32c-42 0 -76 -8.66699 -102 -26s-45 -42.333 -57 -75s-18 -72 -18 -118l-78 80c0 97.333 19.667 181.166 59 251.499s93 124.666 161 162.999
s144.667 57.5 230 57.5c90.667 0 162.667 -18.5 216 -55.5s91.833 -88.167 115.5 -153.5s35.5 -140 35.5 -224v-126v-150v-375h-403zM99.999 0.00292969v1062h403v-1062h-403zM629.999 -284.997c-35.333 0 -63.166 9.16699 -83.499 27.5s-30.5 43.5 -30.5 75.5
c0 41.333 15.333 70.166 46 86.499s62.667 24.5 96 24.5c20 0 41.167 -4.5 63.5 -13.5s41.166 -23.5 56.499 -43.5s23 -47.333 23 -82c0 -54 -12.833 -98.5 -38.5 -133.5s-55.834 -62.167 -90.501 -81.5s-65.334 -33.333 -92.001 -42l-20 58
c20.667 6.66699 42.834 16.167 66.501 28.5s43.834 28.833 60.501 49.5s25 46.334 25 77.001c-6 -10.667 -16.833 -18.5 -32.5 -23.5s-32.167 -7.5 -49.5 -7.5z" />
    <glyph glyph-name="Ncaron" unicode="&#x147;" horiz-adv-x="1558" 
d="M503 0h-393v1475h616l407 -1354l-78 -16v1370h393v-1475h-621l-407 1349l83 16v-1365zM419 1787h245l188 -169h-103l190 169h246l-258 -225h-249z" />
    <glyph glyph-name="ncaron" unicode="&#x148;" horiz-adv-x="1332" 
d="M839 0l-0.000976562 413.003v64v55c0 36.667 -3.16699 71.667 -9.5 105s-20.666 60.666 -42.999 81.999s-57.833 32 -106.5 32c-42 0 -76 -8.66699 -102 -26s-45 -42.333 -57 -75s-18 -72 -18 -118l-78 80c0 97.333 19.667 181.166 59 251.499s93 124.666 161 162.999
s144.667 57.5 230 57.5c90.667 0 162.667 -18.5 216 -55.5s91.833 -88.167 115.5 -153.5s35.5 -140 35.5 -224v-126v-150v-375h-403zM99.999 0.00292969v1062h403v-1062h-403zM300.999 1475h245l188 -219h-103l190 219h246l-258 -291h-249z" />
    <glyph glyph-name="Eng" unicode="&#x14a;" horiz-adv-x="1558" 
d="M811 -456c-22 0 -44.832 1.33301 -68.499 4s-39.167 4.66699 -46.5 6v290c9.33301 -2.66699 26.5 -5.5 51.5 -8.5s47.167 -4.5 66.5 -4.5c29.333 0 58 1.83301 86 5.5s53.333 10.5 76 20.5s40.667 24.333 54 43s20 42.667 20 72v28h-243l-353 1263l49 7v-1270h-393v1475
h636l358 -1285l-49 -7v1292h393v-1494c0 -86 -12.833 -157.333 -38.5 -214s-64.834 -101.167 -117.501 -133.5s-119 -55.333 -199 -69s-174 -20.5 -282 -20.5z" />
    <glyph glyph-name="eng" unicode="&#x14b;" horiz-adv-x="1332" 
d="M608 -456l0.000976562 287.003c28 0 55.667 1.83301 83 5.5s52.166 10.5 74.499 20.5s40.166 24.333 53.499 43s20 42.667 20 72v441v59.5v59.5c0 36.667 -3.16699 71.667 -9.5 105s-20.666 60.666 -42.999 81.999s-57.833 32 -106.5 32c-42 0 -76 -8.66699 -102 -26
s-45 -42.333 -57 -75s-18 -72 -18 -118l-78 80c0 97.333 19.667 181.166 59 251.499s93 124.666 161 162.999s144.667 57.5 230 57.5c90.667 0 162.667 -18.5 216 -55.5s91.833 -88.167 115.5 -153.5s35.5 -140 35.5 -224v-138v-138v-394c0 -86 -12.833 -157.333 -38.5 -214
s-64.5 -101.167 -116.5 -133.5s-117.833 -55.333 -197.5 -69s-173.5 -20.5 -281.5 -20.5zM100.001 0.00292969v1062h403v-1062h-403z" />
    <glyph glyph-name="Omacron" unicode="&#x14c;" horiz-adv-x="1564" 
d="M782 -26c-95.333 0 -185.835 16.333 -271.502 49s-161.5 81.334 -227.5 146.001s-118 144.667 -156 240s-57 205.333 -57 330c0 125.333 18.833 235.333 56.5 330s89.334 174 155.001 238s141.334 112.167 227.001 144.5s176.834 48.5 273.501 48.5
s188 -16.167 274 -48.5s161.833 -80.5 227.5 -144.5s117.167 -143.333 154.5 -238s56 -204.667 56 -330c0 -124.667 -19 -234.667 -57 -330s-90.167 -175.333 -156.5 -240s-142.333 -113.334 -228 -146.001s-175.834 -49 -270.501 -49zM781.998 286
c49.333 0 97.167 13.501 143.5 40.501s84.333 73.5 114 139.5s44.5 157 44.5 273c0 116.667 -15 207.5 -45 272.5s-68 110.667 -114 137s-93.667 39.5 -143 39.5c-48.667 0 -96.167 -13.167 -142.5 -39.5s-84.5 -72 -114.5 -137s-45 -155.833 -45 -272.5
s15 -207.834 45 -273.501s68.167 -112 114.5 -139s93.833 -40.5 142.5 -40.5zM434.999 1609v163h693v-163h-693z" />
    <glyph glyph-name="omacron" unicode="&#x14d;" horiz-adv-x="1302" 
d="M651 -25c-120 0 -225.5 23.333 -316.5 70s-162 111.667 -213 195s-76.5 180 -76.5 290s25.5 206.667 76.5 290s122 148.166 213 194.499s196.5 69.5 316.5 69.5s225.5 -23.167 316.5 -69.5s162 -111.166 213 -194.499s76.5 -180 76.5 -290s-25.5 -206.667 -76.5 -290
s-122 -148.333 -213 -195s-196.5 -70 -316.5 -70zM651 280c41.333 0 76.666 10.333 105.999 31s51.833 49.667 67.5 87s23.5 81.333 23.5 132s-7.83301 94.5 -23.5 131.5s-38.167 65.667 -67.5 86s-64.666 30.5 -105.999 30.5c-40.667 0 -75.834 -10.167 -105.501 -30.5
s-52.334 -49 -68.001 -86s-23.5 -80.833 -23.5 -131.5s7.83301 -94.667 23.5 -132s38.334 -66.333 68.001 -87s64.834 -31 105.501 -31zM304 1266v163h693v-163h-693z" />
    <glyph glyph-name="Obreve" unicode="&#x14e;" horiz-adv-x="1564" 
d="M782 -26c-95.333 0 -185.835 16.333 -271.502 49s-161.5 81.334 -227.5 146.001s-118 144.667 -156 240s-57 205.333 -57 330c0 125.333 18.833 235.333 56.5 330s89.334 174 155.001 238s141.334 112.167 227.001 144.5s176.834 48.5 273.501 48.5
s188 -16.167 274 -48.5s161.833 -80.5 227.5 -144.5s117.167 -143.333 154.5 -238s56 -204.667 56 -330c0 -124.667 -19 -234.667 -57 -330s-90.167 -175.333 -156.5 -240s-142.333 -113.334 -228 -146.001s-175.834 -49 -270.501 -49zM781.998 286
c49.333 0 97.167 13.501 143.5 40.501s84.333 73.5 114 139.5s44.5 157 44.5 273c0 116.667 -15 207.5 -45 272.5s-68 110.667 -114 137s-93.667 39.5 -143 39.5c-48.667 0 -96.167 -13.167 -142.5 -39.5s-84.5 -72 -114.5 -137s-45 -155.833 -45 -272.5
s15 -207.834 45 -273.501s68.167 -112 114.5 -139s93.833 -40.5 142.5 -40.5zM458.999 1772h231c0 -24.667 7.83301 -45.334 23.5 -62.001s38.5 -25 68.5 -25c30.667 0 53.667 8.33301 69 25s23 37.334 23 62.001h231c0 -72 -30.5 -129.333 -91.5 -172
s-138.167 -64 -231.5 -64s-170.5 21.333 -231.5 64s-91.5 100 -91.5 172z" />
    <glyph glyph-name="obreve" unicode="&#x14f;" horiz-adv-x="1302" 
d="M651 -25c-120 0 -225.5 23.333 -316.5 70s-162 111.667 -213 195s-76.5 180 -76.5 290s25.5 206.667 76.5 290s122 148.166 213 194.499s196.5 69.5 316.5 69.5s225.5 -23.167 316.5 -69.5s162 -111.166 213 -194.499s76.5 -180 76.5 -290s-25.5 -206.667 -76.5 -290
s-122 -148.333 -213 -195s-196.5 -70 -316.5 -70zM651 280c41.333 0 76.666 10.333 105.999 31s51.833 49.667 67.5 87s23.5 81.333 23.5 132s-7.83301 94.5 -23.5 131.5s-38.167 65.667 -67.5 86s-64.666 30.5 -105.999 30.5c-40.667 0 -75.834 -10.167 -105.501 -30.5
s-52.334 -49 -68.001 -86s-23.5 -80.833 -23.5 -131.5s7.83301 -94.667 23.5 -132s38.334 -66.333 68.001 -87s64.834 -31 105.501 -31zM328 1495h231c0 -39.333 7.83301 -72 23.5 -98s38.5 -39 68.5 -39c30.667 0 53.667 13 69 39s23 58.667 23 98h231
c0 -92 -30.5 -162.667 -91.5 -212s-138.167 -74 -231.5 -74s-170.5 24.667 -231.5 74s-91.5 120 -91.5 212z" />
    <glyph glyph-name="Ohungarumlaut" unicode="&#x150;" horiz-adv-x="1564" 
d="M782 -26c-95.333 0 -185.835 16.333 -271.502 49s-161.5 81.334 -227.5 146.001s-118 144.667 -156 240s-57 205.333 -57 330c0 125.333 18.833 235.333 56.5 330s89.334 174 155.001 238s141.334 112.167 227.001 144.5s176.834 48.5 273.501 48.5
s188 -16.167 274 -48.5s161.833 -80.5 227.5 -144.5s117.167 -143.333 154.5 -238s56 -204.667 56 -330c0 -124.667 -19 -234.667 -57 -330s-90.167 -175.333 -156.5 -240s-142.333 -113.334 -228 -146.001s-175.834 -49 -270.501 -49zM781.998 286
c49.333 0 97.167 13.501 143.5 40.501s84.333 73.5 114 139.5s44.5 157 44.5 273c0 116.667 -15 207.5 -45 272.5s-68 110.667 -114 137s-93.667 39.5 -143 39.5c-48.667 0 -96.167 -13.167 -142.5 -39.5s-84.5 -72 -114.5 -137s-45 -155.833 -45 -272.5
s15 -207.834 45 -273.501s68.167 -112 114.5 -139s93.833 -40.5 142.5 -40.5zM476.999 1563l257 224h236l-276 -224h-217zM863.999 1563l257 224h236l-276 -224h-217z" />
    <glyph glyph-name="ohungarumlaut" unicode="&#x151;" horiz-adv-x="1302" 
d="M651 -25c-120 0 -225.5 23.333 -316.5 70s-162 111.667 -213 195s-76.5 180 -76.5 290s25.5 206.667 76.5 290s122 148.166 213 194.499s196.5 69.5 316.5 69.5s225.5 -23.167 316.5 -69.5s162 -111.166 213 -194.499s76.5 -180 76.5 -290s-25.5 -206.667 -76.5 -290
s-122 -148.333 -213 -195s-196.5 -70 -316.5 -70zM651 280c41.333 0 76.666 10.333 105.999 31s51.833 49.667 67.5 87s23.5 81.333 23.5 132s-7.83301 94.5 -23.5 131.5s-38.167 65.667 -67.5 86s-64.666 30.5 -105.999 30.5c-40.667 0 -75.834 -10.167 -105.501 -30.5
s-52.334 -49 -68.001 -86s-23.5 -80.833 -23.5 -131.5s7.83301 -94.667 23.5 -132s38.334 -66.333 68.001 -87s64.834 -31 105.501 -31zM370 1184l146 291h231l-181 -291h-196zM729 1184l166 291h231l-201 -291h-196z" />
    <glyph glyph-name="OE" unicode="&#x152;" horiz-adv-x="2113" 
d="M762 -26c-126.667 0 -242.502 29 -347.502 87s-188.667 143.833 -251 257.5s-93.5 253.834 -93.5 420.501s30.833 306.5 92.5 419.5s144.834 198.167 249.501 255.5s221.334 86 350.001 86c51.333 0 103.333 -6.16699 156 -18.5s95.334 -27.5 128.001 -45.5v39h957v-300
h-753l182 182v-561l-94 94h554v-300h-557l97 97v-569l-182 182h753v-300h-957v40c-33.333 -18.667 -76.333 -34.334 -129 -47.001s-104.334 -19 -155.001 -19zM761.998 286c49.333 0 95.501 13.501 138.501 40.501s77.667 73.5 104 139.5s39.5 157 39.5 273
c0 116.667 -13.333 207.5 -40 272.5s-61.334 110.667 -104.001 137s-88.667 39.5 -138 39.5c-48.667 0 -94.5 -13.167 -137.5 -39.5s-77.833 -72 -104.5 -137s-40 -155.833 -40 -272.5s13.333 -207.834 40 -273.501s61.5 -112 104.5 -139s88.833 -40.5 137.5 -40.5z" />
    <glyph glyph-name="oe" unicode="&#x153;" horiz-adv-x="2116" 
d="M651 -25c-120 0 -225.499 23.333 -316.499 70s-162 111.667 -213 195s-76.5 180 -76.5 290s25.5 206.667 76.5 290s122 148.166 213 194.499s196.5 69.5 316.5 69.5c68.667 0 133 -7.83301 193 -23.5s114.333 -38.334 163 -68.001s90.334 -65.5 125.001 -107.5l-156 1
c35.333 41.333 77.5 76.833 126.5 106.5s103.667 52.334 164 68.001s125.5 23.5 195.5 23.5c125.333 0 233.5 -23.5 324.5 -70.5s161.167 -113.667 210.5 -200s74 -188.833 74 -307.5c0 -20 -0.333008 -37 -1 -51s-1.66699 -25.333 -3 -34h-995l172 139
c-0.666992 -14.667 -0.833984 -28.834 -0.500977 -42.501s0.833008 -27.167 1.5 -40.5c4 -44 14 -82.167 30 -114.5s40 -57.166 72 -74.499s74 -26 126 -26c32 0 59.5 2.33301 82.5 7s42 10.667 57 18s26.167 15.333 33.5 24s11.666 17 12.999 25h398
c-4.66699 -46.667 -21.5 -91.667 -50.5 -135s-68.833 -82.166 -119.5 -116.499s-111.667 -61.333 -183 -81s-152 -29.5 -242 -29.5c-70.667 0 -136.334 7.83301 -197.001 23.5s-115.167 38.5 -163.5 68.5s-90.166 66 -125.499 108h157c-36 -41.333 -78.5 -77 -127.5 -107
s-103.167 -52.833 -162.5 -68.5s-123.333 -23.5 -192 -23.5zM651.001 280c41.333 0 77 10.333 107 31s53.167 49.667 69.5 87s24.5 81.333 24.5 132s-8.16699 94.5 -24.5 131.5s-39.5 65.667 -69.5 86s-65.667 30.5 -107 30.5c-40.667 0 -76.167 -10.167 -106.5 -30.5
s-53.666 -49 -69.999 -86s-24.5 -80.833 -24.5 -131.5s8.16699 -94.667 24.5 -132s39.666 -66.333 69.999 -87s65.833 -31 106.5 -31zM1262 661h403.999c0 1.33301 -0.166992 3 -0.5 5s-0.833008 3.66699 -1.5 5c-6.66699 20 -17.5 40 -32.5 60s-35.667 36.5 -62 49.5
s-60.5 19.5 -102.5 19.5c-38.667 0 -71.5 -6 -98.5 -18s-49.167 -28.5 -66.5 -49.5s-30.666 -44.833 -39.999 -71.5z" />
    <glyph glyph-name="Racute" unicode="&#x154;" horiz-adv-x="1331" 
d="M110 0l0.00292969 1475h654c168 0 292.167 -37.167 372.5 -111.5s120.5 -177.833 120.5 -310.5c0 -74.667 -14.333 -138.334 -43 -191.001s-64.334 -93.334 -107.001 -122.001s-85 -44.667 -127 -48c43.333 -2.66699 83.666 -13 120.999 -31s67.5 -46.833 90.5 -86.5
s34.5 -93.167 34.5 -160.5v-122v-122c0 -35.333 2.83301 -68.833 8.5 -100.5s14.5 -54.834 26.5 -69.501h-404c-10.667 16.667 -18.834 40.334 -24.501 71.001s-8.5 63.667 -8.5 99v99v99c0 53.333 -11.333 95.5 -34 126.5s-63.667 46.5 -123 46.5h-268l105 123v-664h-394z
M504.003 700.002l-105 141.001h272c34 0 63.833 7 89.5 21s45.667 34.167 60 60.5s21.5 57.166 21.5 92.499c0 43.333 -15.5 81 -46.5 113s-73.167 48 -126.5 48h-280l115 120v-596zM452.003 1563l267 224h301l-311 -224h-257z" />
    <glyph glyph-name="racute" unicode="&#x155;" horiz-adv-x="996" 
d="M100 0l0.00390625 1062h404v-393l-69 54c10 56.667 25.667 107.334 47 152.001s48.166 82.5 80.499 113.5s69.666 54.667 111.999 71s89.5 24.5 141.5 24.5c43.333 0 76.166 -2.83301 98.499 -8.5s36.166 -10.167 41.499 -13.5l-55 -352c-6 3.33301 -19.333 8.5 -40 15.5
s-45.667 10.5 -75 10.5c-52 0 -96 -8.16699 -132 -24.5s-65 -38.333 -87 -66s-38 -58.667 -48 -93s-15 -69.166 -15 -104.499v-448h-404zM367.004 1184l237 291h291l-281 -291h-247z" />
    <glyph glyph-name="uni0156" unicode="&#x156;" horiz-adv-x="1331" 
d="M110 0l0.00292969 1475h654c168 0 292.167 -37.167 372.5 -111.5s120.5 -177.833 120.5 -310.5c0 -74.667 -14.333 -138.334 -43 -191.001s-64.334 -93.334 -107.001 -122.001s-85 -44.667 -127 -48c43.333 -2.66699 83.666 -13 120.999 -31s67.5 -46.833 90.5 -86.5
s34.5 -93.167 34.5 -160.5v-122v-122c0 -35.333 2.83301 -68.833 8.5 -100.5s14.5 -54.834 26.5 -69.501h-404c-10.667 16.667 -18.834 40.334 -24.501 71.001s-8.5 63.667 -8.5 99v99v99c0 53.333 -11.333 95.5 -34 126.5s-63.667 46.5 -123 46.5h-268l105 123v-664h-394z
M504.003 700.002l-105 141.001h272c34 0 63.833 7 89.5 21s45.667 34.167 60 60.5s21.5 57.166 21.5 92.499c0 43.333 -15.5 81 -46.5 113s-73.167 48 -126.5 48h-280l115 120v-596zM660.003 -284.997c-35.333 0 -63.166 9.16699 -83.499 27.5s-30.5 43.5 -30.5 75.5
c0 41.333 15.333 70.166 46 86.499s62.667 24.5 96 24.5c20 0 41.167 -4.5 63.5 -13.5s41.166 -23.5 56.499 -43.5s23 -47.333 23 -82c0 -54 -12.833 -98.5 -38.5 -133.5s-55.834 -62.167 -90.501 -81.5s-65.334 -33.333 -92.001 -42l-20 58
c20.667 6.66699 42.834 16.167 66.501 28.5s43.834 28.833 60.501 49.5s25 46.334 25 77.001c-6 -10.667 -16.833 -18.5 -32.5 -23.5s-32.167 -7.5 -49.5 -7.5z" />
    <glyph glyph-name="uni0157" unicode="&#x157;" horiz-adv-x="996" 
d="M100 0l0.00390625 1062h404v-393l-69 54c10 56.667 25.667 107.334 47 152.001s48.166 82.5 80.499 113.5s69.666 54.667 111.999 71s89.5 24.5 141.5 24.5c43.333 0 76.166 -2.83301 98.499 -8.5s36.166 -10.167 41.499 -13.5l-55 -352c-6 3.33301 -19.333 8.5 -40 15.5
s-45.667 10.5 -75 10.5c-52 0 -96 -8.16699 -132 -24.5s-65 -38.333 -87 -66s-38 -58.667 -48 -93s-15 -69.166 -15 -104.499v-448h-404zM273.004 -285.002c-35.333 0 -63.166 9.16699 -83.499 27.5s-30.5 43.5 -30.5 75.5c0 41.333 15.333 70.166 46 86.499
s62.667 24.5 96 24.5c20 0 41.167 -4.5 63.5 -13.5s41.166 -23.5 56.499 -43.5s23 -47.333 23 -82c0 -54 -12.833 -98.5 -38.5 -133.5s-55.834 -62.167 -90.501 -81.5s-65.334 -33.333 -92.001 -42l-20 58c20.667 6.66699 42.834 16.167 66.501 28.5
s43.834 28.833 60.501 49.5s25 46.334 25 77.001c-6 -10.667 -16.833 -18.5 -32.5 -23.5s-32.167 -7.5 -49.5 -7.5z" />
    <glyph glyph-name="Rcaron" unicode="&#x158;" horiz-adv-x="1331" 
d="M110 0l0.00292969 1475h654c168 0 292.167 -37.167 372.5 -111.5s120.5 -177.833 120.5 -310.5c0 -74.667 -14.333 -138.334 -43 -191.001s-64.334 -93.334 -107.001 -122.001s-85 -44.667 -127 -48c43.333 -2.66699 83.666 -13 120.999 -31s67.5 -46.833 90.5 -86.5
s34.5 -93.167 34.5 -160.5v-122v-122c0 -35.333 2.83301 -68.833 8.5 -100.5s14.5 -54.834 26.5 -69.501h-404c-10.667 16.667 -18.834 40.334 -24.501 71.001s-8.5 63.667 -8.5 99v99v99c0 53.333 -11.333 95.5 -34 126.5s-63.667 46.5 -123 46.5h-268l105 123v-664h-394z
M504.003 700.002l-105 141.001h272c34 0 63.833 7 89.5 21s45.667 34.167 60 60.5s21.5 57.166 21.5 92.499c0 43.333 -15.5 81 -46.5 113s-73.167 48 -126.5 48h-280l115 120v-596zM266.003 1787h245l188 -169h-103l190 169h246l-258 -225h-249z" />
    <glyph glyph-name="rcaron" unicode="&#x159;" horiz-adv-x="996" 
d="M100 0l0.00390625 1062h404v-393l-69 54c10 56.667 25.667 107.334 47 152.001s48.166 82.5 80.499 113.5s69.666 54.667 111.999 71s89.5 24.5 141.5 24.5c43.333 0 76.166 -2.83301 98.499 -8.5s36.166 -10.167 41.499 -13.5l-55 -352c-6 3.33301 -19.333 8.5 -40 15.5
s-45.667 10.5 -75 10.5c-52 0 -96 -8.16699 -132 -24.5s-65 -38.333 -87 -66s-38 -58.667 -48 -93s-15 -69.166 -15 -104.499v-448h-404zM181.004 1475h245l188 -219h-103l190 219h246l-258 -291h-249z" />
    <glyph glyph-name="Sacute" unicode="&#x15a;" horiz-adv-x="1296" 
d="M645 -26c-109.333 0 -207.337 17.501 -294.004 52.501s-155.167 87.167 -205.5 156.5s-75.5 155.333 -75.5 258v26v26h403v-22v-22c0 -46.667 14.5 -85.667 43.5 -117s73.167 -47 132.5 -47c57.333 0 102.5 8.5 135.5 25.5s49.5 44.833 49.5 83.5
c0 28.667 -15.5 55.334 -46.5 80.001s-72.667 48 -125 70s-110.5 43 -174.5 63c-69.333 22 -135.166 51.667 -197.499 89s-113.166 85.833 -152.499 145.5s-59 133.834 -59 222.501c0 91.333 25.333 169.5 76 234.5s118.834 114.833 204.501 149.5s180.834 52 285.501 52
c108.667 0 205.834 -17 291.501 -51s153.5 -84 203.5 -150s75 -147.667 75 -245v-25v-25h-403v15.5v15.5c0 43.333 -12.167 80 -36.5 110s-66.166 45 -125.499 45c-58.667 0 -103.834 -10.667 -135.501 -32s-47.5 -52.333 -47.5 -93c0 -28.667 13.333 -53.834 40 -75.501
s63.5 -41.834 110.5 -60.501s100.167 -38.667 159.5 -60c89.333 -31.333 167.666 -65.833 234.999 -103.5s119.833 -84.834 157.5 -141.501s56.5 -129.334 56.5 -218.001c0 -92.667 -25 -171.167 -75 -235.5s-118.833 -113.166 -206.5 -146.499s-187.5 -50 -299.5 -50z
M451.996 1563l267 224h301l-311 -224h-257z" />
    <glyph glyph-name="sacute" unicode="&#x15b;" horiz-adv-x="1134" 
d="M565 -26c-62.667 0 -124.673 7.49902 -186.006 22.499s-117.166 37.667 -167.499 68s-90.666 68.5 -120.999 114.5s-45.5 100 -45.5 162v5v5h399v-5v-5c0 -28 12 -47.667 36 -59s56.333 -17 97 -17c14.667 0 31.667 1.83301 51 5.5s36.166 10 50.499 19
s21.5 20.833 21.5 35.5c0 22 -15.167 37.5 -45.5 46.5s-83.166 19.5 -158.499 31.5c-45.333 7.33301 -93.333 18.166 -144 32.499s-98.334 34 -143.001 59s-81 56.833 -109 95.5s-42 86.334 -42 143.001c0 77.333 23.5 142 70.5 194s109.333 91.167 187 117.5
s162.5 39.5 254.5 39.5c87.333 0 169.333 -14.833 246 -44.5s139 -71.834 187 -126.501s72 -119.334 72 -194.001v-5v-5h-395v5v5c0 18.667 -5.83301 33.5 -17.5 44.5s-26.167 19.167 -43.5 24.5s-34.666 8 -51.999 8c-13.333 0 -29.166 -1.5 -47.499 -4.5
s-34.166 -8.5 -47.499 -16.5s-20 -19.667 -20 -35c0 -13.333 8.5 -24.666 25.5 -33.999s40.333 -17.166 70 -23.499s62.834 -12.166 99.501 -17.499c38 -5.33301 82 -14 132 -26s98.667 -29.833 146 -53.5s86.5 -55.667 117.5 -96s46.5 -91.833 46.5 -154.5
c0 -67.333 -15.5 -124 -46.5 -170s-72.333 -83 -124 -111s-108.167 -48.333 -169.5 -61s-122.666 -19 -183.999 -19zM370.994 1184l237 291h291l-281 -291h-247z" />
    <glyph glyph-name="Scircumflex" unicode="&#x15c;" horiz-adv-x="1296" 
d="M645 -26c-109.333 0 -207.337 17.501 -294.004 52.501s-155.167 87.167 -205.5 156.5s-75.5 155.333 -75.5 258v26v26h403v-22v-22c0 -46.667 14.5 -85.667 43.5 -117s73.167 -47 132.5 -47c57.333 0 102.5 8.5 135.5 25.5s49.5 44.833 49.5 83.5
c0 28.667 -15.5 55.334 -46.5 80.001s-72.667 48 -125 70s-110.5 43 -174.5 63c-69.333 22 -135.166 51.667 -197.499 89s-113.166 85.833 -152.499 145.5s-59 133.834 -59 222.501c0 91.333 25.333 169.5 76 234.5s118.834 114.833 204.501 149.5s180.834 52 285.501 52
c108.667 0 205.834 -17 291.501 -51s153.5 -84 203.5 -150s75 -147.667 75 -245v-25v-25h-403v15.5v15.5c0 43.333 -12.167 80 -36.5 110s-66.166 45 -125.499 45c-58.667 0 -103.834 -10.667 -135.501 -32s-47.5 -52.333 -47.5 -93c0 -28.667 13.333 -53.834 40 -75.501
s63.5 -41.834 110.5 -60.501s100.167 -38.667 159.5 -60c89.333 -31.333 167.666 -65.833 234.999 -103.5s119.833 -84.834 157.5 -141.501s56.5 -129.334 56.5 -218.001c0 -92.667 -25 -171.167 -75 -235.5s-118.833 -113.166 -206.5 -146.499s-187.5 -50 -299.5 -50z
M265.996 1562l259 225h249l258 -225h-246l-190 169h103l-188 -169h-245z" />
    <glyph glyph-name="scircumflex" unicode="&#x15d;" horiz-adv-x="1134" 
d="M565 -26c-62.667 0 -124.673 7.49902 -186.006 22.499s-117.166 37.667 -167.499 68s-90.666 68.5 -120.999 114.5s-45.5 100 -45.5 162v5v5h399v-5v-5c0 -28 12 -47.667 36 -59s56.333 -17 97 -17c14.667 0 31.667 1.83301 51 5.5s36.166 10 50.499 19
s21.5 20.833 21.5 35.5c0 22 -15.167 37.5 -45.5 46.5s-83.166 19.5 -158.499 31.5c-45.333 7.33301 -93.333 18.166 -144 32.499s-98.334 34 -143.001 59s-81 56.833 -109 95.5s-42 86.334 -42 143.001c0 77.333 23.5 142 70.5 194s109.333 91.167 187 117.5
s162.5 39.5 254.5 39.5c87.333 0 169.333 -14.833 246 -44.5s139 -71.834 187 -126.501s72 -119.334 72 -194.001v-5v-5h-395v5v5c0 18.667 -5.83301 33.5 -17.5 44.5s-26.167 19.167 -43.5 24.5s-34.666 8 -51.999 8c-13.333 0 -29.166 -1.5 -47.499 -4.5
s-34.166 -8.5 -47.499 -16.5s-20 -19.667 -20 -35c0 -13.333 8.5 -24.666 25.5 -33.999s40.333 -17.166 70 -23.499s62.834 -12.166 99.501 -17.499c38 -5.33301 82 -14 132 -26s98.667 -29.833 146 -53.5s86.5 -55.667 117.5 -96s46.5 -91.833 46.5 -154.5
c0 -67.333 -15.5 -124 -46.5 -170s-72.333 -83 -124 -111s-108.167 -48.333 -169.5 -61s-122.666 -19 -183.999 -19zM184.994 1184l259 291h249l258 -291h-246l-190 219h103l-188 -219h-245z" />
    <glyph glyph-name="Scedilla" unicode="&#x15e;" horiz-adv-x="1296" 
d="M772 -56c24 0 48.666 -4.83398 73.999 -14.501s46.833 -25.5 64.5 -47.5s26.5 -51.667 26.5 -89c0 -47.333 -15 -86 -45 -116s-68.5 -52 -115.5 -66s-95.833 -21 -146.5 -21c-44.667 0 -91.667 5.83301 -141 17.5s-84.666 24.834 -105.999 39.501l76 141
c15.333 -8.66699 41 -19.667 77 -33s71.667 -20 107 -20s64.666 5.5 87.999 16.5s35 27.5 35 49.5c0 17.333 -5.66699 29.833 -17 37.5s-24.666 11.5 -39.999 11.5s-30.5 -2.5 -45.5 -7.5s-26.167 -13.167 -33.5 -24.5l-146 39l74 143h166l-58 -107h-10
c6.66699 16 19.5 28.5 38.5 37.5s44.833 13.5 77.5 13.5zM644.999 -26.001c-109.333 0 -207.337 17.501 -294.004 52.501s-155.167 87.167 -205.5 156.5s-75.5 155.333 -75.5 258v26v26h403v-22v-22c0 -46.667 14.5 -85.667 43.5 -117s73.167 -47 132.5 -47
c57.333 0 102.5 8.5 135.5 25.5s49.5 44.833 49.5 83.5c0 28.667 -15.5 55.334 -46.5 80.001s-72.667 48 -125 70s-110.5 43 -174.5 63c-69.333 22 -135.166 51.667 -197.499 89s-113.166 85.833 -152.499 145.5s-59 133.834 -59 222.501c0 91.333 25.333 169.5 76 234.5
s118.834 114.833 204.501 149.5s180.834 52 285.501 52c108.667 0 205.834 -17 291.501 -51s153.5 -84 203.5 -150s75 -147.667 75 -245v-25v-25h-403v15.5v15.5c0 43.333 -12.167 80 -36.5 110s-66.166 45 -125.499 45c-58.667 0 -103.834 -10.667 -135.501 -32
s-47.5 -52.333 -47.5 -93c0 -28.667 13.333 -53.834 40 -75.501s63.5 -41.834 110.5 -60.501s100.167 -38.667 159.5 -60c89.333 -31.333 167.666 -65.833 234.999 -103.5s119.833 -84.834 157.5 -141.501s56.5 -129.334 56.5 -218.001c0 -92.667 -25 -171.167 -75 -235.5
s-118.833 -113.166 -206.5 -146.499s-187.5 -50 -299.5 -50z" />
    <glyph glyph-name="scedilla" unicode="&#x15f;" horiz-adv-x="1120" 
d="M696 -73c24 0 48.666 -4.83398 73.999 -14.501s46.833 -25.5 64.5 -47.5s26.5 -51.667 26.5 -89c0 -47.333 -15 -86 -45 -116s-68.5 -52 -115.5 -66s-95.833 -21 -146.5 -21c-44.667 0 -91.667 5.83301 -141 17.5s-84.666 24.834 -105.999 39.501l76 141
c15.333 -8.66699 41 -19.667 77 -33s71.667 -20 107 -20s64.666 5.5 87.999 16.5s35 27.5 35 49.5c0 17.333 -5.66699 29.833 -17 37.5s-24.666 11.5 -39.999 11.5s-30.5 -2.5 -45.5 -7.5s-26.167 -13.167 -33.5 -24.5l-146 39l74 143h166l-58 -107h-10
c6.66699 16 19.5 28.5 38.5 37.5s44.833 13.5 77.5 13.5zM564.999 -26.001c-62.667 0 -124.673 7.49902 -186.006 22.499s-117.166 37.667 -167.499 68s-90.666 68.5 -120.999 114.5s-45.5 100 -45.5 162v5v5h399v-5v-5c0 -28 12 -47.667 36 -59s56.333 -17 97 -17
c14.667 0 31.667 1.83301 51 5.5s36.166 10 50.499 19s21.5 20.833 21.5 35.5c0 22 -15.167 37.5 -45.5 46.5s-83.166 19.5 -158.499 31.5c-45.333 7.33301 -93.333 18.166 -144 32.499s-98.334 34 -143.001 59s-81 56.833 -109 95.5s-42 86.334 -42 143.001
c0 77.333 23.5 142 70.5 194s109.333 91.167 187 117.5s162.5 39.5 254.5 39.5c87.333 0 169.333 -14.833 246 -44.5s139 -71.834 187 -126.501s72 -119.334 72 -194.001v-5v-5h-395v5v5c0 18.667 -5.83301 33.5 -17.5 44.5s-26.167 19.167 -43.5 24.5s-34.666 8 -51.999 8
c-13.333 0 -29.166 -1.5 -47.499 -4.5s-34.166 -8.5 -47.499 -16.5s-20 -19.667 -20 -35c0 -13.333 8.5 -24.666 25.5 -33.999s40.333 -17.166 70 -23.499s62.834 -12.166 99.501 -17.499c38 -5.33301 82 -14 132 -26s98.667 -29.833 146 -53.5s86.5 -55.667 117.5 -96
s46.5 -91.833 46.5 -154.5c0 -67.333 -15.5 -124 -46.5 -170s-72.333 -83 -124 -111s-108.167 -48.333 -169.5 -61s-122.666 -19 -183.999 -19z" />
    <glyph glyph-name="Scaron" unicode="&#x160;" horiz-adv-x="1296" 
d="M645 -26c-109.333 0 -207.337 17.501 -294.004 52.501s-155.167 87.167 -205.5 156.5s-75.5 155.333 -75.5 258v26v26h403v-22v-22c0 -46.667 14.5 -85.667 43.5 -117s73.167 -47 132.5 -47c57.333 0 102.5 8.5 135.5 25.5s49.5 44.833 49.5 83.5
c0 28.667 -15.5 55.334 -46.5 80.001s-72.667 48 -125 70s-110.5 43 -174.5 63c-69.333 22 -135.166 51.667 -197.499 89s-113.166 85.833 -152.499 145.5s-59 133.834 -59 222.501c0 91.333 25.333 169.5 76 234.5s118.834 114.833 204.501 149.5s180.834 52 285.501 52
c108.667 0 205.834 -17 291.501 -51s153.5 -84 203.5 -150s75 -147.667 75 -245v-25v-25h-403v15.5v15.5c0 43.333 -12.167 80 -36.5 110s-66.166 45 -125.499 45c-58.667 0 -103.834 -10.667 -135.501 -32s-47.5 -52.333 -47.5 -93c0 -28.667 13.333 -53.834 40 -75.501
s63.5 -41.834 110.5 -60.501s100.167 -38.667 159.5 -60c89.333 -31.333 167.666 -65.833 234.999 -103.5s119.833 -84.834 157.5 -141.501s56.5 -129.334 56.5 -218.001c0 -92.667 -25 -171.167 -75 -235.5s-118.833 -113.166 -206.5 -146.499s-187.5 -50 -299.5 -50z
M265.996 1787h245l188 -169h-103l190 169h246l-258 -225h-249z" />
    <glyph glyph-name="scaron" unicode="&#x161;" horiz-adv-x="1134" 
d="M565 -26c-62.667 0 -124.673 7.49902 -186.006 22.499s-117.166 37.667 -167.499 68s-90.666 68.5 -120.999 114.5s-45.5 100 -45.5 162v5v5h399v-5v-5c0 -28 12 -47.667 36 -59s56.333 -17 97 -17c14.667 0 31.667 1.83301 51 5.5s36.166 10 50.499 19
s21.5 20.833 21.5 35.5c0 22 -15.167 37.5 -45.5 46.5s-83.166 19.5 -158.499 31.5c-45.333 7.33301 -93.333 18.166 -144 32.499s-98.334 34 -143.001 59s-81 56.833 -109 95.5s-42 86.334 -42 143.001c0 77.333 23.5 142 70.5 194s109.333 91.167 187 117.5
s162.5 39.5 254.5 39.5c87.333 0 169.333 -14.833 246 -44.5s139 -71.834 187 -126.501s72 -119.334 72 -194.001v-5v-5h-395v5v5c0 18.667 -5.83301 33.5 -17.5 44.5s-26.167 19.167 -43.5 24.5s-34.666 8 -51.999 8c-13.333 0 -29.166 -1.5 -47.499 -4.5
s-34.166 -8.5 -47.499 -16.5s-20 -19.667 -20 -35c0 -13.333 8.5 -24.666 25.5 -33.999s40.333 -17.166 70 -23.499s62.834 -12.166 99.501 -17.499c38 -5.33301 82 -14 132 -26s98.667 -29.833 146 -53.5s86.5 -55.667 117.5 -96s46.5 -91.833 46.5 -154.5
c0 -67.333 -15.5 -124 -46.5 -170s-72.333 -83 -124 -111s-108.167 -48.333 -169.5 -61s-122.666 -19 -183.999 -19zM184.994 1475h245l188 -219h-103l190 219h246l-258 -291h-249z" />
    <glyph glyph-name="uni0162" unicode="&#x162;" horiz-adv-x="1214" 
d="M1154 1175h-528l182 182v-1357h-403v1357l182 -182h-527v300h1094v-300zM733 -56c24 0 48.666 -4.83398 73.999 -14.501s46.833 -25.5 64.5 -47.5s26.5 -51.667 26.5 -89c0 -47.333 -15 -86 -45 -116s-68.5 -52 -115.5 -66s-95.833 -21 -146.5 -21
c-44.667 0 -91.667 5.83301 -141 17.5s-84.666 24.834 -105.999 39.501l76 141c15.333 -8.66699 41 -19.667 77 -33s71.667 -20 107 -20s64.666 5.5 87.999 16.5s35 27.5 35 49.5c0 17.333 -5.66699 29.833 -17 37.5s-24.666 11.5 -39.999 11.5s-30.5 -2.5 -45.5 -7.5
s-26.167 -13.167 -33.5 -24.5l-146 39l74 143h166l-58 -107h-10c6.66699 16 19.5 28.5 38.5 37.5s44.833 13.5 77.5 13.5z" />
    <glyph glyph-name="uni0163" unicode="&#x163;" horiz-adv-x="1014" 
d="M690 -26c-46 0 -94.5 3.5 -145.5 10.5s-98.833 21.5 -143.5 43.5s-81 55.167 -109 99.5s-42 103.833 -42 178.5v46v45v365h-237v300h5c52 0 93.5 2.33301 124.5 7s54.167 16 69.5 34s25.5 46.333 30.5 85s7.5 92 7.5 160v62h404v-348h293v-300h-293v-293v-29.5v-29.5
c0 -38.667 4.66699 -71.334 14 -98.001s34.333 -40 75 -40c24 0 46.667 2.33301 68 7s37.333 9.33398 48 14.001v-291c-15.333 -6.66699 -37.5 -13 -66.5 -19s-63.167 -9 -102.5 -9zM698 -56c24 0 48.666 -4.83398 73.999 -14.501s46.833 -25.5 64.5 -47.5
s26.5 -51.667 26.5 -89c0 -47.333 -15 -86 -45 -116s-68.5 -52 -115.5 -66s-95.833 -21 -146.5 -21c-44.667 0 -91.667 5.83301 -141 17.5s-84.666 24.834 -105.999 39.501l76 141c15.333 -8.66699 41 -19.667 77 -33s71.667 -20 107 -20s64.666 5.5 87.999 16.5
s35 27.5 35 49.5c0 17.333 -5.66699 29.833 -17 37.5s-24.666 11.5 -39.999 11.5s-30.5 -2.5 -45.5 -7.5s-26.167 -13.167 -33.5 -24.5l-146 39l74 143h166l-58 -107h-10c6.66699 16 19.5 28.5 38.5 37.5s44.833 13.5 77.5 13.5z" />
    <glyph glyph-name="Tcaron" unicode="&#x164;" horiz-adv-x="1214" 
d="M1154 1175h-528l182 182v-1357h-403v1357l182 -182h-527v300h1094v-300zM225 1787h245l188 -169h-103l190 169h246l-258 -225h-249z" />
    <glyph glyph-name="tcaron" unicode="&#x165;" horiz-adv-x="992" 
d="M690 -26c-46 0 -94.5 3.5 -145.5 10.5s-98.833 21.5 -143.5 43.5s-81 55.167 -109 99.5s-42 103.833 -42 178.5v46v45v365h-237v300h5c52 0 93.5 2.33301 124.5 7s54.167 16 69.5 34s25.5 46.333 30.5 85s7.5 92 7.5 160v62h404v-348h293v-300h-293v-293v-29.5v-29.5
c0 -38.667 4.66699 -71.334 14 -98.001s34.333 -40 75 -40c24 0 46.667 2.33301 68 7s37.333 9.33398 48 14.001v-291c-15.333 -6.66699 -37.5 -13 -66.5 -19s-63.167 -9 -102.5 -9zM994 1563c0 -64 -4.16797 -126.168 -12.501 -186.501s-17.666 -113 -27.999 -158
s-18.5 -77.5 -24.5 -97.5h-180c6 20.667 12 53.5 18 98.5s11.167 97.333 15.5 157s6.5 121.834 6.5 186.501h205z" />
    <glyph glyph-name="Tbar" unicode="&#x166;" horiz-adv-x="1214" 
d="M233 648v179h750v-179h-750zM1154 1175h-528l182 182v-1357h-403v1357l182 -182h-527v300h1094v-300z" />
    <glyph glyph-name="tbar" unicode="&#x167;" horiz-adv-x="1014" 
d="M83 469v187h742v-187h-742zM690 -26c-46 0 -94.5 3.5 -145.5 10.5s-98.833 21.5 -143.5 43.5s-81 55.167 -109 99.5s-42 103.833 -42 178.5v46v45v365h-237v300h5c52 0 93.5 2.33301 124.5 7s54.167 16 69.5 34s25.5 46.333 30.5 85s7.5 92 7.5 160v62h404v-348h293v-300
h-293v-293v-29.5v-29.5c0 -38.667 4.66699 -71.334 14 -98.001s34.333 -40 75 -40c24 0 46.667 2.33301 68 7s37.333 9.33398 48 14.001v-291c-15.333 -6.66699 -37.5 -13 -66.5 -19s-63.167 -9 -102.5 -9z" />
    <glyph glyph-name="Utilde" unicode="&#x168;" horiz-adv-x="1388" 
d="M1278 525c0 -183.333 -52.5 -321 -157.5 -413s-247.5 -138 -427.5 -138s-322.167 46 -426.5 138s-156.5 229.667 -156.5 413v73.5v79.5v797h404v-860v-53v-47c0 -74.667 12.833 -131.667 38.5 -171s72.5 -59 140.5 -59s115.167 19.667 141.5 59s39.5 96.333 39.5 171v960
h404v-950zM1065 1816c0 -43.333 -8.17285 -85.667 -24.5059 -127s-41 -75.5 -74 -102.5s-74.833 -40.5 -125.5 -40.5c-39.333 0 -71.666 7.5 -96.999 22.5s-44.666 29.167 -57.999 42.5c-14.667 15.333 -28.167 27.833 -40.5 37.5s-27.166 14.5 -44.499 14.5
c-20 0 -35.5 -8.5 -46.5 -25.5s-16.5 -41.833 -16.5 -74.5h-196c0 43.333 8.33301 85.833 25 127.5s42 76.167 76 103.5s77.333 41 130 41c34.667 0 64.834 -7.66699 90.501 -23s45.834 -30 60.501 -44s29.334 -25.833 44.001 -35.5s29.667 -14.5 45 -14.5
c16.667 0 30.167 8.16699 40.5 24.5s15.5 40.833 15.5 73.5h196z" />
    </font>
</defs>
</svg>
